{"glyphs":{"0":{"ha":758,"x_min":0,"x_max":0,"o":"m 382 -14 b 45 479 156 -14 45 149 b 373 974 45 811 153 974 b 712 478 600 974 712 810 b 382 -14 712 148 604 -14 m 377 90 b 518 481 472 90 518 174 b 373 867 518 785 471 867 b 231 479 278 867 231 784 b 377 90 231 173 279 90 "},"1":{"ha":758,"x_min":0,"x_max":0,"o":"m 99 121 l 327 121 l 327 872 b 111 591 281 739 205 641 l 111 777 b 338 958 194 793 268 865 l 502 958 l 502 121 l 695 121 l 695 0 l 99 0 "},"2":{"ha":758,"x_min":0,"x_max":0,"o":"m 689 123 l 689 0 l 83 0 l 83 158 b 492 699 354 334 492 509 b 374 850 492 789 454 850 b 237 693 293 850 237 797 b 258 577 237 661 243 621 l 85 562 b 75 665 78 600 75 632 b 381 971 75 849 176 971 b 674 694 570 971 674 850 b 161 123 674 463 491 304 "},"3":{"ha":758,"x_min":0,"x_max":0,"o":"m 373 -14 b 59 291 184 -14 59 85 l 213 304 b 369 105 214 162 288 105 b 520 280 450 105 520 157 b 372 441 520 395 454 441 l 324 441 l 324 564 l 371 564 b 488 702 440 564 488 605 b 359 852 488 807 433 852 b 224 684 285 852 224 804 l 71 699 b 362 972 71 874 184 972 b 650 729 541 972 650 873 b 432 511 650 617 583 527 l 432 505 b 692 268 600 496 692 411 b 373 -14 692 85 562 -14 "},"4":{"ha":758,"x_min":0,"x_max":0,"o":"m 718 323 l 718 199 l 602 199 l 602 0 l 430 0 l 430 199 l 33 199 l 33 330 b 326 958 218 441 336 715 l 602 958 l 602 323 m 438 323 l 437 871 l 420 871 b 90 323 402 632 288 432 "},"5":{"ha":758,"x_min":0,"x_max":0,"o":"m 441 644 b 705 327 604 644 705 526 b 375 -14 705 131 604 -14 b 54 250 197 -14 84 81 l 235 304 b 381 113 244 174 291 113 b 522 328 486 113 522 189 b 381 538 522 469 482 538 b 245 425 324 538 264 492 l 77 454 l 140 958 l 666 958 l 666 834 l 291 834 l 248 507 b 441 644 292 598 368 644 "},"6":{"ha":758,"x_min":0,"x_max":0,"o":"m 385 -14 b 68 444 197 -14 68 123 b 409 972 67 650 100 972 b 694 777 555 972 645 908 l 560 720 b 412 849 539 803 488 849 b 231 476 271 849 231 692 b 443 625 271 583 355 625 b 699 315 587 625 699 509 b 385 -14 699 123 566 -14 m 382 121 b 518 313 463 121 518 185 b 382 518 518 458 463 518 b 245 314 298 518 245 458 b 382 121 245 187 298 121 "},"7":{"ha":758,"x_min":0,"x_max":0,"o":"m 229 0 b 662 822 241 273 319 608 l 662 834 l 197 834 l 197 698 l 50 698 l 50 958 l 709 958 l 709 718 b 433 0 494 559 444 306 l 229 0 "},"8":{"ha":758,"x_min":0,"x_max":0,"o":"m 380 -14 b 54 261 182 -14 54 86 b 260 515 54 376 115 488 l 260 519 b 97 728 151 544 97 632 b 378 972 97 872 206 972 b 660 728 551 972 660 872 b 498 519 660 631 606 543 l 498 515 b 703 261 642 486 703 374 b 380 -14 703 86 575 -14 m 379 547 b 490 709 443 547 490 590 b 379 854 490 808 451 854 b 268 710 307 854 268 809 b 379 547 268 589 315 547 m 378 111 b 518 288 470 111 518 176 b 378 481 518 424 463 481 b 238 288 294 481 238 424 b 378 111 238 176 288 111 "},"9":{"ha":758,"x_min":0,"x_max":0,"o":"m 373 972 b 690 514 561 972 690 836 b 349 -14 691 309 658 -14 b 64 181 203 -14 113 50 l 198 239 b 347 109 219 155 271 109 b 527 482 487 109 527 266 b 315 334 487 376 404 334 b 59 643 172 334 59 449 b 373 972 59 836 192 972 m 376 837 b 240 645 295 837 240 773 b 376 440 240 500 295 440 b 513 644 460 440 513 500 b 376 837 513 771 460 837 "}," ":{"ha":334,"x_min":0,"x_max":0,"o":""},"A":{"ha":840,"x_min":0,"x_max":0,"o":"m 572 199 l 271 199 l 228 0 l 31 0 l 290 958 l 551 958 l 809 0 l 615 0 m 546 321 l 438 824 l 426 897 l 421 897 l 407 824 l 298 321 "},"Á":{"ha":840,"x_min":0,"x_max":0,"o":"m 445 1040 l 383 1040 l 521 1204 l 707 1204 m 572 199 l 271 199 l 228 0 l 31 0 l 290 958 l 551 958 l 809 0 l 615 0 m 546 321 l 438 824 l 426 897 l 421 897 l 407 824 l 298 321 "},"Ă":{"ha":840,"x_min":0,"x_max":0,"o":"m 420 1020 b 231 1204 298 1020 231 1086 l 331 1204 b 420 1090 331 1122 374 1090 b 514 1204 471 1090 514 1124 l 617 1204 b 420 1020 617 1079 545 1020 m 572 199 l 271 199 l 228 0 l 31 0 l 290 958 l 551 958 l 809 0 l 615 0 m 546 321 l 438 824 l 426 897 l 421 897 l 407 824 l 298 321 "},"Ắ":{"ha":840,"x_min":0,"x_max":0,"o":"m 445 1284 l 383 1284 l 521 1449 l 707 1449 m 420 1020 b 231 1204 298 1020 231 1086 l 331 1204 b 420 1090 331 1122 374 1090 b 514 1204 471 1090 514 1124 l 617 1204 b 420 1020 617 1079 545 1020 m 572 199 l 271 199 l 228 0 l 31 0 l 290 958 l 551 958 l 809 0 l 615 0 m 546 321 l 438 824 l 426 897 l 421 897 l 407 824 l 298 321 "},"Ặ":{"ha":840,"x_min":0,"x_max":0,"o":"m 420 1020 b 231 1204 298 1020 231 1086 l 331 1204 b 420 1090 331 1122 374 1090 b 514 1204 471 1090 514 1124 l 617 1204 b 420 1020 617 1079 545 1020 m 615 0 l 572 199 l 271 199 l 228 0 l 31 0 l 290 958 l 551 958 l 809 0 m 546 321 l 438 824 l 426 897 l 421 897 l 407 824 l 298 321 m 353 -87 l 489 -87 l 489 -240 l 353 -240 "},"Ằ":{"ha":840,"x_min":0,"x_max":0,"o":"m 394 1283 l 135 1449 l 322 1449 l 459 1283 m 331 1204 b 420 1090 331 1122 374 1090 b 514 1204 471 1090 514 1124 l 617 1204 b 420 1020 617 1079 545 1020 b 231 1204 298 1020 231 1086 l 331 1204 m 572 199 l 271 199 l 228 0 l 31 0 l 290 958 l 551 958 l 809 0 l 615 0 m 546 321 l 438 824 l 426 897 l 421 897 l 407 824 l 298 321 "},"Ẳ":{"ha":840,"x_min":0,"x_max":0,"o":"m 418 1451 b 351 1387 391 1451 368 1432 l 282 1442 b 417 1516 308 1485 356 1516 b 557 1382 494 1516 557 1465 b 398 1267 557 1313 502 1261 l 436 1232 l 366 1232 l 338 1286 l 399 1314 b 473 1398 455 1340 473 1369 b 418 1451 473 1425 456 1451 m 420 1020 b 231 1204 298 1020 231 1086 l 331 1204 b 420 1090 331 1122 374 1090 b 514 1204 471 1090 514 1124 l 617 1204 b 420 1020 617 1079 545 1020 m 572 199 l 271 199 l 228 0 l 31 0 l 290 958 l 551 958 l 809 0 l 615 0 m 546 321 l 438 824 l 426 897 l 421 897 l 407 824 l 298 321 "},"Ẵ":{"ha":840,"x_min":0,"x_max":0,"o":"m 309 1361 b 239 1271 266 1361 240 1326 l 191 1271 b 323 1450 191 1397 245 1450 b 531 1358 422 1450 447 1358 b 599 1449 578 1358 599 1395 l 650 1449 b 517 1266 650 1323 600 1266 b 309 1361 420 1266 396 1361 m 420 1090 b 514 1204 471 1090 514 1124 l 617 1204 b 420 1020 617 1079 545 1020 b 231 1204 298 1020 231 1086 l 331 1204 b 420 1090 331 1122 374 1090 m 572 199 l 271 199 l 228 0 l 31 0 l 290 958 l 551 958 l 809 0 l 615 0 m 546 321 l 438 824 l 426 897 l 421 897 l 407 824 l 298 321 "},"Ǎ":{"ha":840,"x_min":0,"x_max":0,"o":"m 368 1027 l 222 1204 l 346 1204 l 419 1067 l 494 1204 l 618 1204 l 471 1027 m 572 199 l 271 199 l 228 0 l 31 0 l 290 958 l 551 958 l 809 0 l 615 0 m 546 321 l 438 824 l 426 897 l 421 897 l 407 824 l 298 321 "},"Â":{"ha":840,"x_min":0,"x_max":0,"o":"m 347 1025 l 222 1025 l 369 1204 l 471 1204 l 618 1025 l 494 1025 l 420 1166 m 572 199 l 271 199 l 228 0 l 31 0 l 290 958 l 551 958 l 809 0 l 615 0 m 546 321 l 438 824 l 426 897 l 421 897 l 407 824 l 298 321 "},"Ấ":{"ha":840,"x_min":0,"x_max":0,"o":"m 446 1284 l 385 1284 l 522 1449 l 709 1449 m 347 1025 l 222 1025 l 369 1204 l 471 1204 l 618 1025 l 494 1025 l 420 1166 m 572 199 l 271 199 l 228 0 l 31 0 l 290 958 l 551 958 l 809 0 l 615 0 m 546 321 l 438 824 l 426 897 l 421 897 l 407 824 l 298 321 "},"Ậ":{"ha":840,"x_min":0,"x_max":0,"o":"m 347 1025 l 222 1025 l 369 1204 l 471 1204 l 618 1025 l 494 1025 l 420 1166 m 615 0 l 572 199 l 271 199 l 228 0 l 31 0 l 290 958 l 551 958 l 809 0 m 546 321 l 438 824 l 426 897 l 421 897 l 407 824 l 298 321 m 353 -87 l 489 -87 l 489 -240 l 353 -240 "},"Ầ":{"ha":840,"x_min":0,"x_max":0,"o":"m 395 1284 l 136 1449 l 323 1449 l 460 1284 m 369 1204 l 471 1204 l 618 1025 l 494 1025 l 420 1166 l 347 1025 l 222 1025 m 572 199 l 271 199 l 228 0 l 31 0 l 290 958 l 551 958 l 809 0 l 615 0 m 546 321 l 438 824 l 426 897 l 421 897 l 407 824 l 298 321 "},"Ẩ":{"ha":840,"x_min":0,"x_max":0,"o":"m 420 1451 b 352 1388 393 1451 370 1433 l 283 1442 b 418 1516 309 1486 357 1516 b 559 1383 496 1516 559 1466 b 399 1267 559 1314 503 1262 l 437 1233 l 367 1233 l 339 1286 l 401 1314 b 474 1398 456 1341 474 1369 b 420 1451 474 1426 458 1451 m 347 1025 l 222 1025 l 369 1204 l 471 1204 l 618 1025 l 494 1025 l 420 1166 m 572 199 l 271 199 l 228 0 l 31 0 l 290 958 l 551 958 l 809 0 l 615 0 m 546 321 l 438 824 l 426 897 l 421 897 l 407 824 l 298 321 "},"Ẫ":{"ha":840,"x_min":0,"x_max":0,"o":"m 310 1362 b 241 1272 267 1362 241 1326 l 192 1272 b 325 1451 192 1398 246 1451 b 532 1358 424 1451 448 1358 b 600 1449 579 1358 600 1396 l 652 1449 b 519 1267 652 1324 602 1267 b 310 1362 421 1267 397 1362 m 471 1204 l 618 1025 l 494 1025 l 420 1166 l 347 1025 l 222 1025 l 369 1204 m 572 199 l 271 199 l 228 0 l 31 0 l 290 958 l 551 958 l 809 0 l 615 0 m 546 321 l 438 824 l 426 897 l 421 897 l 407 824 l 298 321 "},"Ä":{"ha":840,"x_min":0,"x_max":0,"o":"m 371 1050 l 233 1050 l 233 1204 l 371 1204 m 606 1050 l 469 1050 l 469 1204 l 606 1204 m 572 199 l 271 199 l 228 0 l 31 0 l 290 958 l 551 958 l 809 0 l 615 0 m 546 321 l 438 824 l 426 897 l 421 897 l 407 824 l 298 321 "},"Ạ":{"ha":840,"x_min":0,"x_max":0,"o":"m 615 0 l 572 199 l 271 199 l 228 0 l 31 0 l 290 958 l 551 958 l 809 0 m 546 321 l 438 824 l 426 897 l 421 897 l 407 824 l 298 321 m 353 -87 l 489 -87 l 489 -240 l 353 -240 "},"À":{"ha":840,"x_min":0,"x_max":0,"o":"m 394 1039 l 135 1204 l 322 1204 l 459 1039 m 572 199 l 271 199 l 228 0 l 31 0 l 290 958 l 551 958 l 809 0 l 615 0 m 546 321 l 438 824 l 426 897 l 421 897 l 407 824 l 298 321 "},"Ả":{"ha":840,"x_min":0,"x_max":0,"o":"m 418 1206 b 351 1143 391 1206 368 1188 l 282 1198 b 417 1272 308 1241 356 1272 b 557 1138 494 1272 557 1221 b 398 1023 557 1069 502 1017 l 436 988 l 366 988 l 338 1042 l 399 1069 b 473 1154 455 1096 473 1124 b 418 1206 473 1181 456 1206 m 572 199 l 271 199 l 228 0 l 31 0 l 290 958 l 551 958 l 809 0 l 615 0 m 546 321 l 438 824 l 426 897 l 421 897 l 407 824 l 298 321 "},"Ā":{"ha":840,"x_min":0,"x_max":0,"o":"m 596 1080 l 248 1080 l 248 1179 l 596 1179 m 572 199 l 271 199 l 228 0 l 31 0 l 290 958 l 551 958 l 809 0 l 615 0 m 546 321 l 438 824 l 426 897 l 421 897 l 407 824 l 298 321 "},"Ą":{"ha":840,"x_min":0,"x_max":0,"o":"m 869 -223 b 733 -309 841 -283 792 -309 b 600 -181 656 -309 600 -260 b 750 0 600 -109 650 -47 l 615 0 l 572 199 l 271 199 l 228 0 l 31 0 l 290 958 l 551 958 l 809 0 b 687 -162 721 -62 687 -106 b 738 -229 687 -210 711 -229 b 808 -178 762 -229 789 -212 m 546 321 l 438 824 l 426 897 l 421 897 l 407 824 l 298 321 "},"Å":{"ha":840,"x_min":0,"x_max":0,"o":"m 283 935 b 243 1038 258 960 243 997 b 420 1212 243 1139 317 1212 b 597 1038 522 1212 597 1139 b 557 935 597 998 582 961 l 809 0 l 615 0 l 572 199 l 271 199 l 228 0 l 31 0 m 420 959 b 501 1038 467 959 501 993 b 420 1116 501 1083 467 1116 b 339 1038 372 1116 339 1083 b 420 959 339 993 372 959 m 548 321 l 438 824 l 432 864 l 414 864 l 407 824 l 296 321 "},"Ǻ":{"ha":840,"x_min":0,"x_max":0,"o":"m 809 0 l 615 0 l 572 199 l 271 199 l 228 0 l 31 0 l 288 951 b 264 1033 273 974 264 1002 b 421 1181 264 1119 330 1181 b 441 1180 428 1181 435 1181 l 522 1276 l 708 1276 l 515 1154 b 578 1033 553 1128 578 1085 b 553 949 578 1002 569 973 m 421 1102 b 346 1032 377 1102 346 1073 b 421 962 346 991 377 962 b 496 1032 465 962 496 991 b 421 1102 496 1073 465 1102 m 546 321 l 438 824 l 428 882 l 421 882 b 418 882 420 882 419 882 l 407 824 l 298 321 "},"Ã":{"ha":840,"x_min":0,"x_max":0,"o":"m 517 1022 b 309 1117 420 1022 396 1117 b 239 1027 266 1117 240 1082 l 191 1027 b 323 1206 191 1153 245 1206 b 531 1114 422 1206 447 1114 b 599 1204 578 1114 599 1151 l 650 1204 b 517 1022 650 1079 600 1022 m 572 199 l 271 199 l 228 0 l 31 0 l 290 958 l 551 958 l 809 0 l 615 0 m 546 321 l 438 824 l 426 897 l 421 897 l 407 824 l 298 321 "},"Æ":{"ha":1107,"x_min":0,"x_max":0,"o":"m 316 958 l 1039 958 l 1039 833 l 701 833 l 701 543 l 998 543 l 998 418 l 701 418 l 701 125 l 1039 125 l 1039 0 l 507 0 l 507 218 l 285 218 l 234 0 l 31 0 m 507 342 l 507 895 l 448 895 l 315 342 "},"Ǽ":{"ha":1107,"x_min":0,"x_max":0,"o":"m 720 1204 l 906 1204 l 644 1040 l 582 1040 m 316 958 l 1039 958 l 1039 833 l 701 833 l 701 543 l 998 543 l 998 418 l 701 418 l 701 125 l 1039 125 l 1039 0 l 507 0 l 507 218 l 285 218 l 234 0 l 31 0 m 507 342 l 507 895 l 448 895 l 315 342 "},"B":{"ha":857,"x_min":0,"x_max":0,"o":"m 100 958 l 438 958 b 751 720 652 958 751 849 b 531 502 751 583 663 518 l 531 494 b 793 266 692 490 793 405 b 471 0 793 102 688 0 l 100 0 m 421 549 b 574 696 513 549 574 596 b 418 836 574 798 525 836 l 286 836 l 286 549 m 439 120 b 605 277 557 120 605 171 b 445 431 605 385 543 431 l 286 431 l 286 120 "},"Ḅ":{"ha":857,"x_min":0,"x_max":0,"o":"m 100 958 l 438 958 b 751 720 652 958 751 849 b 531 502 751 583 663 518 l 531 494 b 793 266 692 490 793 405 b 471 0 793 102 688 0 l 100 0 m 421 549 b 574 696 513 549 574 596 b 418 836 574 798 525 836 l 286 836 l 286 549 m 439 120 b 605 277 557 120 605 171 b 445 431 605 385 543 431 l 286 431 l 286 120 m 321 -87 l 457 -87 l 457 -240 l 321 -240 "},"C":{"ha":866,"x_min":0,"x_max":0,"o":"m 464 -14 b 77 479 188 -14 77 198 b 463 974 77 760 187 974 b 813 693 643 974 774 876 l 652 647 b 467 849 628 787 570 849 b 265 484 331 849 265 725 b 469 111 265 240 333 111 b 652 317 564 111 625 177 l 815 269 b 464 -14 774 85 644 -14 "},"Ć":{"ha":866,"x_min":0,"x_max":0,"o":"m 557 1204 l 743 1204 l 481 1040 l 419 1040 m 464 -14 b 77 479 188 -14 77 198 b 463 974 77 760 187 974 b 813 693 643 974 774 876 l 652 647 b 467 849 628 787 570 849 b 265 484 331 849 265 725 b 469 111 265 240 333 111 b 652 317 564 111 625 177 l 815 269 b 464 -14 774 85 644 -14 "},"Č":{"ha":866,"x_min":0,"x_max":0,"o":"m 258 1204 l 382 1204 l 455 1067 l 530 1204 l 654 1204 l 507 1027 l 404 1027 m 464 -14 b 77 479 188 -14 77 198 b 463 974 77 760 187 974 b 813 693 643 974 774 876 l 652 647 b 467 849 628 787 570 849 b 265 484 331 849 265 725 b 469 111 265 240 333 111 b 652 317 564 111 625 177 l 815 269 b 464 -14 774 85 644 -14 "},"Ç":{"ha":866,"x_min":0,"x_max":0,"o":"m 815 269 b 526 -9 779 106 673 11 l 437 -90 b 597 -205 541 -85 597 -136 b 456 -339 597 -288 534 -339 b 321 -265 395 -339 347 -308 l 390 -210 b 458 -273 408 -255 431 -273 b 512 -220 496 -273 512 -248 b 450 -143 512 -191 492 -159 l 374 -113 l 428 -12 b 77 479 178 5 77 211 b 463 974 77 760 187 974 b 813 693 643 974 774 876 l 652 647 b 467 849 628 787 570 849 b 265 484 331 849 265 725 b 469 111 265 240 333 111 b 652 317 564 111 625 177 l 815 269 "},"Ċ":{"ha":866,"x_min":0,"x_max":0,"o":"m 387 1204 l 524 1204 l 524 1052 l 387 1052 m 464 -14 b 77 479 188 -14 77 198 b 463 974 77 760 187 974 b 813 693 643 974 774 876 l 652 647 b 467 849 628 787 570 849 b 265 484 331 849 265 725 b 469 111 265 240 333 111 b 652 317 564 111 625 177 l 815 269 b 464 -14 774 85 644 -14 "},"D":{"ha":892,"x_min":0,"x_max":0,"o":"m 100 958 l 364 958 b 817 477 664 958 817 780 b 363 0 817 172 658 0 l 100 0 m 347 127 b 625 481 549 127 625 235 b 361 831 625 721 555 831 l 286 831 l 286 127 "},"Ǳ":{"ha":1626,"x_min":0,"x_max":0,"o":"m 364 958 b 817 477 664 958 817 780 b 363 0 817 172 658 0 l 100 0 l 100 958 l 364 958 m 1570 820 l 1127 125 l 1570 125 l 1570 0 l 926 0 l 926 130 l 1372 833 l 950 833 l 950 958 l 1570 958 m 347 127 b 625 481 549 127 625 235 b 361 831 625 721 555 831 l 286 831 l 286 127 l 347 127 "},"Ǆ":{"ha":1626,"x_min":0,"x_max":0,"o":"m 1189 1027 l 1042 1204 l 1166 1204 l 1240 1067 l 1314 1204 l 1439 1204 l 1291 1027 m 364 958 b 817 477 664 958 817 780 b 363 0 817 172 658 0 l 100 0 l 100 958 l 364 958 m 1570 820 l 1127 125 l 1570 125 l 1570 0 l 926 0 l 926 130 l 1372 833 l 950 833 l 950 958 l 1570 958 m 347 127 b 625 481 549 127 625 235 b 361 831 625 721 555 831 l 286 831 l 286 127 l 347 127 "},"Ð":{"ha":934,"x_min":0,"x_max":0,"o":"m 406 958 b 859 477 706 958 859 780 b 405 0 859 172 700 0 l 142 0 l 142 429 l 68 429 l 68 538 l 142 538 l 142 958 l 406 958 m 389 127 b 667 481 591 127 667 235 b 404 831 667 721 597 831 l 328 831 l 328 538 l 469 538 l 469 429 l 328 429 l 328 127 l 389 127 "},"Ď":{"ha":892,"x_min":0,"x_max":0,"o":"m 191 1204 l 315 1204 l 389 1067 l 463 1204 l 588 1204 l 440 1027 l 338 1027 m 100 958 l 364 958 b 817 477 664 958 817 780 b 363 0 817 172 658 0 l 100 0 m 347 127 b 625 481 549 127 625 235 b 361 831 625 721 555 831 l 286 831 l 286 127 "},"Đ":{"ha":934,"x_min":0,"x_max":0,"o":"m 406 958 b 859 477 706 958 859 780 b 405 0 859 172 700 0 l 142 0 l 142 429 l 68 429 l 68 538 l 142 538 l 142 958 l 406 958 m 389 127 b 667 481 591 127 667 235 b 404 831 667 721 597 831 l 328 831 l 328 538 l 469 538 l 469 429 l 328 429 l 328 127 l 389 127 "},"ǲ":{"ha":1480,"x_min":0,"x_max":0,"o":"m 364 958 b 817 477 664 958 817 780 b 363 0 817 172 658 0 l 100 0 l 100 958 l 364 958 m 347 127 b 625 481 549 127 625 235 b 361 831 625 721 555 831 l 286 831 l 286 127 l 347 127 m 1435 571 l 1124 108 l 1434 108 l 1434 0 l 932 0 l 932 132 l 1261 605 l 939 605 l 939 711 l 1435 711 "},"ǅ":{"ha":1480,"x_min":0,"x_max":0,"o":"m 1129 782 l 983 959 l 1107 959 l 1180 821 l 1255 959 l 1379 959 l 1232 782 m 364 958 b 817 477 664 958 817 780 b 363 0 817 172 658 0 l 100 0 l 100 958 l 364 958 m 347 127 b 625 481 549 127 625 235 b 361 831 625 721 555 831 l 286 831 l 286 127 l 347 127 m 1435 571 l 1124 108 l 1434 108 l 1434 0 l 932 0 l 932 132 l 1261 605 l 939 605 l 939 711 l 1435 711 "},"E":{"ha":700,"x_min":0,"x_max":0,"o":"m 100 958 l 631 958 l 631 833 l 293 833 l 293 543 l 591 543 l 591 418 l 293 418 l 293 125 l 631 125 l 631 0 l 100 0 "},"É":{"ha":700,"x_min":0,"x_max":0,"o":"m 490 1204 l 676 1204 l 414 1040 l 352 1040 m 100 958 l 631 958 l 631 833 l 293 833 l 293 543 l 591 543 l 591 418 l 293 418 l 293 125 l 631 125 l 631 0 l 100 0 "},"Ĕ":{"ha":700,"x_min":0,"x_max":0,"o":"m 389 1020 b 199 1204 267 1020 199 1086 l 300 1204 b 389 1090 300 1122 342 1090 b 483 1204 439 1090 483 1124 l 586 1204 b 389 1020 586 1079 513 1020 m 100 958 l 631 958 l 631 833 l 293 833 l 293 543 l 591 543 l 591 418 l 293 418 l 293 125 l 631 125 l 631 0 l 100 0 "},"Ě":{"ha":700,"x_min":0,"x_max":0,"o":"m 191 1204 l 315 1204 l 388 1067 l 463 1204 l 587 1204 l 439 1027 l 337 1027 m 100 958 l 631 958 l 631 833 l 293 833 l 293 543 l 591 543 l 591 418 l 293 418 l 293 125 l 631 125 l 631 0 l 100 0 "},"Ȩ":{"ha":700,"x_min":0,"x_max":0,"o":"m 293 833 l 293 543 l 591 543 l 591 418 l 293 418 l 293 125 l 631 125 l 631 0 l 454 0 l 355 -90 b 515 -205 459 -85 515 -136 b 374 -339 515 -288 452 -339 b 239 -265 313 -339 265 -308 l 308 -210 b 376 -273 326 -255 349 -273 b 430 -220 414 -273 430 -248 b 368 -143 430 -191 410 -159 l 292 -113 l 353 0 l 100 0 l 100 958 l 631 958 l 631 833 "},"Ê":{"ha":700,"x_min":0,"x_max":0,"o":"m 338 1204 l 439 1204 l 587 1025 l 463 1025 l 389 1166 l 315 1025 l 191 1025 m 100 958 l 631 958 l 631 833 l 293 833 l 293 543 l 591 543 l 591 418 l 293 418 l 293 125 l 631 125 l 631 0 l 100 0 "},"Ế":{"ha":700,"x_min":0,"x_max":0,"o":"m 491 1449 l 677 1449 l 415 1284 l 353 1284 m 338 1204 l 439 1204 l 587 1025 l 463 1025 l 389 1166 l 315 1025 l 191 1025 m 100 958 l 631 958 l 631 833 l 293 833 l 293 543 l 591 543 l 591 418 l 293 418 l 293 125 l 631 125 l 631 0 l 100 0 "},"Ệ":{"ha":700,"x_min":0,"x_max":0,"o":"m 338 1204 l 439 1204 l 587 1025 l 463 1025 l 389 1166 l 315 1025 l 191 1025 m 100 958 l 631 958 l 631 833 l 293 833 l 293 543 l 591 543 l 591 418 l 293 418 l 293 125 l 631 125 l 631 0 l 100 0 m 321 -87 l 457 -87 l 457 -240 l 321 -240 "},"Ề":{"ha":700,"x_min":0,"x_max":0,"o":"m 105 1449 l 292 1449 l 429 1284 l 364 1284 m 338 1204 l 439 1204 l 587 1025 l 463 1025 l 389 1166 l 315 1025 l 191 1025 m 100 958 l 631 958 l 631 833 l 293 833 l 293 543 l 591 543 l 591 418 l 293 418 l 293 125 l 631 125 l 631 0 l 100 0 "},"Ể":{"ha":700,"x_min":0,"x_max":0,"o":"m 308 1286 l 370 1314 b 443 1398 425 1341 443 1369 b 389 1451 443 1426 427 1451 b 321 1388 361 1451 338 1433 l 252 1442 b 387 1516 278 1486 326 1516 b 528 1383 465 1516 528 1466 b 368 1267 528 1314 472 1262 l 406 1233 l 336 1233 m 338 1204 l 439 1204 l 587 1025 l 463 1025 l 389 1166 l 315 1025 l 191 1025 m 100 958 l 631 958 l 631 833 l 293 833 l 293 543 l 591 543 l 591 418 l 293 418 l 293 125 l 631 125 l 631 0 l 100 0 "},"Ễ":{"ha":700,"x_min":0,"x_max":0,"o":"m 488 1267 b 279 1362 390 1267 366 1362 b 210 1272 236 1362 210 1326 l 161 1272 b 294 1451 161 1398 215 1451 b 501 1358 393 1451 417 1358 b 569 1449 548 1358 569 1396 l 621 1449 b 488 1267 621 1324 570 1267 m 338 1204 l 439 1204 l 587 1025 l 463 1025 l 389 1166 l 315 1025 l 191 1025 m 100 958 l 631 958 l 631 833 l 293 833 l 293 543 l 591 543 l 591 418 l 293 418 l 293 125 l 631 125 l 631 0 l 100 0 "},"Ë":{"ha":700,"x_min":0,"x_max":0,"o":"m 201 1204 l 340 1204 l 340 1050 l 201 1050 m 438 1204 l 575 1204 l 575 1050 l 438 1050 m 100 958 l 631 958 l 631 833 l 293 833 l 293 543 l 591 543 l 591 418 l 293 418 l 293 125 l 631 125 l 631 0 l 100 0 "},"Ė":{"ha":700,"x_min":0,"x_max":0,"o":"m 320 1204 l 456 1204 l 456 1052 l 320 1052 m 100 958 l 631 958 l 631 833 l 293 833 l 293 543 l 591 543 l 591 418 l 293 418 l 293 125 l 631 125 l 631 0 l 100 0 "},"Ẹ":{"ha":700,"x_min":0,"x_max":0,"o":"m 100 958 l 631 958 l 631 833 l 293 833 l 293 543 l 591 543 l 591 418 l 293 418 l 293 125 l 631 125 l 631 0 l 100 0 m 321 -87 l 457 -87 l 457 -240 l 321 -240 "},"È":{"ha":700,"x_min":0,"x_max":0,"o":"m 104 1204 l 291 1204 l 428 1039 l 363 1039 m 100 958 l 631 958 l 631 833 l 293 833 l 293 543 l 591 543 l 591 418 l 293 418 l 293 125 l 631 125 l 631 0 l 100 0 "},"Ẻ":{"ha":700,"x_min":0,"x_max":0,"o":"m 307 1042 l 368 1069 b 441 1154 424 1096 441 1124 b 387 1206 441 1181 425 1206 b 319 1143 360 1206 337 1188 l 251 1198 b 386 1272 277 1241 325 1272 b 526 1138 463 1272 526 1221 b 367 1023 526 1069 471 1017 l 405 988 l 334 988 m 100 958 l 631 958 l 631 833 l 293 833 l 293 543 l 591 543 l 591 418 l 293 418 l 293 125 l 631 125 l 631 0 l 100 0 "},"Ē":{"ha":700,"x_min":0,"x_max":0,"o":"m 216 1179 l 565 1179 l 565 1080 l 216 1080 m 100 958 l 631 958 l 631 833 l 293 833 l 293 543 l 591 543 l 591 418 l 293 418 l 293 125 l 631 125 l 631 0 l 100 0 "},"Ę":{"ha":700,"x_min":0,"x_max":0,"o":"m 692 -223 b 555 -309 663 -283 614 -309 b 422 -181 478 -309 422 -260 b 572 0 422 -109 473 -47 l 100 0 l 100 958 l 631 958 l 631 833 l 293 833 l 293 543 l 591 543 l 591 418 l 293 418 l 293 125 l 631 125 l 631 0 b 509 -162 543 -62 509 -106 b 560 -229 509 -210 534 -229 b 630 -178 584 -229 611 -212 "},"Ẽ":{"ha":700,"x_min":0,"x_max":0,"o":"m 486 1022 b 277 1117 389 1022 365 1117 b 208 1027 235 1117 209 1082 l 159 1027 b 292 1206 159 1153 214 1206 b 500 1114 391 1206 416 1114 b 568 1204 547 1114 568 1151 l 619 1204 b 486 1022 619 1079 569 1022 m 100 958 l 631 958 l 631 833 l 293 833 l 293 543 l 591 543 l 591 418 l 293 418 l 293 125 l 631 125 l 631 0 l 100 0 "},"F":{"ha":682,"x_min":0,"x_max":0,"o":"m 100 958 l 643 958 l 643 833 l 293 833 l 293 543 l 591 543 l 591 418 l 293 418 l 293 0 l 100 0 "},"G":{"ha":945,"x_min":0,"x_max":0,"o":"m 846 504 l 846 0 l 699 0 l 694 152 b 448 -14 654 45 560 -14 b 77 484 182 -14 77 204 b 474 974 77 744 184 974 b 843 697 703 974 812 854 l 688 661 b 481 849 663 794 604 849 b 260 482 304 849 260 673 b 479 120 260 289 310 120 b 703 396 654 120 701 254 l 537 396 l 537 504 "},"Ğ":{"ha":945,"x_min":0,"x_max":0,"o":"m 464 1020 b 274 1204 341 1020 274 1086 l 374 1204 b 464 1090 374 1122 417 1090 b 557 1204 514 1090 557 1124 l 661 1204 b 464 1020 661 1079 588 1020 m 846 504 l 846 0 l 699 0 l 694 152 b 448 -14 654 45 560 -14 b 77 484 182 -14 77 204 b 474 974 77 744 184 974 b 843 697 703 974 812 854 l 688 661 b 481 849 663 794 604 849 b 260 482 304 849 260 673 b 479 120 260 289 310 120 b 703 396 654 120 701 254 l 537 396 l 537 504 "},"Ǧ":{"ha":945,"x_min":0,"x_max":0,"o":"m 412 1027 l 265 1204 l 389 1204 l 463 1067 l 537 1204 l 662 1204 l 514 1027 m 846 504 l 846 0 l 699 0 l 694 152 b 448 -14 654 45 560 -14 b 77 484 182 -14 77 204 b 474 974 77 744 184 974 b 843 697 703 974 812 854 l 688 661 b 481 849 663 794 604 849 b 260 482 304 849 260 673 b 479 120 260 289 310 120 b 703 396 654 120 701 254 l 537 396 l 537 504 "},"Ĝ":{"ha":945,"x_min":0,"x_max":0,"o":"m 390 1025 l 265 1025 l 412 1204 l 514 1204 l 662 1025 l 537 1025 l 463 1166 m 846 504 l 846 0 l 699 0 l 694 152 b 448 -14 654 45 560 -14 b 77 484 182 -14 77 204 b 474 974 77 744 184 974 b 843 697 703 974 812 854 l 688 661 b 481 849 663 794 604 849 b 260 482 304 849 260 673 b 479 120 260 289 310 120 b 703 396 654 120 701 254 l 537 396 l 537 504 "},"Ģ":{"ha":945,"x_min":0,"x_max":0,"o":"m 846 504 l 846 0 l 699 0 l 694 152 b 448 -14 654 45 560 -14 b 77 484 182 -14 77 204 b 474 974 77 744 184 974 b 843 697 703 974 812 854 l 688 661 b 481 849 663 794 604 849 b 260 482 304 849 260 673 b 479 120 260 289 310 120 b 703 396 654 120 701 254 l 537 396 l 537 504 m 384 -92 l 561 -92 l 352 -296 l 299 -296 "},"Ġ":{"ha":945,"x_min":0,"x_max":0,"o":"m 531 1052 l 395 1052 l 395 1204 l 531 1204 m 846 504 l 846 0 l 699 0 l 694 152 b 448 -14 654 45 560 -14 b 77 484 182 -14 77 204 b 474 974 77 744 184 974 b 843 697 703 974 812 854 l 688 661 b 481 849 663 794 604 849 b 260 482 304 849 260 673 b 479 120 260 289 310 120 b 703 396 654 120 701 254 l 537 396 l 537 504 "},"H":{"ha":876,"x_min":0,"x_max":0,"o":"m 100 958 l 290 958 l 290 538 l 587 538 l 587 958 l 777 958 l 777 0 l 587 0 l 587 422 l 290 422 l 290 0 l 100 0 "},"Ħ":{"ha":876,"x_min":0,"x_max":0,"o":"m 838 720 l 777 720 l 777 0 l 587 0 l 587 422 l 290 422 l 290 0 l 100 0 l 100 720 l 39 720 l 39 805 l 100 805 l 100 958 l 290 958 l 290 805 l 587 805 l 587 958 l 777 958 l 777 805 l 838 805 m 587 720 l 290 720 l 290 538 l 587 538 "},"Ĥ":{"ha":876,"x_min":0,"x_max":0,"o":"m 387 1206 l 488 1206 l 636 1026 l 511 1026 l 437 1168 l 364 1026 l 239 1026 m 100 958 l 290 958 l 290 538 l 587 538 l 587 958 l 777 958 l 777 0 l 587 0 l 587 422 l 290 422 l 290 0 l 100 0 "},"Ḥ":{"ha":876,"x_min":0,"x_max":0,"o":"m 100 958 l 290 958 l 290 538 l 587 538 l 587 958 l 777 958 l 777 0 l 587 0 l 587 422 l 290 422 l 290 0 l 100 0 m 370 -87 l 506 -87 l 506 -240 l 370 -240 "},"I":{"ha":389,"x_min":0,"x_max":0,"o":"m 100 958 l 289 958 l 289 0 l 100 0 "},"Ĳ":{"ha":930,"x_min":0,"x_max":0,"o":"m 100 958 l 289 958 l 289 0 l 100 0 m 412 123 b 494 115 446 117 465 115 b 625 273 582 115 625 153 l 625 958 l 819 958 l 819 294 b 542 -14 819 57 720 -14 b 412 0 507 -14 451 -10 l 412 123 "},"Í":{"ha":389,"x_min":0,"x_max":0,"o":"m 291 1204 l 477 1204 l 215 1040 l 153 1040 m 100 958 l 289 958 l 289 0 l 100 0 "},"Ĭ":{"ha":389,"x_min":0,"x_max":0,"o":"m 191 1020 b 1 1204 68 1020 1 1086 l 101 1204 b 191 1090 101 1122 144 1090 b 284 1204 241 1090 284 1124 l 387 1204 b 191 1020 387 1079 315 1020 m 100 958 l 289 958 l 289 0 l 100 0 "},"Ǐ":{"ha":389,"x_min":0,"x_max":0,"o":"m -8 1204 l 116 1204 l 189 1067 l 264 1204 l 389 1204 l 241 1027 l 138 1027 m 100 958 l 289 958 l 289 0 l 100 0 "},"Î":{"ha":389,"x_min":0,"x_max":0,"o":"m 139 1204 l 241 1204 l 389 1025 l 264 1025 l 190 1166 l 117 1025 l -8 1025 m 100 958 l 289 958 l 289 0 l 100 0 "},"Ï":{"ha":389,"x_min":0,"x_max":0,"o":"m 3 1204 l 141 1204 l 141 1050 l 3 1050 m 239 1204 l 376 1204 l 376 1050 l 239 1050 m 100 958 l 289 958 l 289 0 l 100 0 "},"İ":{"ha":389,"x_min":0,"x_max":0,"o":"m 121 1204 l 258 1204 l 258 1052 l 121 1052 m 100 958 l 289 958 l 289 0 l 100 0 "},"Ị":{"ha":389,"x_min":0,"x_max":0,"o":"m 100 958 l 289 958 l 289 0 l 100 0 m 122 -87 l 258 -87 l 258 -240 l 122 -240 "},"Ì":{"ha":389,"x_min":0,"x_max":0,"o":"m -95 1204 l 92 1204 l 229 1039 l 164 1039 m 100 958 l 289 958 l 289 0 l 100 0 "},"Ỉ":{"ha":389,"x_min":0,"x_max":0,"o":"m 108 1042 l 170 1069 b 243 1154 225 1096 243 1124 b 189 1206 243 1181 227 1206 b 121 1143 161 1206 138 1188 l 52 1198 b 187 1272 78 1241 126 1272 b 328 1138 264 1272 328 1221 b 168 1023 328 1069 272 1017 l 206 988 l 136 988 m 100 958 l 289 958 l 289 0 l 100 0 "},"Ī":{"ha":389,"x_min":0,"x_max":0,"o":"m 18 1179 l 366 1179 l 366 1080 l 18 1080 m 100 958 l 289 958 l 289 0 l 100 0 "},"Į":{"ha":389,"x_min":0,"x_max":0,"o":"m 351 -223 b 215 -309 323 -283 274 -309 b 81 -181 138 -309 81 -260 b 232 0 81 -109 132 -47 l 100 0 l 100 958 l 289 958 l 289 1 l 291 0 b 169 -162 203 -62 169 -106 b 220 -229 169 -210 193 -229 b 290 -178 243 -229 271 -212 "},"Ĩ":{"ha":389,"x_min":0,"x_max":0,"o":"m 288 1022 b 79 1117 190 1022 166 1117 b 9 1027 36 1117 10 1082 l -39 1027 b 94 1206 -39 1153 15 1206 b 301 1114 193 1206 217 1114 b 369 1204 348 1114 369 1151 l 420 1204 b 288 1022 420 1079 370 1022 m 100 958 l 289 958 l 289 0 l 100 0 "},"J":{"ha":542,"x_min":0,"x_max":0,"o":"m 24 123 b 105 115 58 117 76 115 b 237 273 193 115 237 153 l 237 958 l 430 958 l 430 294 b 153 -14 430 57 332 -14 b 24 0 118 -14 62 -10 l 24 123 "},"Ĵ":{"ha":542,"x_min":0,"x_max":0,"o":"m 281 1206 l 383 1206 l 531 1026 l 406 1026 l 332 1168 l 259 1026 l 134 1026 m 24 123 b 105 115 58 117 76 115 b 237 273 193 115 237 153 l 237 958 l 430 958 l 430 294 b 153 -14 430 57 332 -14 b 24 0 118 -14 62 -10 l 24 123 "},"K":{"ha":860,"x_min":0,"x_max":0,"o":"m 380 494 l 290 458 l 290 0 l 100 0 l 100 958 l 290 958 l 290 527 l 614 958 l 812 958 l 522 595 l 838 0 l 622 0 "},"Ķ":{"ha":860,"x_min":0,"x_max":0,"o":"m 838 0 l 622 0 l 380 494 l 290 458 l 290 0 l 100 0 l 100 958 l 290 958 l 290 527 l 614 958 l 812 958 l 522 595 m 342 -92 l 519 -92 l 310 -296 l 257 -296 "},"L":{"ha":637,"x_min":0,"x_max":0,"o":"m 100 958 l 293 958 l 293 125 l 614 125 l 614 0 l 100 0 "},"Ǉ":{"ha":1203,"x_min":0,"x_max":0,"o":"m 100 958 l 293 958 l 293 125 l 614 125 l 614 0 l 100 0 m 685 123 b 766 115 719 117 737 115 b 898 273 854 115 898 153 l 898 958 l 1091 958 l 1091 294 b 814 -14 1091 57 993 -14 b 685 0 779 -14 724 -10 l 685 123 "},"Ĺ":{"ha":637,"x_min":0,"x_max":0,"o":"m 291 1206 l 477 1206 l 215 1041 l 153 1041 m 100 958 l 293 958 l 293 125 l 614 125 l 614 0 l 100 0 "},"Ľ":{"ha":753,"x_min":0,"x_max":0,"o":"m 127 958 l 320 958 l 320 125 l 641 125 l 641 0 l 127 0 m 647 772 l 496 772 l 496 958 l 696 958 l 696 772 l 612 528 l 492 528 "},"Ļ":{"ha":637,"x_min":0,"x_max":0,"o":"m 100 958 l 293 958 l 293 125 l 614 125 l 614 0 l 100 0 m 296 -92 l 473 -92 l 264 -296 l 211 -296 "},"Ŀ":{"ha":746,"x_min":0,"x_max":0,"o":"m 100 958 l 293 958 l 293 125 l 614 125 l 614 0 l 100 0 m 576 336 b 441 459 498 336 441 388 b 576 585 441 533 498 585 b 701 459 648 585 701 533 b 576 336 701 388 648 336 "},"Ḷ":{"ha":637,"x_min":0,"x_max":0,"o":"m 100 958 l 293 958 l 293 125 l 614 125 l 614 0 l 100 0 m 310 -87 l 446 -87 l 446 -240 l 310 -240 "},"ǈ":{"ha":1022,"x_min":0,"x_max":0,"o":"m 100 958 l 293 958 l 293 125 l 614 125 l 614 0 l 100 0 m 735 958 l 920 958 l 920 821 l 735 821 m 716 -231 b 589 -212 679 -231 627 -224 l 627 -123 b 738 -10 705 -160 738 -119 l 738 711 l 920 711 l 920 21 b 716 -231 920 -163 834 -231 "},"Ł":{"ha":637,"x_min":0,"x_max":0,"o":"m 614 125 l 614 0 l 100 0 l 100 286 l 3 206 l 3 317 l 100 399 l 100 958 l 293 958 l 293 564 l 408 661 l 408 537 l 293 444 l 293 125 "},"M":{"ha":1150,"x_min":0,"x_max":0,"o":"m 100 958 l 407 958 l 573 143 l 740 958 l 1050 958 l 1050 0 l 858 0 l 857 475 l 872 887 l 865 887 l 671 0 l 477 0 l 283 887 l 275 887 l 291 474 l 289 0 l 100 0 "},"N":{"ha":984,"x_min":0,"x_max":0,"o":"m 884 958 l 884 0 l 602 0 l 256 867 l 284 471 l 284 0 l 100 0 l 100 958 l 374 958 l 724 83 l 702 462 l 702 958 "},"Ǌ":{"ha":1526,"x_min":0,"x_max":0,"o":"m 702 958 l 884 958 l 884 0 l 602 0 l 256 867 l 284 471 l 284 0 l 100 0 l 100 958 l 374 958 l 724 83 l 702 462 m 1414 958 l 1414 294 b 1137 -14 1414 57 1316 -14 b 1008 0 1102 -14 1046 -10 l 1008 123 b 1089 115 1042 117 1060 115 b 1221 273 1177 115 1221 153 l 1221 958 "},"Ń":{"ha":984,"x_min":0,"x_max":0,"o":"m 517 1041 l 455 1041 l 593 1206 l 779 1206 m 884 958 l 884 0 l 602 0 l 256 867 l 284 471 l 284 0 l 100 0 l 100 958 l 374 958 l 724 83 l 702 462 l 702 958 "},"Ň":{"ha":984,"x_min":0,"x_max":0,"o":"m 440 1029 l 294 1206 l 418 1206 l 491 1068 l 566 1206 l 690 1206 l 543 1029 m 884 958 l 884 0 l 602 0 l 256 867 l 284 471 l 284 0 l 100 0 l 100 958 l 374 958 l 724 83 l 702 462 l 702 958 "},"Ņ":{"ha":984,"x_min":0,"x_max":0,"o":"m 884 958 l 884 0 l 602 0 l 256 867 l 284 471 l 284 0 l 100 0 l 100 958 l 374 958 l 724 83 l 702 462 l 702 958 m 410 -92 l 587 -92 l 378 -296 l 325 -296 "},"Ṅ":{"ha":984,"x_min":0,"x_max":0,"o":"m 559 1053 l 423 1053 l 423 1206 l 559 1206 m 884 958 l 884 0 l 602 0 l 256 867 l 284 471 l 284 0 l 100 0 l 100 958 l 374 958 l 724 83 l 702 462 l 702 958 "},"Ṇ":{"ha":984,"x_min":0,"x_max":0,"o":"m 884 958 l 884 0 l 602 0 l 256 867 l 284 471 l 284 0 l 100 0 l 100 958 l 374 958 l 724 83 l 702 462 l 702 958 m 424 -87 l 560 -87 l 560 -240 l 424 -240 "},"Ŋ":{"ha":984,"x_min":0,"x_max":0,"o":"m 884 958 l 884 0 l 876 0 b 614 -196 876 -90 812 -196 l 501 -196 l 501 -120 b 593 0 637 -120 614 -57 l 602 0 l 256 867 l 284 471 l 284 0 l 100 0 l 100 958 l 374 958 l 724 83 l 702 462 l 702 958 "},"ǋ":{"ha":1369,"x_min":0,"x_max":0,"o":"m 702 958 l 884 958 l 884 0 l 602 0 l 256 867 l 284 471 l 284 0 l 100 0 l 100 958 l 374 958 l 724 83 l 702 462 m 1267 958 l 1267 821 l 1082 821 l 1082 958 m 1084 711 l 1266 711 l 1266 21 b 1063 -231 1266 -163 1181 -231 b 936 -212 1025 -231 973 -224 l 973 -123 b 1084 -10 1052 -160 1084 -119 "},"Ñ":{"ha":984,"x_min":0,"x_max":0,"o":"m 380 1118 b 311 1028 338 1118 312 1083 l 262 1028 b 395 1207 262 1154 317 1207 b 603 1115 494 1207 519 1115 b 671 1206 650 1115 671 1152 l 722 1206 b 589 1023 722 1080 672 1023 b 380 1118 492 1023 468 1118 m 884 958 l 884 0 l 602 0 l 256 867 l 284 471 l 284 0 l 100 0 l 100 958 l 374 958 l 724 83 l 702 462 l 702 958 "},"O":{"ha":930,"x_min":0,"x_max":0,"o":"m 462 -14 b 77 479 218 -14 77 146 b 462 972 77 812 218 972 b 854 479 710 972 854 812 b 462 -14 854 146 710 -14 m 466 115 b 665 479 591 115 665 217 b 466 848 665 744 591 848 b 267 479 340 848 267 744 b 466 115 267 217 340 115 "},"Ó":{"ha":930,"x_min":0,"x_max":0,"o":"m 562 1204 l 749 1204 l 486 1040 l 425 1040 m 462 -14 b 77 479 218 -14 77 146 b 462 972 77 812 218 972 b 854 479 710 972 854 812 b 462 -14 854 146 710 -14 m 466 115 b 665 479 591 115 665 217 b 466 848 665 744 591 848 b 267 479 340 848 267 744 b 466 115 267 217 340 115 "},"Ŏ":{"ha":930,"x_min":0,"x_max":0,"o":"m 462 1020 b 272 1204 339 1020 272 1086 l 372 1204 b 462 1090 372 1122 415 1090 b 555 1204 512 1090 555 1124 l 659 1204 b 462 1020 659 1079 586 1020 m 462 -14 b 77 479 218 -14 77 146 b 462 972 77 812 218 972 b 854 479 710 972 854 812 b 462 -14 854 146 710 -14 m 466 115 b 665 479 591 115 665 217 b 466 848 665 744 591 848 b 267 479 340 848 267 744 b 466 115 267 217 340 115 "},"Ǒ":{"ha":930,"x_min":0,"x_max":0,"o":"m 263 1204 l 387 1204 l 460 1067 l 535 1204 l 660 1204 l 512 1027 l 410 1027 m 462 -14 b 77 479 218 -14 77 146 b 462 972 77 812 218 972 b 854 479 710 972 854 812 b 462 -14 854 146 710 -14 m 466 115 b 665 479 591 115 665 217 b 466 848 665 744 591 848 b 267 479 340 848 267 744 b 466 115 267 217 340 115 "},"Ô":{"ha":930,"x_min":0,"x_max":0,"o":"m 410 1204 l 512 1204 l 660 1025 l 535 1025 l 461 1166 l 388 1025 l 263 1025 m 462 -14 b 77 479 218 -14 77 146 b 462 972 77 812 218 972 b 854 479 710 972 854 812 b 462 -14 854 146 710 -14 m 466 115 b 665 479 591 115 665 217 b 466 848 665 744 591 848 b 267 479 340 848 267 744 b 466 115 267 217 340 115 "},"Ố":{"ha":930,"x_min":0,"x_max":0,"o":"m 564 1449 l 750 1449 l 488 1284 l 426 1284 m 410 1204 l 512 1204 l 660 1025 l 535 1025 l 461 1166 l 388 1025 l 263 1025 m 462 -14 b 77 479 218 -14 77 146 b 462 972 77 812 218 972 b 854 479 710 972 854 812 b 462 -14 854 146 710 -14 m 466 115 b 665 479 591 115 665 217 b 466 848 665 744 591 848 b 267 479 340 848 267 744 b 466 115 267 217 340 115 "},"Ộ":{"ha":930,"x_min":0,"x_max":0,"o":"m 410 1204 l 512 1204 l 660 1025 l 535 1025 l 461 1166 l 388 1025 l 263 1025 m 462 -14 b 77 479 218 -14 77 146 b 462 972 77 812 218 972 b 854 479 710 972 854 812 b 462 -14 854 146 710 -14 m 466 115 b 665 479 591 115 665 217 b 466 848 665 744 591 848 b 267 479 340 848 267 744 b 466 115 267 217 340 115 m 393 -87 l 530 -87 l 530 -240 l 393 -240 "},"Ồ":{"ha":930,"x_min":0,"x_max":0,"o":"m 178 1449 l 365 1449 l 502 1284 l 437 1284 m 410 1204 l 512 1204 l 660 1025 l 535 1025 l 461 1166 l 388 1025 l 263 1025 m 462 -14 b 77 479 218 -14 77 146 b 462 972 77 812 218 972 b 854 479 710 972 854 812 b 462 -14 854 146 710 -14 m 466 115 b 665 479 591 115 665 217 b 466 848 665 744 591 848 b 267 479 340 848 267 744 b 466 115 267 217 340 115 "},"Ổ":{"ha":930,"x_min":0,"x_max":0,"o":"m 380 1286 l 442 1314 b 515 1398 498 1341 515 1369 b 461 1451 515 1426 499 1451 b 393 1388 434 1451 411 1433 l 325 1442 b 460 1516 351 1486 399 1516 b 600 1383 537 1516 600 1466 b 441 1267 600 1314 545 1262 l 479 1233 l 408 1233 m 410 1204 l 512 1204 l 660 1025 l 535 1025 l 461 1166 l 388 1025 l 263 1025 m 462 -14 b 77 479 218 -14 77 146 b 462 972 77 812 218 972 b 854 479 710 972 854 812 b 462 -14 854 146 710 -14 m 466 115 b 665 479 591 115 665 217 b 466 848 665 744 591 848 b 267 479 340 848 267 744 b 466 115 267 217 340 115 "},"Ỗ":{"ha":930,"x_min":0,"x_max":0,"o":"m 560 1267 b 351 1362 463 1267 439 1362 b 282 1272 309 1362 283 1326 l 233 1272 b 366 1451 233 1398 288 1451 b 574 1358 465 1451 490 1358 b 642 1449 621 1358 642 1396 l 693 1449 b 560 1267 693 1324 643 1267 m 410 1204 l 512 1204 l 660 1025 l 535 1025 l 461 1166 l 388 1025 l 263 1025 m 462 -14 b 77 479 218 -14 77 146 b 462 972 77 812 218 972 b 854 479 710 972 854 812 b 462 -14 854 146 710 -14 m 466 115 b 665 479 591 115 665 217 b 466 848 665 744 591 848 b 267 479 340 848 267 744 b 466 115 267 217 340 115 "},"Ö":{"ha":930,"x_min":0,"x_max":0,"o":"m 274 1204 l 412 1204 l 412 1050 l 274 1050 m 511 1204 l 648 1204 l 648 1050 l 511 1050 m 462 -14 b 77 479 218 -14 77 146 b 462 972 77 812 218 972 b 854 479 710 972 854 812 b 462 -14 854 146 710 -14 m 466 115 b 665 479 591 115 665 217 b 466 848 665 744 591 848 b 267 479 340 848 267 744 b 466 115 267 217 340 115 "},"Ọ":{"ha":930,"x_min":0,"x_max":0,"o":"m 462 -14 b 77 479 218 -14 77 146 b 462 972 77 812 218 972 b 854 479 710 972 854 812 b 462 -14 854 146 710 -14 m 466 115 b 665 479 591 115 665 217 b 466 848 665 744 591 848 b 267 479 340 848 267 744 b 466 115 267 217 340 115 m 393 -87 l 530 -87 l 530 -240 l 393 -240 "},"Ò":{"ha":930,"x_min":0,"x_max":0,"o":"m 176 1204 l 363 1204 l 500 1039 l 435 1039 m 462 -14 b 77 479 218 -14 77 146 b 462 972 77 812 218 972 b 854 479 710 972 854 812 b 462 -14 854 146 710 -14 m 466 115 b 665 479 591 115 665 217 b 466 848 665 744 591 848 b 267 479 340 848 267 744 b 466 115 267 217 340 115 "},"Ỏ":{"ha":930,"x_min":0,"x_max":0,"o":"m 379 1042 l 441 1069 b 514 1154 496 1096 514 1124 b 460 1206 514 1181 498 1206 b 392 1143 433 1206 410 1188 l 323 1198 b 458 1272 349 1241 397 1272 b 599 1138 536 1272 599 1221 b 439 1023 599 1069 543 1017 l 477 988 l 407 988 m 462 -14 b 77 479 218 -14 77 146 b 462 972 77 812 218 972 b 854 479 710 972 854 812 b 462 -14 854 146 710 -14 m 466 115 b 665 479 591 115 665 217 b 466 848 665 744 591 848 b 267 479 340 848 267 744 b 466 115 267 217 340 115 "},"Ơ":{"ha":930,"x_min":0,"x_max":0,"o":"m 907 1082 l 907 967 b 787 798 907 869 865 815 b 854 479 831 719 854 613 b 462 -14 854 146 710 -14 b 77 479 218 -14 77 146 b 462 972 77 812 218 972 b 741 863 580 972 675 937 b 804 967 779 871 804 902 l 804 1082 m 466 115 b 665 479 591 115 665 217 b 466 848 665 744 591 848 b 267 479 340 848 267 744 b 466 115 267 217 340 115 "},"Ớ":{"ha":930,"x_min":0,"x_max":0,"o":"m 486 1040 l 425 1040 l 562 1204 l 749 1204 m 907 1082 l 907 967 b 787 798 907 869 865 815 b 854 479 831 719 854 613 b 462 -14 854 146 710 -14 b 77 479 218 -14 77 146 b 462 972 77 812 218 972 b 741 863 580 972 675 937 b 804 967 779 871 804 902 l 804 1082 m 466 115 b 665 479 591 115 665 217 b 466 848 665 744 591 848 b 267 479 340 848 267 744 b 466 115 267 217 340 115 "},"Ợ":{"ha":930,"x_min":0,"x_max":0,"o":"m 907 1082 l 907 967 b 787 798 907 869 865 815 b 854 479 831 719 854 613 b 462 -14 854 146 710 -14 b 77 479 218 -14 77 146 b 462 972 77 812 218 972 b 741 863 580 972 675 937 b 804 967 779 871 804 902 l 804 1082 m 466 115 b 665 479 591 115 665 217 b 466 848 665 744 591 848 b 267 479 340 848 267 744 b 466 115 267 217 340 115 m 393 -87 l 530 -87 l 530 -240 l 393 -240 "},"Ờ":{"ha":930,"x_min":0,"x_max":0,"o":"m 435 1039 l 176 1204 l 363 1204 l 500 1039 m 907 1082 l 907 967 b 787 798 907 869 865 815 b 854 479 831 719 854 613 b 462 -14 854 146 710 -14 b 77 479 218 -14 77 146 b 462 972 77 812 218 972 b 741 863 580 972 675 937 b 804 967 779 871 804 902 l 804 1082 m 466 115 b 665 479 591 115 665 217 b 466 848 665 744 591 848 b 267 479 340 848 267 744 b 466 115 267 217 340 115 "},"Ở":{"ha":930,"x_min":0,"x_max":0,"o":"m 460 1206 b 392 1143 433 1206 410 1188 l 323 1198 b 458 1272 349 1241 397 1272 b 599 1138 536 1272 599 1221 b 439 1023 599 1069 543 1017 l 477 988 l 407 988 l 379 1042 l 441 1069 b 514 1154 496 1096 514 1124 b 460 1206 514 1181 498 1206 m 907 1082 l 907 967 b 787 798 907 869 865 815 b 854 479 831 719 854 613 b 462 -14 854 146 710 -14 b 77 479 218 -14 77 146 b 462 972 77 812 218 972 b 741 863 580 972 675 937 b 804 967 779 871 804 902 l 804 1082 m 466 115 b 665 479 591 115 665 217 b 466 848 665 744 591 848 b 267 479 340 848 267 744 b 466 115 267 217 340 115 "},"Ỡ":{"ha":930,"x_min":0,"x_max":0,"o":"m 350 1117 b 281 1027 307 1117 281 1082 l 232 1027 b 365 1206 232 1153 286 1206 b 572 1114 464 1206 488 1114 b 640 1204 619 1114 640 1151 l 692 1204 b 559 1022 692 1079 642 1022 b 350 1117 461 1022 437 1117 m 907 1082 l 907 967 b 787 798 907 869 865 815 b 854 479 831 719 854 613 b 462 -14 854 146 710 -14 b 77 479 218 -14 77 146 b 462 972 77 812 218 972 b 741 863 580 972 675 937 b 804 967 779 871 804 902 l 804 1082 m 466 115 b 665 479 591 115 665 217 b 466 848 665 744 591 848 b 267 479 340 848 267 744 b 466 115 267 217 340 115 "},"Ő":{"ha":930,"x_min":0,"x_max":0,"o":"m 434 1204 l 582 1204 l 380 1032 l 311 1032 m 666 1204 l 839 1204 l 610 1032 l 543 1032 m 462 -14 b 77 479 218 -14 77 146 b 462 972 77 812 218 972 b 854 479 710 972 854 812 b 462 -14 854 146 710 -14 m 466 115 b 665 479 591 115 665 217 b 466 848 665 744 591 848 b 267 479 340 848 267 744 b 466 115 267 217 340 115 "},"Ō":{"ha":930,"x_min":0,"x_max":0,"o":"m 289 1179 l 637 1179 l 637 1080 l 289 1080 m 462 -14 b 77 479 218 -14 77 146 b 462 972 77 812 218 972 b 854 479 710 972 854 812 b 462 -14 854 146 710 -14 m 466 115 b 665 479 591 115 665 217 b 466 848 665 744 591 848 b 267 479 340 848 267 744 b 466 115 267 217 340 115 "},"Ǫ":{"ha":930,"x_min":0,"x_max":0,"o":"m 462 -14 b 77 479 218 -14 77 146 b 462 972 77 812 218 972 b 854 479 710 972 854 812 b 462 -14 854 146 710 -14 m 466 115 b 665 479 591 115 665 217 b 466 848 665 744 591 848 b 267 479 340 848 267 744 b 466 115 267 217 340 115 m 724 -296 b 591 -168 647 -296 591 -247 b 760 22 591 -90 648 -26 l 800 14 b 678 -149 712 -49 678 -93 b 729 -215 678 -196 703 -215 b 799 -164 753 -215 780 -198 l 861 -210 b 724 -296 832 -269 783 -296 "},"Ø":{"ha":930,"x_min":0,"x_max":0,"o":"m 793 788 b 854 479 833 710 854 608 b 462 -14 854 146 710 -14 b 186 98 345 -14 251 23 l 133 39 l 60 92 l 134 176 b 77 479 96 253 77 354 b 462 972 77 812 218 972 b 740 864 579 972 673 937 l 790 921 l 863 867 m 267 479 b 276 336 267 425 270 378 l 626 734 b 466 848 593 814 538 848 b 267 479 340 848 267 744 m 665 479 b 654 631 665 537 661 588 l 302 231 b 466 115 336 150 392 115 b 665 479 591 115 665 217 "},"Ǿ":{"ha":930,"x_min":0,"x_max":0,"o":"m 486 1040 l 425 1040 l 562 1204 l 749 1204 m 793 788 b 854 479 833 710 854 608 b 462 -14 854 146 710 -14 b 186 98 345 -14 251 23 l 133 39 l 60 92 l 134 176 b 77 479 96 253 77 354 b 462 972 77 812 218 972 b 740 864 579 972 673 937 l 790 921 l 863 867 m 267 479 b 276 336 267 425 270 378 l 626 734 b 466 848 593 814 538 848 b 267 479 340 848 267 744 m 665 479 b 654 631 665 537 661 588 l 302 231 b 466 115 336 150 392 115 b 665 479 591 115 665 217 "},"Õ":{"ha":930,"x_min":0,"x_max":0,"o":"m 559 1022 b 350 1117 461 1022 437 1117 b 281 1027 307 1117 281 1082 l 232 1027 b 365 1206 232 1153 286 1206 b 572 1114 464 1206 488 1114 b 640 1204 619 1114 640 1151 l 692 1204 b 559 1022 692 1079 642 1022 m 462 -14 b 77 479 218 -14 77 146 b 462 972 77 812 218 972 b 854 479 710 972 854 812 b 462 -14 854 146 710 -14 m 466 115 b 665 479 591 115 665 217 b 466 848 665 744 591 848 b 267 479 340 848 267 744 b 466 115 267 217 340 115 "},"Œ":{"ha":1286,"x_min":0,"x_max":0,"o":"m 879 834 l 879 543 l 1177 543 l 1177 418 l 879 418 l 879 126 l 1217 126 l 1217 1 l 686 1 l 686 83 b 469 -14 633 20 562 -14 b 77 479 229 -14 77 178 b 469 972 77 781 229 972 b 686 876 562 972 633 939 l 686 959 l 1217 959 l 1217 834 m 488 106 b 686 360 597 106 665 183 l 686 600 b 488 856 665 779 597 856 b 282 479 356 856 282 744 b 488 106 282 217 356 106 "},"P":{"ha":785,"x_min":0,"x_max":0,"o":"m 100 958 l 401 958 b 737 650 612 958 737 840 b 387 345 737 458 600 345 l 292 345 l 292 0 l 100 0 m 382 458 b 556 649 502 458 556 518 b 387 837 556 779 500 837 l 292 837 l 292 458 "},"Þ":{"ha":815,"x_min":0,"x_max":0,"o":"m 127 958 l 308 958 l 308 838 l 470 838 b 767 529 637 838 767 734 b 470 246 767 346 634 246 l 308 246 l 308 0 l 127 0 m 432 369 b 586 538 532 369 586 428 b 432 712 586 649 532 712 l 308 712 l 308 369 "},"Q":{"ha":945,"x_min":0,"x_max":0,"o":"m 705 62 b 865 36 741 31 790 18 l 865 -76 b 614 11 724 -119 658 -67 b 462 -14 569 -5 518 -14 b 77 479 218 -14 77 146 b 462 972 77 812 218 972 b 854 479 710 972 854 812 b 705 62 854 277 802 140 m 466 848 b 267 479 340 848 267 744 b 273 361 267 435 269 396 b 379 384 313 374 342 381 b 616 205 524 398 571 301 b 665 479 648 263 665 353 b 466 848 665 744 591 848 m 466 115 b 558 140 500 115 532 123 b 340 323 517 240 471 334 b 279 313 321 322 302 319 b 466 115 306 173 371 115 "},"R":{"ha":810,"x_min":0,"x_max":0,"o":"m 587 -1 l 405 345 l 387 345 l 292 345 l 292 0 l 100 0 l 100 958 l 401 958 b 737 650 612 958 737 840 b 549 372 737 512 667 415 l 762 -1 m 292 458 l 382 458 b 556 649 502 458 556 518 b 387 837 556 779 500 837 l 292 837 "},"Ŕ":{"ha":810,"x_min":0,"x_max":0,"o":"m 420 1040 l 359 1040 l 496 1204 l 683 1204 m 587 -1 l 405 345 l 387 345 l 292 345 l 292 0 l 100 0 l 100 958 l 401 958 b 737 650 612 958 737 840 b 549 372 737 512 667 415 l 762 -1 m 292 458 l 382 458 b 556 649 502 458 556 518 b 387 837 556 779 500 837 l 292 837 "},"Ř":{"ha":810,"x_min":0,"x_max":0,"o":"m 344 1027 l 197 1204 l 321 1204 l 395 1067 l 469 1204 l 594 1204 l 446 1027 m 587 -1 l 405 345 l 387 345 l 292 345 l 292 0 l 100 0 l 100 958 l 401 958 b 737 650 612 958 737 840 b 549 372 737 512 667 415 l 762 -1 m 292 458 l 382 458 b 556 649 502 458 556 518 b 387 837 556 779 500 837 l 292 837 "},"Ŗ":{"ha":810,"x_min":0,"x_max":0,"o":"m 762 -1 l 587 -1 l 405 345 l 387 345 l 292 345 l 292 0 l 100 0 l 100 958 l 401 958 b 737 650 612 958 737 840 b 549 372 737 512 667 415 m 292 458 l 382 458 b 556 649 502 458 556 518 b 387 837 556 779 500 837 l 292 837 m 391 -92 l 568 -92 l 359 -296 l 306 -296 "},"S":{"ha":764,"x_min":0,"x_max":0,"o":"m 393 -13 b 54 267 251 -13 90 44 l 212 307 b 392 115 236 168 307 115 b 512 245 467 115 512 151 b 328 443 512 356 435 390 b 90 724 222 495 90 556 b 380 970 90 871 182 970 b 681 742 505 970 646 926 l 536 705 b 385 852 518 804 473 852 b 269 745 304 852 269 809 b 481 562 269 650 374 617 b 699 271 581 511 699 439 b 393 -13 699 96 586 -13 "},"Ś":{"ha":764,"x_min":0,"x_max":0,"o":"m 481 1202 l 668 1202 l 406 1038 l 344 1038 m 393 -13 b 54 267 251 -13 90 44 l 212 307 b 392 115 236 168 307 115 b 512 245 467 115 512 151 b 328 443 512 356 435 390 b 90 724 222 495 90 556 b 380 970 90 871 182 970 b 681 742 505 970 646 926 l 536 705 b 385 852 518 804 473 852 b 269 745 304 852 269 809 b 481 562 269 650 374 617 b 699 271 581 511 699 439 b 393 -13 699 96 586 -13 "},"Š":{"ha":764,"x_min":0,"x_max":0,"o":"m 182 1202 l 307 1202 l 380 1065 l 454 1202 l 579 1202 l 431 1025 l 329 1025 m 393 -13 b 54 267 251 -13 90 44 l 212 307 b 392 115 236 168 307 115 b 512 245 467 115 512 151 b 328 443 512 356 435 390 b 90 724 222 495 90 556 b 380 970 90 871 182 970 b 681 742 505 970 646 926 l 536 705 b 385 852 518 804 473 852 b 269 745 304 852 269 809 b 481 562 269 650 374 617 b 699 271 581 511 699 439 b 393 -13 699 96 586 -13 "},"Ş":{"ha":764,"x_min":0,"x_max":0,"o":"m 699 271 b 441 -10 699 111 605 7 l 353 -91 b 512 -206 456 -86 512 -137 b 372 -340 512 -289 449 -340 b 237 -267 311 -340 262 -309 l 305 -211 b 373 -275 323 -256 346 -275 b 427 -222 411 -275 427 -249 b 366 -144 427 -193 407 -161 l 290 -115 l 345 -11 b 54 267 216 2 85 69 l 212 307 b 392 115 236 168 307 115 b 512 245 467 115 512 151 b 328 443 512 356 435 390 b 90 724 222 495 90 556 b 380 970 90 871 182 970 b 681 742 505 970 646 926 l 536 705 b 385 852 518 804 473 852 b 269 745 304 852 269 809 b 481 562 269 650 374 617 b 699 271 581 511 699 439 "},"Ș":{"ha":764,"x_min":0,"x_max":0,"o":"m 393 -13 b 54 267 251 -13 90 44 l 212 307 b 392 115 236 168 307 115 b 512 245 467 115 512 151 b 328 443 512 356 435 390 b 90 724 222 495 90 556 b 380 970 90 871 182 970 b 681 742 505 970 646 926 l 536 705 b 385 852 518 804 473 852 b 269 745 304 852 269 809 b 481 562 269 650 374 617 b 699 271 581 511 699 439 b 393 -13 699 96 586 -13 m 304 -93 l 481 -93 l 272 -298 l 219 -298 "},"Ṣ":{"ha":764,"x_min":0,"x_max":0,"o":"m 393 -13 b 54 267 251 -13 90 44 l 212 307 b 392 115 236 168 307 115 b 512 245 467 115 512 151 b 328 443 512 356 435 390 b 90 724 222 495 90 556 b 380 970 90 871 182 970 b 681 742 505 970 646 926 l 536 705 b 385 852 518 804 473 852 b 269 745 304 852 269 809 b 481 562 269 650 374 617 b 699 271 581 511 699 439 b 393 -13 699 96 586 -13 m 318 -89 l 454 -89 l 454 -241 l 318 -241 "},"ẞ":{"ha":777,"x_min":0,"x_max":0,"o":"m 500 -12 b 378 5 456 -12 406 -4 l 378 129 b 466 111 415 116 446 111 b 576 224 518 111 576 141 b 397 515 576 369 397 385 b 532 744 397 600 532 638 b 412 853 532 814 482 853 b 283 677 326 853 283 798 l 283 0 l 100 0 l 100 665 b 393 972 100 869 218 972 b 686 749 551 972 686 893 b 555 517 686 618 555 580 b 743 212 555 426 743 405 b 500 -12 743 63 631 -12 "},"T":{"ha":684,"x_min":0,"x_max":0,"o":"m 245 834 l 24 834 l 24 958 l 659 958 l 659 834 l 437 834 l 437 0 l 245 0 "},"Ŧ":{"ha":684,"x_min":0,"x_max":0,"o":"m 437 834 l 437 527 l 572 527 l 572 432 l 437 432 l 437 0 l 245 0 l 245 432 l 110 432 l 110 527 l 245 527 l 245 834 l 24 834 l 24 958 l 659 958 l 659 834 "},"Ť":{"ha":684,"x_min":0,"x_max":0,"o":"m 140 1204 l 264 1204 l 337 1067 l 412 1204 l 536 1204 l 389 1027 l 286 1027 m 245 834 l 24 834 l 24 958 l 659 958 l 659 834 l 437 834 l 437 0 l 245 0 "},"Ţ":{"ha":684,"x_min":0,"x_max":0,"o":"m 403 0 l 304 -90 b 464 -205 408 -85 464 -136 b 323 -339 464 -288 401 -339 b 189 -265 262 -339 214 -308 l 257 -210 b 325 -273 275 -255 298 -273 b 379 -220 363 -273 379 -248 b 317 -143 379 -191 359 -159 l 241 -113 l 302 0 l 245 0 l 245 834 l 24 834 l 24 958 l 659 958 l 659 834 l 437 834 l 437 0 "},"Ț":{"ha":684,"x_min":0,"x_max":0,"o":"m 245 834 l 24 834 l 24 958 l 659 958 l 659 834 l 437 834 l 437 0 l 245 0 m 256 -92 l 433 -92 l 224 -296 l 171 -296 "},"Ṭ":{"ha":684,"x_min":0,"x_max":0,"o":"m 245 834 l 24 834 l 24 958 l 659 958 l 659 834 l 437 834 l 437 0 l 245 0 m 270 -87 l 406 -87 l 406 -240 l 270 -240 "},"U":{"ha":916,"x_min":0,"x_max":0,"o":"m 456 -14 b 113 311 223 -14 113 106 l 113 958 l 306 958 l 306 304 b 456 109 306 159 359 109 b 610 304 553 109 610 159 l 610 958 l 804 958 l 804 317 b 456 -14 804 107 691 -14 "},"Ú":{"ha":916,"x_min":0,"x_max":0,"o":"m 560 1204 l 747 1204 l 484 1040 l 422 1040 m 456 -14 b 113 311 223 -14 113 106 l 113 958 l 306 958 l 306 304 b 456 109 306 159 359 109 b 610 304 553 109 610 159 l 610 958 l 804 958 l 804 317 b 456 -14 804 107 691 -14 "},"Ǔ":{"ha":916,"x_min":0,"x_max":0,"o":"m 261 1204 l 385 1204 l 458 1067 l 533 1204 l 658 1204 l 510 1027 l 408 1027 m 456 -14 b 113 311 223 -14 113 106 l 113 958 l 306 958 l 306 304 b 456 109 306 159 359 109 b 610 304 553 109 610 159 l 610 958 l 804 958 l 804 317 b 456 -14 804 107 691 -14 "},"Û":{"ha":916,"x_min":0,"x_max":0,"o":"m 408 1204 l 510 1204 l 658 1025 l 533 1025 l 459 1166 l 386 1025 l 261 1025 m 456 -14 b 113 311 223 -14 113 106 l 113 958 l 306 958 l 306 304 b 456 109 306 159 359 109 b 610 304 553 109 610 159 l 610 958 l 804 958 l 804 317 b 456 -14 804 107 691 -14 "},"Ü":{"ha":916,"x_min":0,"x_max":0,"o":"m 272 1204 l 410 1204 l 410 1050 l 272 1050 m 509 1204 l 646 1204 l 646 1050 l 509 1050 m 456 -14 b 113 311 223 -14 113 106 l 113 958 l 306 958 l 306 304 b 456 109 306 159 359 109 b 610 304 553 109 610 159 l 610 958 l 804 958 l 804 317 b 456 -14 804 107 691 -14 "},"Ǘ":{"ha":916,"x_min":0,"x_max":0,"o":"m 560 1452 l 747 1452 l 484 1287 l 422 1287 m 272 1204 l 410 1204 l 410 1050 l 272 1050 m 509 1204 l 646 1204 l 646 1050 l 509 1050 m 456 -14 b 113 311 223 -14 113 106 l 113 958 l 306 958 l 306 304 b 456 109 306 159 359 109 b 610 304 553 109 610 159 l 610 958 l 804 958 l 804 317 b 456 -14 804 107 691 -14 "},"Ǚ":{"ha":916,"x_min":0,"x_max":0,"o":"m 261 1452 l 385 1452 l 458 1314 l 533 1452 l 658 1452 l 510 1275 l 408 1275 m 272 1204 l 410 1204 l 410 1050 l 272 1050 m 509 1204 l 646 1204 l 646 1050 l 509 1050 m 456 -14 b 113 311 223 -14 113 106 l 113 958 l 306 958 l 306 304 b 456 109 306 159 359 109 b 610 304 553 109 610 159 l 610 958 l 804 958 l 804 317 b 456 -14 804 107 691 -14 "},"Ǜ":{"ha":916,"x_min":0,"x_max":0,"o":"m 174 1452 l 361 1452 l 498 1286 l 433 1286 m 272 1204 l 410 1204 l 410 1050 l 272 1050 m 509 1204 l 646 1204 l 646 1050 l 509 1050 m 456 -14 b 113 311 223 -14 113 106 l 113 958 l 306 958 l 306 304 b 456 109 306 159 359 109 b 610 304 553 109 610 159 l 610 958 l 804 958 l 804 317 b 456 -14 804 107 691 -14 "},"Ǖ":{"ha":916,"x_min":0,"x_max":0,"o":"m 287 1426 l 635 1426 l 635 1327 l 287 1327 m 272 1204 l 410 1204 l 410 1050 l 272 1050 m 509 1204 l 646 1204 l 646 1050 l 509 1050 m 456 -14 b 113 311 223 -14 113 106 l 113 958 l 306 958 l 306 304 b 456 109 306 159 359 109 b 610 304 553 109 610 159 l 610 958 l 804 958 l 804 317 b 456 -14 804 107 691 -14 "},"Ụ":{"ha":916,"x_min":0,"x_max":0,"o":"m 456 -14 b 113 311 223 -14 113 106 l 113 958 l 306 958 l 306 304 b 456 109 306 159 359 109 b 610 304 553 109 610 159 l 610 958 l 804 958 l 804 317 b 456 -14 804 107 691 -14 m 382 -87 l 519 -87 l 519 -240 l 382 -240 "},"Ù":{"ha":916,"x_min":0,"x_max":0,"o":"m 174 1204 l 361 1204 l 498 1039 l 433 1039 m 456 -14 b 113 311 223 -14 113 106 l 113 958 l 306 958 l 306 304 b 456 109 306 159 359 109 b 610 304 553 109 610 159 l 610 958 l 804 958 l 804 317 b 456 -14 804 107 691 -14 "},"Ủ":{"ha":916,"x_min":0,"x_max":0,"o":"m 377 1042 l 439 1069 b 512 1154 494 1096 512 1124 b 458 1206 512 1181 496 1206 b 390 1143 431 1206 408 1188 l 321 1198 b 456 1272 347 1241 395 1272 b 597 1138 534 1272 597 1221 b 437 1023 597 1069 541 1017 l 475 988 l 405 988 m 456 -14 b 113 311 223 -14 113 106 l 113 958 l 306 958 l 306 304 b 456 109 306 159 359 109 b 610 304 553 109 610 159 l 610 958 l 804 958 l 804 317 b 456 -14 804 107 691 -14 "},"Ư":{"ha":916,"x_min":0,"x_max":0,"o":"m 919 1148 l 919 1034 b 804 865 919 937 879 884 l 804 317 b 456 -14 804 107 691 -14 b 113 311 223 -14 113 106 l 113 958 l 306 958 l 306 304 b 456 109 306 159 359 109 b 610 304 553 109 610 159 l 610 958 l 797 958 b 816 1034 809 975 816 1000 l 816 1148 "},"Ứ":{"ha":916,"x_min":0,"x_max":0,"o":"m 484 1040 l 422 1040 l 560 1204 l 747 1204 m 919 1148 l 919 1034 b 804 865 919 937 879 884 l 804 317 b 456 -14 804 107 691 -14 b 113 311 223 -14 113 106 l 113 958 l 306 958 l 306 304 b 456 109 306 159 359 109 b 610 304 553 109 610 159 l 610 958 l 797 958 b 816 1034 809 975 816 1000 l 816 1148 "},"Ự":{"ha":916,"x_min":0,"x_max":0,"o":"m 919 1148 l 919 1034 b 804 865 919 937 879 884 l 804 317 b 456 -14 804 107 691 -14 b 113 311 223 -14 113 106 l 113 958 l 306 958 l 306 304 b 456 109 306 159 359 109 b 610 304 553 109 610 159 l 610 958 l 797 958 b 816 1034 809 975 816 1000 l 816 1148 m 382 -87 l 519 -87 l 519 -240 l 382 -240 "},"Ừ":{"ha":916,"x_min":0,"x_max":0,"o":"m 433 1039 l 174 1204 l 361 1204 l 498 1039 m 919 1148 l 919 1034 b 804 865 919 937 879 884 l 804 317 b 456 -14 804 107 691 -14 b 113 311 223 -14 113 106 l 113 958 l 306 958 l 306 304 b 456 109 306 159 359 109 b 610 304 553 109 610 159 l 610 958 l 797 958 b 816 1034 809 975 816 1000 l 816 1148 "},"Ử":{"ha":916,"x_min":0,"x_max":0,"o":"m 458 1206 b 390 1143 431 1206 408 1188 l 321 1198 b 456 1272 347 1241 395 1272 b 597 1138 534 1272 597 1221 b 437 1023 597 1069 541 1017 l 475 988 l 405 988 l 377 1042 l 439 1069 b 512 1154 494 1096 512 1124 b 458 1206 512 1181 496 1206 m 919 1148 l 919 1034 b 804 865 919 937 879 884 l 804 317 b 456 -14 804 107 691 -14 b 113 311 223 -14 113 106 l 113 958 l 306 958 l 306 304 b 456 109 306 159 359 109 b 610 304 553 109 610 159 l 610 958 l 797 958 b 816 1034 809 975 816 1000 l 816 1148 "},"Ữ":{"ha":916,"x_min":0,"x_max":0,"o":"m 348 1117 b 279 1027 305 1117 279 1082 l 230 1027 b 363 1206 230 1153 284 1206 b 570 1114 462 1206 486 1114 b 638 1204 617 1114 638 1151 l 690 1204 b 557 1022 690 1079 640 1022 b 348 1117 459 1022 435 1117 m 919 1148 l 919 1034 b 804 865 919 937 879 884 l 804 317 b 456 -14 804 107 691 -14 b 113 311 223 -14 113 106 l 113 958 l 306 958 l 306 304 b 456 109 306 159 359 109 b 610 304 553 109 610 159 l 610 958 l 797 958 b 816 1034 809 975 816 1000 l 816 1148 "},"Ű":{"ha":916,"x_min":0,"x_max":0,"o":"m 432 1204 l 580 1204 l 378 1032 l 309 1032 m 664 1204 l 837 1204 l 608 1032 l 541 1032 m 456 -14 b 113 311 223 -14 113 106 l 113 958 l 306 958 l 306 304 b 456 109 306 159 359 109 b 610 304 553 109 610 159 l 610 958 l 804 958 l 804 317 b 456 -14 804 107 691 -14 "},"Ū":{"ha":916,"x_min":0,"x_max":0,"o":"m 287 1179 l 635 1179 l 635 1080 l 287 1080 m 456 -14 b 113 311 223 -14 113 106 l 113 958 l 306 958 l 306 304 b 456 109 306 159 359 109 b 610 304 553 109 610 159 l 610 958 l 804 958 l 804 317 b 456 -14 804 107 691 -14 "},"Ų":{"ha":916,"x_min":0,"x_max":0,"o":"m 642 22 b 578 -95 597 -19 578 -54 b 629 -161 578 -142 603 -161 b 699 -111 653 -161 680 -144 l 761 -156 b 625 -242 732 -216 684 -242 b 491 -114 547 -242 491 -193 b 534 -9 491 -75 505 -40 b 456 -14 509 -12 484 -14 b 113 311 223 -14 113 106 l 113 958 l 306 958 l 306 304 b 456 109 306 159 359 109 b 610 304 553 109 610 159 l 610 958 l 804 958 l 804 317 b 642 22 804 174 751 71 "},"Ů":{"ha":916,"x_min":0,"x_max":0,"o":"m 460 1013 b 303 1163 369 1013 303 1076 b 460 1312 303 1249 369 1312 b 616 1163 550 1312 616 1249 b 460 1013 616 1076 550 1013 m 460 1092 b 534 1162 504 1092 534 1122 b 460 1232 534 1203 504 1232 b 385 1162 416 1232 385 1203 b 460 1092 385 1122 416 1092 m 456 -14 b 113 311 223 -14 113 106 l 113 958 l 306 958 l 306 304 b 456 109 306 159 359 109 b 610 304 553 109 610 159 l 610 958 l 804 958 l 804 317 b 456 -14 804 107 691 -14 "},"Ũ":{"ha":916,"x_min":0,"x_max":0,"o":"m 557 1022 b 348 1117 459 1022 435 1117 b 279 1027 305 1117 279 1082 l 230 1027 b 363 1206 230 1153 284 1206 b 570 1114 462 1206 486 1114 b 638 1204 617 1114 638 1151 l 690 1204 b 557 1022 690 1079 640 1022 m 456 -14 b 113 311 223 -14 113 106 l 113 958 l 306 958 l 306 304 b 456 109 306 159 359 109 b 610 304 553 109 610 159 l 610 958 l 804 958 l 804 317 b 456 -14 804 107 691 -14 "},"V":{"ha":820,"x_min":0,"x_max":0,"o":"m 32 958 l 232 958 l 414 111 l 416 111 l 589 958 l 788 958 l 540 0 l 282 0 "},"W":{"ha":1326,"x_min":0,"x_max":0,"o":"m 1277 958 l 1107 0 l 810 0 l 663 869 l 516 0 l 218 0 l 49 958 l 249 958 l 368 56 l 378 56 l 530 958 l 796 958 l 946 56 l 956 56 l 1076 958 "},"Ẃ":{"ha":1326,"x_min":0,"x_max":0,"o":"m 690 1041 l 628 1041 l 766 1206 l 952 1206 m 1277 958 l 1107 0 l 810 0 l 663 869 l 516 0 l 218 0 l 49 958 l 249 958 l 368 56 l 378 56 l 530 958 l 796 958 l 946 56 l 956 56 l 1076 958 "},"Ŵ":{"ha":1326,"x_min":0,"x_max":0,"o":"m 591 1026 l 467 1026 l 614 1206 l 715 1206 l 863 1026 l 739 1026 l 665 1168 m 1277 958 l 1107 0 l 810 0 l 663 869 l 516 0 l 218 0 l 49 958 l 249 958 l 368 56 l 378 56 l 530 958 l 796 958 l 946 56 l 956 56 l 1076 958 "},"Ẅ":{"ha":1326,"x_min":0,"x_max":0,"o":"m 616 1051 l 477 1051 l 477 1206 l 616 1206 m 851 1051 l 714 1051 l 714 1206 l 851 1206 m 1277 958 l 1107 0 l 810 0 l 663 869 l 516 0 l 218 0 l 49 958 l 249 958 l 368 56 l 378 56 l 530 958 l 796 958 l 946 56 l 956 56 l 1076 958 "},"Ẁ":{"ha":1326,"x_min":0,"x_max":0,"o":"m 639 1040 l 380 1206 l 567 1206 l 704 1040 m 1277 958 l 1107 0 l 810 0 l 663 869 l 516 0 l 218 0 l 49 958 l 249 958 l 368 56 l 378 56 l 530 958 l 796 958 l 946 56 l 956 56 l 1076 958 "},"X":{"ha":806,"x_min":0,"x_max":0,"o":"m 571 0 l 403 387 l 237 0 l 32 0 l 279 479 l 33 958 l 237 958 l 404 551 l 570 958 l 774 958 l 526 479 l 774 0 "},"Y":{"ha":793,"x_min":0,"x_max":0,"o":"m 301 350 l 17 958 l 217 958 l 321 673 l 396 439 l 473 673 l 574 958 l 775 958 l 490 350 l 490 0 l 301 0 "},"Ý":{"ha":793,"x_min":0,"x_max":0,"o":"m 496 1204 l 683 1204 l 420 1040 l 359 1040 m 301 350 l 17 958 l 217 958 l 321 673 l 396 439 l 473 673 l 574 958 l 775 958 l 490 350 l 490 0 l 301 0 "},"Ŷ":{"ha":793,"x_min":0,"x_max":0,"o":"m 345 1204 l 446 1204 l 594 1025 l 469 1025 l 395 1166 l 322 1025 l 197 1025 m 301 350 l 17 958 l 217 958 l 321 673 l 396 439 l 473 673 l 574 958 l 775 958 l 490 350 l 490 0 l 301 0 "},"Ÿ":{"ha":793,"x_min":0,"x_max":0,"o":"m 208 1204 l 347 1204 l 347 1050 l 208 1050 m 445 1204 l 582 1204 l 582 1050 l 445 1050 m 301 350 l 17 958 l 217 958 l 321 673 l 396 439 l 473 673 l 574 958 l 775 958 l 490 350 l 490 0 l 301 0 "},"Ỵ":{"ha":793,"x_min":0,"x_max":0,"o":"m 301 350 l 17 958 l 217 958 l 321 673 l 396 439 l 473 673 l 574 958 l 775 958 l 490 350 l 490 0 l 301 0 m 327 -87 l 463 -87 l 463 -240 l 327 -240 "},"Ỳ":{"ha":793,"x_min":0,"x_max":0,"o":"m 111 1204 l 298 1204 l 435 1039 l 370 1039 m 301 350 l 17 958 l 217 958 l 321 673 l 396 439 l 473 673 l 574 958 l 775 958 l 490 350 l 490 0 l 301 0 "},"Ỷ":{"ha":793,"x_min":0,"x_max":0,"o":"m 313 1042 l 375 1069 b 448 1154 431 1096 448 1124 b 394 1206 448 1181 432 1206 b 326 1143 367 1206 344 1188 l 258 1198 b 393 1272 283 1241 332 1272 b 533 1138 470 1272 533 1221 b 374 1023 533 1069 477 1017 l 412 988 l 341 988 m 301 350 l 17 958 l 217 958 l 321 673 l 396 439 l 473 673 l 574 958 l 775 958 l 490 350 l 490 0 l 301 0 "},"Ȳ":{"ha":793,"x_min":0,"x_max":0,"o":"m 223 1179 l 572 1179 l 572 1080 l 223 1080 m 301 350 l 17 958 l 217 958 l 321 673 l 396 439 l 473 673 l 574 958 l 775 958 l 490 350 l 490 0 l 301 0 "},"Ỹ":{"ha":793,"x_min":0,"x_max":0,"o":"m 493 1022 b 284 1117 395 1022 372 1117 b 215 1027 241 1117 216 1082 l 166 1027 b 299 1206 166 1153 220 1206 b 507 1114 398 1206 422 1114 b 574 1204 553 1114 574 1151 l 626 1204 b 493 1022 626 1079 576 1022 m 301 350 l 17 958 l 217 958 l 321 673 l 396 439 l 473 673 l 574 958 l 775 958 l 490 350 l 490 0 l 301 0 "},"Z":{"ha":749,"x_min":0,"x_max":0,"o":"m 694 820 l 251 125 l 694 125 l 694 0 l 50 0 l 50 130 l 496 833 l 74 833 l 74 958 l 694 958 "},"Ź":{"ha":749,"x_min":0,"x_max":0,"o":"m 389 1040 l 328 1040 l 465 1204 l 652 1204 m 694 820 l 251 125 l 694 125 l 694 0 l 50 0 l 50 130 l 496 833 l 74 833 l 74 958 l 694 958 "},"Ž":{"ha":749,"x_min":0,"x_max":0,"o":"m 313 1027 l 166 1204 l 290 1204 l 363 1067 l 438 1204 l 563 1204 l 415 1027 m 694 820 l 251 125 l 694 125 l 694 0 l 50 0 l 50 130 l 496 833 l 74 833 l 74 958 l 694 958 "},"Ż":{"ha":749,"x_min":0,"x_max":0,"o":"m 432 1052 l 296 1052 l 296 1204 l 432 1204 m 694 820 l 251 125 l 694 125 l 694 0 l 50 0 l 50 130 l 496 833 l 74 833 l 74 958 l 694 958 "},"Ẓ":{"ha":749,"x_min":0,"x_max":0,"o":"m 694 820 l 251 125 l 694 125 l 694 0 l 50 0 l 50 130 l 496 833 l 74 833 l 74 958 l 694 958 m 296 -87 l 433 -87 l 433 -240 l 296 -240 "},"a":{"ha":740,"x_min":0,"x_max":0,"o":"m 671 95 b 710 85 678 87 690 85 l 710 0 b 623 -12 673 -8 646 -12 b 481 103 532 -12 498 46 l 469 103 b 267 -16 416 8 321 -16 b 57 175 145 -16 57 51 b 189 380 57 268 106 333 b 468 460 259 418 354 445 l 468 473 b 352 628 468 575 435 628 b 230 551 273 628 230 600 b 241 507 230 537 234 522 l 90 465 b 75 535 80 490 75 513 b 357 725 75 654 214 725 b 636 481 518 725 636 654 l 636 216 b 671 95 636 149 637 106 m 328 83 b 468 174 391 83 438 125 l 468 412 b 222 203 329 384 222 322 b 328 83 222 130 262 83 "},"á":{"ha":740,"x_min":0,"x_max":0,"o":"m 381 794 l 319 794 l 457 959 l 644 959 m 671 95 b 710 85 678 87 690 85 l 710 0 b 623 -12 673 -8 646 -12 b 481 103 532 -12 498 46 l 469 103 b 267 -16 416 8 321 -16 b 57 175 145 -16 57 51 b 189 380 57 268 106 333 b 468 460 259 418 354 445 l 468 473 b 352 628 468 575 435 628 b 230 551 273 628 230 600 b 241 507 230 537 234 522 l 90 465 b 75 535 80 490 75 513 b 357 725 75 654 214 725 b 636 481 518 725 636 654 l 636 216 b 671 95 636 149 637 106 m 328 83 b 468 174 391 83 438 125 l 468 412 b 222 203 329 384 222 322 b 328 83 222 130 262 83 "},"ă":{"ha":740,"x_min":0,"x_max":0,"o":"m 357 774 b 167 958 234 774 167 840 l 267 958 b 357 845 267 876 310 845 b 450 958 407 845 450 879 l 553 958 b 357 774 553 833 481 774 m 671 95 b 710 85 678 87 690 85 l 710 0 b 623 -12 673 -8 646 -12 b 481 103 532 -12 498 46 l 469 103 b 267 -16 416 8 321 -16 b 57 175 145 -16 57 51 b 189 380 57 268 106 333 b 468 460 259 418 354 445 l 468 473 b 352 628 468 575 435 628 b 230 551 273 628 230 600 b 241 507 230 537 234 522 l 90 465 b 75 535 80 490 75 513 b 357 725 75 654 214 725 b 636 481 518 725 636 654 l 636 216 b 671 95 636 149 637 106 m 328 83 b 468 174 391 83 438 125 l 468 412 b 222 203 329 384 222 322 b 328 83 222 130 262 83 "},"ắ":{"ha":740,"x_min":0,"x_max":0,"o":"m 381 1038 l 319 1038 l 457 1203 l 644 1203 m 357 774 b 167 958 234 774 167 840 l 267 958 b 357 845 267 876 310 845 b 450 958 407 845 450 879 l 553 958 b 357 774 553 833 481 774 m 671 95 b 710 85 678 87 690 85 l 710 0 b 623 -12 673 -8 646 -12 b 481 103 532 -12 498 46 l 469 103 b 267 -16 416 8 321 -16 b 57 175 145 -16 57 51 b 189 380 57 268 106 333 b 468 460 259 418 354 445 l 468 473 b 352 628 468 575 435 628 b 230 551 273 628 230 600 b 241 507 230 537 234 522 l 90 465 b 75 535 80 490 75 513 b 357 725 75 654 214 725 b 636 481 518 725 636 654 l 636 216 b 671 95 636 149 637 106 m 328 83 b 468 174 391 83 438 125 l 468 412 b 222 203 329 384 222 322 b 328 83 222 130 262 83 "},"ặ":{"ha":740,"x_min":0,"x_max":0,"o":"m 357 774 b 167 958 234 774 167 840 l 267 958 b 357 845 267 876 310 845 b 450 958 407 845 450 879 l 553 958 b 357 774 553 833 481 774 m 671 95 b 710 85 678 87 690 85 l 710 0 b 623 -12 673 -8 646 -12 b 481 103 532 -12 498 46 l 469 103 b 267 -16 416 8 321 -16 b 57 175 145 -16 57 51 b 189 380 57 268 106 333 b 468 460 259 418 354 445 l 468 473 b 352 628 468 575 435 628 b 230 551 273 628 230 600 b 241 507 230 537 234 522 l 90 465 b 75 535 80 490 75 513 b 357 725 75 654 214 725 b 636 481 518 725 636 654 l 636 216 b 671 95 636 149 637 106 m 328 83 b 468 174 391 83 438 125 l 468 412 b 222 203 329 384 222 322 b 328 83 222 130 262 83 m 289 -87 l 425 -87 l 425 -240 l 289 -240 "},"ằ":{"ha":740,"x_min":0,"x_max":0,"o":"m 330 1038 l 71 1203 l 258 1203 l 395 1038 m 267 958 b 357 845 267 876 310 845 b 450 958 407 845 450 879 l 553 958 b 357 774 553 833 481 774 b 167 958 234 774 167 840 l 267 958 m 671 95 b 710 85 678 87 690 85 l 710 0 b 623 -12 673 -8 646 -12 b 481 103 532 -12 498 46 l 469 103 b 267 -16 416 8 321 -16 b 57 175 145 -16 57 51 b 189 380 57 268 106 333 b 468 460 259 418 354 445 l 468 473 b 352 628 468 575 435 628 b 230 551 273 628 230 600 b 241 507 230 537 234 522 l 90 465 b 75 535 80 490 75 513 b 357 725 75 654 214 725 b 636 481 518 725 636 654 l 636 216 b 671 95 636 149 637 106 m 328 83 b 468 174 391 83 438 125 l 468 412 b 222 203 329 384 222 322 b 328 83 222 130 262 83 "},"ẳ":{"ha":740,"x_min":0,"x_max":0,"o":"m 355 1205 b 287 1141 328 1205 304 1187 l 218 1196 b 353 1270 244 1240 292 1270 b 494 1137 431 1270 494 1219 b 334 1021 494 1067 438 1016 l 372 987 l 302 987 l 274 1040 l 336 1068 b 409 1152 391 1095 409 1123 b 355 1205 409 1179 393 1205 m 357 774 b 167 958 234 774 167 840 l 267 958 b 357 845 267 876 310 845 b 450 958 407 845 450 879 l 553 958 b 357 774 553 833 481 774 m 671 95 b 710 85 678 87 690 85 l 710 0 b 623 -12 673 -8 646 -12 b 481 103 532 -12 498 46 l 469 103 b 267 -16 416 8 321 -16 b 57 175 145 -16 57 51 b 189 380 57 268 106 333 b 468 460 259 418 354 445 l 468 473 b 352 628 468 575 435 628 b 230 551 273 628 230 600 b 241 507 230 537 234 522 l 90 465 b 75 535 80 490 75 513 b 357 725 75 654 214 725 b 636 481 518 725 636 654 l 636 216 b 671 95 636 149 637 106 m 328 83 b 468 174 391 83 438 125 l 468 412 b 222 203 329 384 222 322 b 328 83 222 130 262 83 "},"ẵ":{"ha":740,"x_min":0,"x_max":0,"o":"m 245 1116 b 176 1025 202 1116 176 1080 l 127 1025 b 260 1204 127 1152 181 1204 b 467 1112 359 1204 383 1112 b 535 1203 514 1112 535 1149 l 587 1203 b 454 1021 587 1078 536 1021 b 245 1116 356 1021 332 1116 m 357 845 b 450 958 407 845 450 879 l 553 958 b 357 774 553 833 481 774 b 167 958 234 774 167 840 l 267 958 b 357 845 267 876 310 845 m 671 95 b 710 85 678 87 690 85 l 710 0 b 623 -12 673 -8 646 -12 b 481 103 532 -12 498 46 l 469 103 b 267 -16 416 8 321 -16 b 57 175 145 -16 57 51 b 189 380 57 268 106 333 b 468 460 259 418 354 445 l 468 473 b 352 628 468 575 435 628 b 230 551 273 628 230 600 b 241 507 230 537 234 522 l 90 465 b 75 535 80 490 75 513 b 357 725 75 654 214 725 b 636 481 518 725 636 654 l 636 216 b 671 95 636 149 637 106 m 328 83 b 468 174 391 83 438 125 l 468 412 b 222 203 329 384 222 322 b 328 83 222 130 262 83 "},"ǎ":{"ha":740,"x_min":0,"x_max":0,"o":"m 304 782 l 158 959 l 282 959 l 355 821 l 430 959 l 555 959 l 407 782 m 671 95 b 710 85 678 87 690 85 l 710 0 b 623 -12 673 -8 646 -12 b 481 103 532 -12 498 46 l 469 103 b 267 -16 416 8 321 -16 b 57 175 145 -16 57 51 b 189 380 57 268 106 333 b 468 460 259 418 354 445 l 468 473 b 352 628 468 575 435 628 b 230 551 273 628 230 600 b 241 507 230 537 234 522 l 90 465 b 75 535 80 490 75 513 b 357 725 75 654 214 725 b 636 481 518 725 636 654 l 636 216 b 671 95 636 149 637 106 m 328 83 b 468 174 391 83 438 125 l 468 412 b 222 203 329 384 222 322 b 328 83 222 130 262 83 "},"â":{"ha":740,"x_min":0,"x_max":0,"o":"m 283 779 l 158 779 l 305 959 l 407 959 l 555 779 l 430 779 l 356 921 m 671 95 b 710 85 678 87 690 85 l 710 0 b 623 -12 673 -8 646 -12 b 481 103 532 -12 498 46 l 469 103 b 267 -16 416 8 321 -16 b 57 175 145 -16 57 51 b 189 380 57 268 106 333 b 468 460 259 418 354 445 l 468 473 b 352 628 468 575 435 628 b 230 551 273 628 230 600 b 241 507 230 537 234 522 l 90 465 b 75 535 80 490 75 513 b 357 725 75 654 214 725 b 636 481 518 725 636 654 l 636 216 b 671 95 636 149 637 106 m 328 83 b 468 174 391 83 438 125 l 468 412 b 222 203 329 384 222 322 b 328 83 222 130 262 83 "},"ấ":{"ha":740,"x_min":0,"x_max":0,"o":"m 382 1039 l 321 1039 l 458 1204 l 645 1204 m 283 779 l 158 779 l 305 959 l 407 959 l 555 779 l 430 779 l 356 921 m 671 95 b 710 85 678 87 690 85 l 710 0 b 623 -12 673 -8 646 -12 b 481 103 532 -12 498 46 l 469 103 b 267 -16 416 8 321 -16 b 57 175 145 -16 57 51 b 189 380 57 268 106 333 b 468 460 259 418 354 445 l 468 473 b 352 628 468 575 435 628 b 230 551 273 628 230 600 b 241 507 230 537 234 522 l 90 465 b 75 535 80 490 75 513 b 357 725 75 654 214 725 b 636 481 518 725 636 654 l 636 216 b 671 95 636 149 637 106 m 328 83 b 468 174 391 83 438 125 l 468 412 b 222 203 329 384 222 322 b 328 83 222 130 262 83 "},"ậ":{"ha":740,"x_min":0,"x_max":0,"o":"m 283 779 l 158 779 l 305 959 l 407 959 l 555 779 l 430 779 l 356 921 m 671 95 b 710 85 678 87 690 85 l 710 0 b 623 -12 673 -8 646 -12 b 481 103 532 -12 498 46 l 469 103 b 267 -16 416 8 321 -16 b 57 175 145 -16 57 51 b 189 380 57 268 106 333 b 468 460 259 418 354 445 l 468 473 b 352 628 468 575 435 628 b 230 551 273 628 230 600 b 241 507 230 537 234 522 l 90 465 b 75 535 80 490 75 513 b 357 725 75 654 214 725 b 636 481 518 725 636 654 l 636 216 b 671 95 636 149 637 106 m 328 83 b 468 174 391 83 438 125 l 468 412 b 222 203 329 384 222 322 b 328 83 222 130 262 83 m 289 -87 l 425 -87 l 425 -240 l 289 -240 "},"ầ":{"ha":740,"x_min":0,"x_max":0,"o":"m 332 1038 l 73 1204 l 260 1204 l 397 1038 m 305 959 l 407 959 l 555 779 l 430 779 l 356 921 l 283 779 l 158 779 m 671 95 b 710 85 678 87 690 85 l 710 0 b 623 -12 673 -8 646 -12 b 481 103 532 -12 498 46 l 469 103 b 267 -16 416 8 321 -16 b 57 175 145 -16 57 51 b 189 380 57 268 106 333 b 468 460 259 418 354 445 l 468 473 b 352 628 468 575 435 628 b 230 551 273 628 230 600 b 241 507 230 537 234 522 l 90 465 b 75 535 80 490 75 513 b 357 725 75 654 214 725 b 636 481 518 725 636 654 l 636 216 b 671 95 636 149 637 106 m 328 83 b 468 174 391 83 438 125 l 468 412 b 222 203 329 384 222 322 b 328 83 222 130 262 83 "},"ẩ":{"ha":740,"x_min":0,"x_max":0,"o":"m 356 1206 b 288 1142 329 1206 306 1187 l 220 1197 b 355 1271 245 1240 294 1271 b 495 1137 432 1271 495 1220 b 336 1022 495 1068 439 1017 l 374 987 l 303 987 l 275 1041 l 337 1069 b 410 1153 393 1095 410 1124 b 356 1206 410 1180 394 1206 m 283 779 l 158 779 l 305 959 l 407 959 l 555 779 l 430 779 l 356 921 m 671 95 b 710 85 678 87 690 85 l 710 0 b 623 -12 673 -8 646 -12 b 481 103 532 -12 498 46 l 469 103 b 267 -16 416 8 321 -16 b 57 175 145 -16 57 51 b 189 380 57 268 106 333 b 468 460 259 418 354 445 l 468 473 b 352 628 468 575 435 628 b 230 551 273 628 230 600 b 241 507 230 537 234 522 l 90 465 b 75 535 80 490 75 513 b 357 725 75 654 214 725 b 636 481 518 725 636 654 l 636 216 b 671 95 636 149 637 106 m 328 83 b 468 174 391 83 438 125 l 468 412 b 222 203 329 384 222 322 b 328 83 222 130 262 83 "},"ẫ":{"ha":740,"x_min":0,"x_max":0,"o":"m 246 1116 b 177 1026 203 1116 178 1081 l 128 1026 b 261 1205 128 1152 182 1205 b 469 1113 360 1205 385 1113 b 536 1204 515 1113 536 1150 l 588 1204 b 455 1021 588 1078 538 1021 b 246 1116 357 1021 334 1116 m 407 959 l 555 779 l 430 779 l 356 921 l 283 779 l 158 779 l 305 959 m 671 95 b 710 85 678 87 690 85 l 710 0 b 623 -12 673 -8 646 -12 b 481 103 532 -12 498 46 l 469 103 b 267 -16 416 8 321 -16 b 57 175 145 -16 57 51 b 189 380 57 268 106 333 b 468 460 259 418 354 445 l 468 473 b 352 628 468 575 435 628 b 230 551 273 628 230 600 b 241 507 230 537 234 522 l 90 465 b 75 535 80 490 75 513 b 357 725 75 654 214 725 b 636 481 518 725 636 654 l 636 216 b 671 95 636 149 637 106 m 328 83 b 468 174 391 83 438 125 l 468 412 b 222 203 329 384 222 322 b 328 83 222 130 262 83 "},"ä":{"ha":740,"x_min":0,"x_max":0,"o":"m 307 804 l 169 804 l 169 959 l 307 959 m 543 804 l 406 804 l 406 959 l 543 959 m 671 95 b 710 85 678 87 690 85 l 710 0 b 623 -12 673 -8 646 -12 b 481 103 532 -12 498 46 l 469 103 b 267 -16 416 8 321 -16 b 57 175 145 -16 57 51 b 189 380 57 268 106 333 b 468 460 259 418 354 445 l 468 473 b 352 628 468 575 435 628 b 230 551 273 628 230 600 b 241 507 230 537 234 522 l 90 465 b 75 535 80 490 75 513 b 357 725 75 654 214 725 b 636 481 518 725 636 654 l 636 216 b 671 95 636 149 637 106 m 328 83 b 468 174 391 83 438 125 l 468 412 b 222 203 329 384 222 322 b 328 83 222 130 262 83 "},"ạ":{"ha":740,"x_min":0,"x_max":0,"o":"m 671 95 b 710 85 678 87 690 85 l 710 0 b 623 -12 673 -8 646 -12 b 481 103 532 -12 498 46 l 469 103 b 267 -16 416 8 321 -16 b 57 175 145 -16 57 51 b 189 380 57 268 106 333 b 468 460 259 418 354 445 l 468 473 b 352 628 468 575 435 628 b 230 551 273 628 230 600 b 241 507 230 537 234 522 l 90 465 b 75 535 80 490 75 513 b 357 725 75 654 214 725 b 636 481 518 725 636 654 l 636 216 b 671 95 636 149 637 106 m 328 83 b 468 174 391 83 438 125 l 468 412 b 222 203 329 384 222 322 b 328 83 222 130 262 83 m 289 -87 l 425 -87 l 425 -240 l 289 -240 "},"à":{"ha":740,"x_min":0,"x_max":0,"o":"m 330 793 l 71 959 l 258 959 l 395 793 m 671 95 b 710 85 678 87 690 85 l 710 0 b 623 -12 673 -8 646 -12 b 481 103 532 -12 498 46 l 469 103 b 267 -16 416 8 321 -16 b 57 175 145 -16 57 51 b 189 380 57 268 106 333 b 468 460 259 418 354 445 l 468 473 b 352 628 468 575 435 628 b 230 551 273 628 230 600 b 241 507 230 537 234 522 l 90 465 b 75 535 80 490 75 513 b 357 725 75 654 214 725 b 636 481 518 725 636 654 l 636 216 b 671 95 636 149 637 106 m 328 83 b 468 174 391 83 438 125 l 468 412 b 222 203 329 384 222 322 b 328 83 222 130 262 83 "},"ả":{"ha":740,"x_min":0,"x_max":0,"o":"m 355 961 b 287 897 328 961 304 943 l 218 952 b 353 1026 244 996 292 1026 b 494 892 431 1026 494 975 b 334 777 494 823 438 772 l 372 743 l 302 743 l 274 796 l 336 824 b 409 908 391 850 409 879 b 355 961 409 935 393 961 m 671 95 b 710 85 678 87 690 85 l 710 0 b 623 -12 673 -8 646 -12 b 481 103 532 -12 498 46 l 469 103 b 267 -16 416 8 321 -16 b 57 175 145 -16 57 51 b 189 380 57 268 106 333 b 468 460 259 418 354 445 l 468 473 b 352 628 468 575 435 628 b 230 551 273 628 230 600 b 241 507 230 537 234 522 l 90 465 b 75 535 80 490 75 513 b 357 725 75 654 214 725 b 636 481 518 725 636 654 l 636 216 b 671 95 636 149 637 106 m 328 83 b 468 174 391 83 438 125 l 468 412 b 222 203 329 384 222 322 b 328 83 222 130 262 83 "},"ā":{"ha":740,"x_min":0,"x_max":0,"o":"m 532 834 l 184 834 l 184 933 l 532 933 m 671 95 b 710 85 678 87 690 85 l 710 0 b 623 -12 673 -8 646 -12 b 481 103 532 -12 498 46 l 469 103 b 267 -16 416 8 321 -16 b 57 175 145 -16 57 51 b 189 380 57 268 106 333 b 468 460 259 418 354 445 l 468 473 b 352 628 468 575 435 628 b 230 551 273 628 230 600 b 241 507 230 537 234 522 l 90 465 b 75 535 80 490 75 513 b 357 725 75 654 214 725 b 636 481 518 725 636 654 l 636 216 b 671 95 636 149 637 106 m 328 83 b 468 174 391 83 438 125 l 468 412 b 222 203 329 384 222 322 b 328 83 222 130 262 83 "},"ą":{"ha":740,"x_min":0,"x_max":0,"o":"m 770 -223 b 634 -309 742 -283 693 -309 b 500 -181 557 -309 500 -260 b 628 -12 500 -114 544 -57 l 623 -12 b 481 103 532 -12 498 46 l 469 103 b 267 -16 416 8 321 -16 b 57 175 145 -16 57 51 b 189 380 57 268 106 333 b 468 460 259 418 354 445 l 468 473 b 352 628 468 575 435 628 b 230 551 273 628 230 600 b 241 507 230 537 234 522 l 90 465 b 75 535 80 490 75 513 b 357 725 75 654 214 725 b 636 481 518 725 636 654 l 636 216 b 671 95 636 149 637 106 b 710 85 678 87 690 85 l 710 0 b 588 -162 622 -62 588 -106 b 639 -229 588 -210 612 -229 b 709 -178 663 -229 690 -212 m 468 412 b 222 203 329 384 222 322 b 328 83 222 130 262 83 b 468 174 391 83 438 125 "},"å":{"ha":740,"x_min":0,"x_max":0,"o":"m 357 767 b 200 918 266 767 200 831 b 357 1066 200 1004 266 1066 b 513 918 447 1066 513 1004 b 357 767 513 831 447 767 m 357 846 b 431 917 401 846 431 876 b 357 987 431 958 401 987 b 281 917 313 987 281 958 b 357 846 281 876 313 846 m 671 95 b 710 85 678 87 690 85 l 710 0 b 623 -12 673 -8 646 -12 b 481 103 532 -12 498 46 l 469 103 b 267 -16 416 8 321 -16 b 57 175 145 -16 57 51 b 189 380 57 268 106 333 b 468 460 259 418 354 445 l 468 473 b 352 628 468 575 435 628 b 230 551 273 628 230 600 b 241 507 230 537 234 522 l 90 465 b 75 535 80 490 75 513 b 357 725 75 654 214 725 b 636 481 518 725 636 654 l 636 216 b 671 95 636 149 637 106 m 328 83 b 468 174 391 83 438 125 l 468 412 b 222 203 329 384 222 322 b 328 83 222 130 262 83 "},"ǻ":{"ha":740,"x_min":0,"x_max":0,"o":"m 357 767 b 200 918 266 767 200 831 b 357 1066 200 1004 266 1066 b 377 1065 363 1066 371 1065 l 457 1160 l 644 1160 l 450 1039 b 513 918 489 1013 513 970 b 357 767 513 831 447 767 m 357 987 b 281 917 313 987 281 958 b 357 846 281 876 313 846 b 431 917 401 846 431 876 b 357 987 431 958 401 987 m 671 95 b 710 85 678 87 690 85 l 710 0 b 623 -12 673 -8 646 -12 b 481 103 532 -12 498 46 l 469 103 b 267 -16 416 8 321 -16 b 57 175 145 -16 57 51 b 189 380 57 268 106 333 b 468 460 259 418 354 445 l 468 473 b 352 628 468 575 435 628 b 230 551 273 628 230 600 b 241 507 230 537 234 522 l 90 465 b 75 535 80 490 75 513 b 357 725 75 654 214 725 b 636 481 518 725 636 654 l 636 216 b 671 95 636 149 637 106 m 468 412 b 222 203 329 384 222 322 b 328 83 222 130 262 83 b 468 174 391 83 438 125 "},"ã":{"ha":740,"x_min":0,"x_max":0,"o":"m 454 777 b 245 871 356 777 332 871 b 176 781 202 871 176 836 l 127 781 b 260 960 127 907 181 960 b 467 868 359 960 383 868 b 535 959 514 868 535 905 l 587 959 b 454 777 587 833 536 777 m 671 95 b 710 85 678 87 690 85 l 710 0 b 623 -12 673 -8 646 -12 b 481 103 532 -12 498 46 l 469 103 b 267 -16 416 8 321 -16 b 57 175 145 -16 57 51 b 189 380 57 268 106 333 b 468 460 259 418 354 445 l 468 473 b 352 628 468 575 435 628 b 230 551 273 628 230 600 b 241 507 230 537 234 522 l 90 465 b 75 535 80 490 75 513 b 357 725 75 654 214 725 b 636 481 518 725 636 654 l 636 216 b 671 95 636 149 637 106 m 328 83 b 468 174 391 83 438 125 l 468 412 b 222 203 329 384 222 322 b 328 83 222 130 262 83 "},"æ":{"ha":1127,"x_min":0,"x_max":0,"o":"m 261 -16 b 57 171 138 -16 57 60 b 189 380 57 270 106 333 b 463 460 260 419 357 446 l 465 498 b 351 623 469 590 428 623 b 208 489 275 623 233 578 l 68 547 b 353 725 111 668 216 725 b 569 648 445 725 522 700 b 774 725 616 696 684 725 b 1070 391 996 725 1070 566 b 1065 309 1070 371 1069 334 l 642 309 b 801 102 642 177 700 102 b 932 189 856 102 899 124 l 1061 142 b 793 -14 1002 25 903 -14 b 529 109 678 -14 587 29 l 504 109 b 261 -16 431 14 347 -16 m 913 390 b 782 619 916 527 892 619 b 644 390 673 619 645 519 m 332 94 b 490 179 385 94 448 124 b 461 352 471 230 461 288 b 463 398 461 367 462 383 b 227 200 342 384 227 309 b 332 94 227 127 274 94 "},"ǽ":{"ha":1127,"x_min":0,"x_max":0,"o":"m 623 925 l 810 925 l 547 760 l 486 760 m 261 -16 b 57 171 138 -16 57 60 b 189 380 57 270 106 333 b 463 460 260 419 357 446 l 465 498 b 351 623 469 590 428 623 b 208 489 275 623 233 578 l 68 547 b 353 725 111 668 216 725 b 569 648 445 725 522 700 b 774 725 616 696 684 725 b 1070 391 996 725 1070 566 b 1065 309 1070 371 1069 334 l 642 309 b 801 102 642 177 700 102 b 932 189 856 102 899 124 l 1061 142 b 793 -14 1002 25 903 -14 b 529 109 678 -14 587 29 l 504 109 b 261 -16 431 14 347 -16 m 913 390 b 782 619 916 527 892 619 b 644 390 673 619 645 519 m 332 94 b 490 179 385 94 448 124 b 461 352 471 230 461 288 b 463 398 461 367 462 383 b 227 200 342 384 227 309 b 332 94 227 127 274 94 "},"b":{"ha":809,"x_min":0,"x_max":0,"o":"m 487 725 b 752 355 641 725 752 610 b 484 -16 752 108 644 -16 b 285 125 387 -16 311 40 l 277 125 l 272 0 l 100 0 l 100 958 l 281 958 l 281 575 l 287 575 b 487 725 323 675 395 725 m 421 86 b 571 353 501 86 571 152 b 420 614 571 549 502 614 b 272 353 333 614 272 538 b 421 86 272 165 334 86 "},"ḅ":{"ha":809,"x_min":0,"x_max":0,"o":"m 487 725 b 752 355 641 725 752 610 b 484 -16 752 108 644 -16 b 285 125 387 -16 311 40 l 277 125 l 272 0 l 100 0 l 100 958 l 281 958 l 281 575 l 287 575 b 487 725 323 675 395 725 m 421 86 b 571 353 501 86 571 152 b 420 614 571 549 502 614 b 272 353 333 614 272 538 b 421 86 272 165 334 86 m 321 -87 l 458 -87 l 458 -240 l 321 -240 "},"c":{"ha":696,"x_min":0,"x_max":0,"o":"m 372 -16 b 56 354 147 -16 56 156 b 372 725 56 557 147 725 b 658 498 536 725 620 645 l 505 463 b 381 617 490 572 452 617 b 238 353 270 617 238 512 b 381 94 238 196 270 94 b 505 248 454 94 490 142 l 651 217 b 372 -16 618 59 530 -16 "},"ć":{"ha":696,"x_min":0,"x_max":0,"o":"m 458 959 l 644 959 l 382 794 l 320 794 m 372 -16 b 56 354 147 -16 56 156 b 372 725 56 557 147 725 b 658 498 536 725 620 645 l 505 463 b 381 617 490 572 452 617 b 238 353 270 617 238 512 b 381 94 238 196 270 94 b 505 248 454 94 490 142 l 651 217 b 372 -16 618 59 530 -16 "},"č":{"ha":696,"x_min":0,"x_max":0,"o":"m 159 959 l 283 959 l 356 821 l 431 959 l 555 959 l 408 782 l 305 782 m 372 -16 b 56 354 147 -16 56 156 b 372 725 56 557 147 725 b 658 498 536 725 620 645 l 505 463 b 381 617 490 572 452 617 b 238 353 270 617 238 512 b 381 94 238 196 270 94 b 505 248 454 94 490 142 l 651 217 b 372 -16 618 59 530 -16 "},"ç":{"ha":696,"x_min":0,"x_max":0,"o":"m 381 94 b 505 248 454 94 490 142 l 651 217 b 450 -8 625 87 559 14 l 361 -90 b 520 -205 465 -85 520 -136 b 380 -339 520 -288 457 -339 b 245 -265 319 -339 271 -308 l 313 -210 b 381 -273 331 -255 354 -273 b 435 -220 419 -273 435 -248 b 374 -143 435 -191 415 -159 l 298 -113 l 350 -15 b 56 354 141 -4 56 163 b 372 725 56 557 147 725 b 658 498 536 725 620 645 l 505 463 b 381 617 490 572 452 617 b 238 353 270 617 238 512 b 381 94 238 196 270 94 "},"ċ":{"ha":696,"x_min":0,"x_max":0,"o":"m 288 959 l 425 959 l 425 806 l 288 806 m 372 -16 b 56 354 147 -16 56 156 b 372 725 56 557 147 725 b 658 498 536 725 620 645 l 505 463 b 381 617 490 572 452 617 b 238 353 270 617 238 512 b 381 94 238 196 270 94 b 505 248 454 94 490 142 l 651 217 b 372 -16 618 59 530 -16 "},"d":{"ha":809,"x_min":0,"x_max":0,"o":"m 709 958 l 709 0 l 536 0 l 531 125 l 524 125 b 326 -16 497 40 422 -16 b 56 355 165 -16 56 108 b 322 725 56 610 168 725 b 522 575 414 725 485 675 l 528 575 l 528 958 m 387 86 b 536 353 475 86 536 165 b 388 614 536 538 476 614 b 238 353 307 614 238 549 b 387 86 238 152 307 86 "},"ð":{"ha":750,"x_min":0,"x_max":0,"o":"m 412 947 b 694 442 602 826 694 659 b 373 -11 694 144 572 -11 b 56 350 166 -11 56 138 b 340 711 56 570 176 711 b 525 588 431 711 500 660 b 344 832 508 706 427 781 l 309 773 l 226 786 l 275 869 b 189 907 243 884 213 897 l 257 1028 b 346 986 288 1015 318 1001 l 397 1072 l 461 1031 l 412 947 m 373 80 b 524 350 467 80 524 157 b 373 636 524 562 466 636 b 235 350 276 636 235 551 b 373 80 235 164 276 80 "},"ď":{"ha":943,"x_min":0,"x_max":0,"o":"m 528 958 l 709 958 l 709 0 l 536 0 l 531 125 l 524 125 b 326 -16 497 40 422 -16 b 56 355 165 -16 56 108 b 322 725 56 610 168 725 b 522 575 414 725 485 675 l 528 575 m 1000 958 l 1000 751 l 907 488 l 772 488 l 945 751 l 776 751 l 776 958 m 387 86 b 536 353 475 86 536 165 b 388 614 536 538 476 614 b 238 353 307 614 238 549 b 387 86 238 152 307 86 "},"đ":{"ha":809,"x_min":0,"x_max":0,"o":"m 798 804 l 709 804 l 709 0 l 536 0 l 531 125 l 524 125 b 326 -16 497 40 422 -16 b 56 355 165 -16 56 108 b 322 725 56 610 168 725 b 522 575 414 725 485 675 l 528 575 l 528 804 l 384 804 l 384 876 l 528 876 l 528 958 l 709 958 l 709 876 l 798 876 m 387 86 b 536 353 475 86 536 165 b 388 614 536 538 476 614 b 238 353 307 614 238 549 b 387 86 238 152 307 86 "},"ǳ":{"ha":1397,"x_min":0,"x_max":0,"o":"m 528 958 l 709 958 l 709 0 l 536 0 l 531 125 l 524 125 b 326 -16 497 40 422 -16 b 56 355 165 -16 56 108 b 322 725 56 610 168 725 b 522 575 414 725 485 675 l 528 575 m 1352 571 l 1041 108 l 1352 108 l 1352 0 l 849 0 l 849 132 l 1179 605 l 856 605 l 856 711 l 1352 711 m 387 86 b 536 353 475 86 536 165 b 388 614 536 538 476 614 b 238 353 307 614 238 549 b 387 86 238 152 307 86 "},"ǆ":{"ha":1397,"x_min":0,"x_max":0,"o":"m 1046 782 l 900 959 l 1024 959 l 1097 821 l 1172 959 l 1297 959 l 1149 782 m 528 958 l 709 958 l 709 0 l 536 0 l 531 125 l 524 125 b 326 -16 497 40 422 -16 b 56 355 165 -16 56 108 b 322 725 56 610 168 725 b 522 575 414 725 485 675 l 528 575 m 1352 571 l 1041 108 l 1352 108 l 1352 0 l 849 0 l 849 132 l 1179 605 l 856 605 l 856 711 l 1352 711 m 387 86 b 536 353 475 86 536 165 b 388 614 536 538 476 614 b 238 353 307 614 238 549 b 387 86 238 152 307 86 "},"e":{"ha":722,"x_min":0,"x_max":0,"o":"m 237 309 b 397 102 237 176 296 102 b 527 189 451 102 494 124 l 656 142 b 388 -14 597 25 498 -14 b 56 352 185 -14 56 123 b 369 725 56 562 146 725 b 666 391 591 725 666 566 b 661 309 666 371 665 334 m 377 619 b 239 390 268 619 241 519 l 508 390 b 377 619 511 528 485 619 "},"é":{"ha":722,"x_min":0,"x_max":0,"o":"m 388 794 l 326 794 l 464 959 l 650 959 m 237 309 b 397 102 237 176 296 102 b 527 189 451 102 494 124 l 656 142 b 388 -14 597 25 498 -14 b 56 352 185 -14 56 123 b 369 725 56 562 146 725 b 666 391 591 725 666 566 b 661 309 666 371 665 334 m 377 619 b 239 390 268 619 241 519 l 508 390 b 377 619 511 528 485 619 "},"ĕ":{"ha":722,"x_min":0,"x_max":0,"o":"m 363 774 b 174 958 241 774 174 840 l 274 958 b 363 845 274 876 317 845 b 457 958 414 845 457 879 l 560 958 b 363 774 560 833 488 774 m 237 309 b 397 102 237 176 296 102 b 527 189 451 102 494 124 l 656 142 b 388 -14 597 25 498 -14 b 56 352 185 -14 56 123 b 369 725 56 562 146 725 b 666 391 591 725 666 566 b 661 309 666 371 665 334 m 377 619 b 239 390 268 619 241 519 l 508 390 b 377 619 511 528 485 619 "},"ě":{"ha":722,"x_min":0,"x_max":0,"o":"m 311 782 l 165 959 l 289 959 l 362 821 l 437 959 l 562 959 l 414 782 m 237 309 b 397 102 237 176 296 102 b 527 189 451 102 494 124 l 656 142 b 388 -14 597 25 498 -14 b 56 352 185 -14 56 123 b 369 725 56 562 146 725 b 666 391 591 725 666 566 b 661 309 666 371 665 334 m 377 619 b 239 390 268 619 241 519 l 508 390 b 377 619 511 528 485 619 "},"ȩ":{"ha":722,"x_min":0,"x_max":0,"o":"m 237 309 b 397 102 237 176 296 102 b 527 189 451 102 494 124 l 656 142 b 434 -11 605 41 526 -1 l 348 -90 b 507 -205 452 -85 507 -136 b 367 -339 507 -288 444 -339 b 232 -265 306 -339 258 -308 l 300 -210 b 368 -273 318 -255 341 -273 b 422 -220 406 -273 422 -248 b 361 -143 422 -191 402 -159 l 285 -113 l 339 -11 b 56 352 165 9 56 142 b 369 725 56 562 146 725 b 666 391 591 725 666 566 b 661 309 666 371 665 334 m 377 619 b 239 390 268 619 241 519 l 508 390 b 377 619 511 528 485 619 "},"ê":{"ha":722,"x_min":0,"x_max":0,"o":"m 290 779 l 165 779 l 312 959 l 414 959 l 562 779 l 437 779 l 363 921 m 237 309 b 397 102 237 176 296 102 b 527 189 451 102 494 124 l 656 142 b 388 -14 597 25 498 -14 b 56 352 185 -14 56 123 b 369 725 56 562 146 725 b 666 391 591 725 666 566 b 661 309 666 371 665 334 m 377 619 b 239 390 268 619 241 519 l 508 390 b 377 619 511 528 485 619 "},"ế":{"ha":722,"x_min":0,"x_max":0,"o":"m 389 1039 l 328 1039 l 465 1204 l 652 1204 m 290 779 l 165 779 l 312 959 l 414 959 l 562 779 l 437 779 l 363 921 m 237 309 b 397 102 237 176 296 102 b 527 189 451 102 494 124 l 656 142 b 388 -14 597 25 498 -14 b 56 352 185 -14 56 123 b 369 725 56 562 146 725 b 666 391 591 725 666 566 b 661 309 666 371 665 334 m 377 619 b 239 390 268 619 241 519 l 508 390 b 377 619 511 528 485 619 "},"ệ":{"ha":722,"x_min":0,"x_max":0,"o":"m 290 779 l 165 779 l 312 959 l 414 959 l 562 779 l 437 779 l 363 921 m 237 309 b 397 102 237 176 296 102 b 527 189 451 102 494 124 l 656 142 b 388 -14 597 25 498 -14 b 56 352 185 -14 56 123 b 369 725 56 562 146 725 b 666 391 591 725 666 566 b 661 309 666 371 665 334 m 377 619 b 239 390 268 619 241 519 l 508 390 b 377 619 511 528 485 619 m 313 -87 l 450 -87 l 450 -240 l 313 -240 "},"ề":{"ha":722,"x_min":0,"x_max":0,"o":"m 338 1038 l 79 1204 l 267 1204 l 404 1038 m 312 959 l 414 959 l 562 779 l 437 779 l 363 921 l 290 779 l 165 779 m 237 309 b 397 102 237 176 296 102 b 527 189 451 102 494 124 l 656 142 b 388 -14 597 25 498 -14 b 56 352 185 -14 56 123 b 369 725 56 562 146 725 b 666 391 591 725 666 566 b 661 309 666 371 665 334 m 377 619 b 239 390 268 619 241 519 l 508 390 b 377 619 511 528 485 619 "},"ể":{"ha":722,"x_min":0,"x_max":0,"o":"m 363 1206 b 295 1142 336 1206 313 1187 l 227 1197 b 361 1271 252 1240 300 1271 b 502 1137 439 1271 502 1220 b 342 1022 502 1068 446 1017 l 380 987 l 310 987 l 282 1041 l 344 1069 b 417 1153 399 1095 417 1124 b 363 1206 417 1180 401 1206 m 290 779 l 165 779 l 312 959 l 414 959 l 562 779 l 437 779 l 363 921 m 237 309 b 397 102 237 176 296 102 b 527 189 451 102 494 124 l 656 142 b 388 -14 597 25 498 -14 b 56 352 185 -14 56 123 b 369 725 56 562 146 725 b 666 391 591 725 666 566 b 661 309 666 371 665 334 m 377 619 b 239 390 268 619 241 519 l 508 390 b 377 619 511 528 485 619 "},"ễ":{"ha":722,"x_min":0,"x_max":0,"o":"m 253 1116 b 184 1026 210 1116 184 1081 l 135 1026 b 268 1205 135 1152 189 1205 b 475 1113 367 1205 391 1113 b 543 1204 522 1113 543 1150 l 595 1204 b 462 1021 595 1078 545 1021 b 253 1116 364 1021 340 1116 m 414 959 l 562 779 l 437 779 l 363 921 l 290 779 l 165 779 l 312 959 m 237 309 b 397 102 237 176 296 102 b 527 189 451 102 494 124 l 656 142 b 388 -14 597 25 498 -14 b 56 352 185 -14 56 123 b 369 725 56 562 146 725 b 666 391 591 725 666 566 b 661 309 666 371 665 334 m 377 619 b 239 390 268 619 241 519 l 508 390 b 377 619 511 528 485 619 "},"ë":{"ha":722,"x_min":0,"x_max":0,"o":"m 314 804 l 176 804 l 176 959 l 314 959 m 549 804 l 412 804 l 412 959 l 549 959 m 237 309 b 397 102 237 176 296 102 b 527 189 451 102 494 124 l 656 142 b 388 -14 597 25 498 -14 b 56 352 185 -14 56 123 b 369 725 56 562 146 725 b 666 391 591 725 666 566 b 661 309 666 371 665 334 m 377 619 b 239 390 268 619 241 519 l 508 390 b 377 619 511 528 485 619 "},"ė":{"ha":722,"x_min":0,"x_max":0,"o":"m 431 806 l 294 806 l 294 959 l 431 959 m 237 309 b 397 102 237 176 296 102 b 527 189 451 102 494 124 l 656 142 b 388 -14 597 25 498 -14 b 56 352 185 -14 56 123 b 369 725 56 562 146 725 b 666 391 591 725 666 566 b 661 309 666 371 665 334 m 377 619 b 239 390 268 619 241 519 l 508 390 b 377 619 511 528 485 619 "},"ẹ":{"ha":722,"x_min":0,"x_max":0,"o":"m 237 309 b 397 102 237 176 296 102 b 527 189 451 102 494 124 l 656 142 b 388 -14 597 25 498 -14 b 56 352 185 -14 56 123 b 369 725 56 562 146 725 b 666 391 591 725 666 566 b 661 309 666 371 665 334 m 377 619 b 239 390 268 619 241 519 l 508 390 b 377 619 511 528 485 619 m 313 -87 l 450 -87 l 450 -240 l 313 -240 "},"è":{"ha":722,"x_min":0,"x_max":0,"o":"m 337 793 l 78 959 l 265 959 l 402 793 m 237 309 b 397 102 237 176 296 102 b 527 189 451 102 494 124 l 656 142 b 388 -14 597 25 498 -14 b 56 352 185 -14 56 123 b 369 725 56 562 146 725 b 666 391 591 725 666 566 b 661 309 666 371 665 334 m 377 619 b 239 390 268 619 241 519 l 508 390 b 377 619 511 528 485 619 "},"ẻ":{"ha":722,"x_min":0,"x_max":0,"o":"m 361 961 b 294 897 334 961 311 943 l 225 952 b 360 1026 251 996 299 1026 b 500 892 437 1026 500 975 b 341 777 500 823 445 772 l 379 743 l 309 743 l 281 796 l 342 824 b 416 908 398 850 416 879 b 361 961 416 935 399 961 m 237 309 b 397 102 237 176 296 102 b 527 189 451 102 494 124 l 656 142 b 388 -14 597 25 498 -14 b 56 352 185 -14 56 123 b 369 725 56 562 146 725 b 666 391 591 725 666 566 b 661 309 666 371 665 334 m 377 619 b 239 390 268 619 241 519 l 508 390 b 377 619 511 528 485 619 "},"ē":{"ha":722,"x_min":0,"x_max":0,"o":"m 539 834 l 191 834 l 191 933 l 539 933 m 237 309 b 397 102 237 176 296 102 b 527 189 451 102 494 124 l 656 142 b 388 -14 597 25 498 -14 b 56 352 185 -14 56 123 b 369 725 56 562 146 725 b 666 391 591 725 666 566 b 661 309 666 371 665 334 m 377 619 b 239 390 268 619 241 519 l 508 390 b 377 619 511 528 485 619 "},"ę":{"ha":722,"x_min":0,"x_max":0,"o":"m 237 309 b 397 102 237 176 296 102 b 527 189 451 102 494 124 l 656 142 b 581 46 635 101 610 69 l 586 45 b 464 -117 498 -18 464 -62 b 515 -184 464 -165 488 -184 b 585 -133 538 -184 566 -167 l 646 -178 b 510 -264 618 -238 569 -264 b 376 -136 433 -264 376 -216 b 439 -10 376 -90 398 -47 b 388 -14 423 -13 406 -14 b 56 352 185 -14 56 123 b 369 725 56 562 146 725 b 666 391 591 725 666 566 b 661 309 666 371 665 334 m 377 619 b 239 390 268 619 241 519 l 508 390 b 377 619 511 528 485 619 "},"ẽ":{"ha":722,"x_min":0,"x_max":0,"o":"m 460 777 b 252 871 363 777 339 871 b 182 781 209 871 183 836 l 134 781 b 267 960 134 907 188 960 b 474 868 366 960 390 868 b 542 959 521 868 542 905 l 593 959 b 460 777 593 833 543 777 m 237 309 b 397 102 237 176 296 102 b 527 189 451 102 494 124 l 656 142 b 388 -14 597 25 498 -14 b 56 352 185 -14 56 123 b 369 725 56 562 146 725 b 666 391 591 725 666 566 b 661 309 666 371 665 334 m 377 619 b 239 390 268 619 241 519 l 508 390 b 377 619 511 528 485 619 "},"f":{"ha":440,"x_min":0,"x_max":0,"o":"m 120 621 l 14 621 l 14 711 l 121 711 l 121 755 b 343 958 121 877 184 958 l 432 958 l 432 850 l 380 850 b 277 755 309 850 277 825 l 277 711 l 432 711 l 432 621 l 301 621 l 301 0 l 120 0 "},"g":{"ha":760,"x_min":0,"x_max":0,"o":"m 736 597 l 574 657 b 644 488 621 614 644 555 b 354 270 644 334 520 270 b 258 278 319 270 288 273 b 212 203 228 257 212 229 b 438 137 212 140 311 137 l 522 137 b 734 -21 679 137 734 67 b 344 -258 734 -136 631 -258 b 33 -123 106 -258 33 -188 b 201 3 33 -68 77 -19 b 72 139 125 21 72 60 b 182 301 72 209 113 264 b 64 485 108 334 64 395 b 357 726 64 608 145 726 b 473 711 400 726 439 721 l 736 711 m 364 344 b 477 489 427 344 477 389 b 362 645 477 566 447 645 b 246 496 296 645 246 598 b 364 344 246 428 277 344 m 404 -14 b 148 -100 279 -14 148 -19 b 359 -190 148 -145 180 -190 b 603 -77 523 -190 603 -153 b 464 -14 603 -31 553 -14 "},"ğ":{"ha":760,"x_min":0,"x_max":0,"o":"m 359 774 b 170 958 237 774 170 840 l 270 958 b 359 845 270 876 313 845 b 453 958 410 845 453 879 l 556 958 b 359 774 556 833 484 774 m 736 597 l 574 657 b 644 488 621 614 644 555 b 354 270 644 334 520 270 b 258 278 319 270 288 273 b 212 203 228 257 212 229 b 438 137 212 140 311 137 l 522 137 b 734 -21 679 137 734 67 b 344 -258 734 -136 631 -258 b 33 -123 106 -258 33 -188 b 201 3 33 -68 77 -19 b 72 139 125 21 72 60 b 182 301 72 209 113 264 b 64 485 108 334 64 395 b 357 726 64 608 145 726 b 473 711 400 726 439 721 l 736 711 m 364 344 b 477 489 427 344 477 389 b 362 645 477 566 447 645 b 246 496 296 645 246 598 b 364 344 246 428 277 344 m 404 -14 b 148 -100 279 -14 148 -19 b 359 -190 148 -145 180 -190 b 603 -77 523 -190 603 -153 b 464 -14 603 -31 553 -14 "},"ǧ":{"ha":760,"x_min":0,"x_max":0,"o":"m 307 782 l 161 959 l 285 959 l 358 821 l 433 959 l 557 959 l 410 782 m 736 597 l 574 657 b 644 488 621 614 644 555 b 354 270 644 334 520 270 b 258 278 319 270 288 273 b 212 203 228 257 212 229 b 438 137 212 140 311 137 l 522 137 b 734 -21 679 137 734 67 b 344 -258 734 -136 631 -258 b 33 -123 106 -258 33 -188 b 201 3 33 -68 77 -19 b 72 139 125 21 72 60 b 182 301 72 209 113 264 b 64 485 108 334 64 395 b 357 726 64 608 145 726 b 473 711 400 726 439 721 l 736 711 m 364 344 b 477 489 427 344 477 389 b 362 645 477 566 447 645 b 246 496 296 645 246 598 b 364 344 246 428 277 344 m 404 -14 b 148 -100 279 -14 148 -19 b 359 -190 148 -145 180 -190 b 603 -77 523 -190 603 -153 b 464 -14 603 -31 553 -14 "},"ĝ":{"ha":760,"x_min":0,"x_max":0,"o":"m 286 779 l 161 779 l 308 959 l 410 959 l 557 779 l 433 779 l 359 921 m 736 597 l 574 657 b 644 488 621 614 644 555 b 354 270 644 334 520 270 b 258 278 319 270 288 273 b 212 203 228 257 212 229 b 438 137 212 140 311 137 l 522 137 b 734 -21 679 137 734 67 b 344 -258 734 -136 631 -258 b 33 -123 106 -258 33 -188 b 201 3 33 -68 77 -19 b 72 139 125 21 72 60 b 182 301 72 209 113 264 b 64 485 108 334 64 395 b 357 726 64 608 145 726 b 473 711 400 726 439 721 l 736 711 m 364 344 b 477 489 427 344 477 389 b 362 645 477 566 447 645 b 246 496 296 645 246 598 b 364 344 246 428 277 344 m 404 -14 b 148 -100 279 -14 148 -19 b 359 -190 148 -145 180 -190 b 603 -77 523 -190 603 -153 b 464 -14 603 -31 553 -14 "},"ģ":{"ha":760,"x_min":0,"x_max":0,"o":"m 442 793 l 265 793 l 474 977 l 527 977 m 736 597 l 574 657 b 644 488 621 614 644 555 b 354 270 644 334 520 270 b 258 278 319 270 288 273 b 212 203 228 257 212 229 b 438 137 212 140 311 137 l 522 137 b 734 -21 679 137 734 67 b 344 -258 734 -136 631 -258 b 33 -123 106 -258 33 -188 b 201 3 33 -68 77 -19 b 72 139 125 21 72 60 b 182 301 72 209 113 264 b 64 485 108 334 64 395 b 357 726 64 608 145 726 b 473 711 400 726 439 721 l 736 711 m 364 344 b 477 489 427 344 477 389 b 362 645 477 566 447 645 b 246 496 296 645 246 598 b 364 344 246 428 277 344 m 404 -14 b 148 -100 279 -14 148 -19 b 359 -190 148 -145 180 -190 b 603 -77 523 -190 603 -153 b 464 -14 603 -31 553 -14 "},"ġ":{"ha":760,"x_min":0,"x_max":0,"o":"m 427 806 l 290 806 l 290 959 l 427 959 m 736 597 l 574 657 b 644 488 621 614 644 555 b 354 270 644 334 520 270 b 258 278 319 270 288 273 b 212 203 228 257 212 229 b 438 137 212 140 311 137 l 522 137 b 734 -21 679 137 734 67 b 344 -258 734 -136 631 -258 b 33 -123 106 -258 33 -188 b 201 3 33 -68 77 -19 b 72 139 125 21 72 60 b 182 301 72 209 113 264 b 64 485 108 334 64 395 b 357 726 64 608 145 726 b 473 711 400 726 439 721 l 736 711 m 364 344 b 477 489 427 344 477 389 b 362 645 477 566 447 645 b 246 496 296 645 246 598 b 364 344 246 428 277 344 m 404 -14 b 148 -100 279 -14 148 -19 b 359 -190 148 -145 180 -190 b 603 -77 523 -190 603 -153 b 464 -14 603 -31 553 -14 "},"h":{"ha":792,"x_min":0,"x_max":0,"o":"m 100 958 l 281 958 l 281 585 l 290 585 b 506 725 321 651 394 725 b 703 481 626 725 703 646 l 703 0 l 522 0 l 522 454 b 414 619 522 587 479 619 b 281 425 337 619 281 563 l 281 0 l 100 0 "},"ħ":{"ha":792,"x_min":0,"x_max":0,"o":"m 506 725 b 703 481 626 725 703 646 l 703 0 l 522 0 l 522 454 b 414 619 522 587 479 619 b 281 425 337 619 281 563 l 281 0 l 100 0 l 100 781 l 13 781 l 13 853 l 100 853 l 100 958 l 281 958 l 281 853 l 427 853 l 427 781 l 281 781 l 281 585 l 290 585 b 506 725 321 651 394 725 "},"ĥ":{"ha":792,"x_min":0,"x_max":0,"o":"m 439 959 l 541 959 l 689 779 l 564 779 l 490 921 l 417 779 l 292 779 m 100 958 l 281 958 l 281 585 l 290 585 b 506 725 321 651 394 725 b 703 481 626 725 703 646 l 703 0 l 522 0 l 522 454 b 414 619 522 587 479 619 b 281 425 337 619 281 563 l 281 0 l 100 0 "},"ḥ":{"ha":792,"x_min":0,"x_max":0,"o":"m 100 958 l 281 958 l 281 585 l 290 585 b 506 725 321 651 394 725 b 703 481 626 725 703 646 l 703 0 l 522 0 l 522 454 b 414 619 522 587 479 619 b 281 425 337 619 281 563 l 281 0 l 100 0 m 332 -87 l 468 -87 l 468 -240 l 332 -240 "},"i":{"ha":381,"x_min":0,"x_max":0,"o":"m 100 958 l 281 958 l 281 821 l 100 821 m 100 711 l 281 711 l 281 0 l 100 0 "},"ı":{"ha":380,"x_min":0,"x_max":0,"o":"m 100 711 l 281 711 l 281 0 l 100 0 "},"í":{"ha":380,"x_min":0,"x_max":0,"o":"m 292 959 l 478 959 l 216 794 l 154 794 m 100 711 l 281 711 l 281 0 l 100 0 "},"ĭ":{"ha":380,"x_min":0,"x_max":0,"o":"m 191 774 b 1 958 68 774 1 840 l 102 958 b 191 845 102 876 144 845 b 285 958 241 845 285 879 l 388 958 b 191 774 388 833 315 774 m 100 711 l 281 711 l 281 0 l 100 0 "},"ǐ":{"ha":380,"x_min":0,"x_max":0,"o":"m -7 959 l 117 959 l 190 821 l 264 959 l 389 959 l 241 782 l 139 782 m 100 711 l 281 711 l 281 0 l 100 0 "},"î":{"ha":380,"x_min":0,"x_max":0,"o":"m 140 959 l 241 959 l 389 779 l 264 779 l 191 921 l 117 779 l -7 779 m 100 711 l 281 711 l 281 0 l 100 0 "},"ï":{"ha":380,"x_min":0,"x_max":0,"o":"m 3 959 l 142 959 l 142 804 l 3 804 m 240 959 l 377 959 l 377 804 l 240 804 m 100 711 l 281 711 l 281 0 l 100 0 "},"ị":{"ha":381,"x_min":0,"x_max":0,"o":"m 100 958 l 281 958 l 281 821 l 100 821 m 100 711 l 281 711 l 281 0 l 100 0 m 123 -87 l 259 -87 l 259 -240 l 123 -240 "},"ì":{"ha":380,"x_min":0,"x_max":0,"o":"m -94 959 l 93 959 l 230 793 l 165 793 m 100 711 l 281 711 l 281 0 l 100 0 "},"ỉ":{"ha":380,"x_min":0,"x_max":0,"o":"m 109 796 l 170 824 b 243 908 226 850 243 879 b 189 961 243 935 227 961 b 121 897 162 961 139 943 l 53 952 b 188 1026 79 996 127 1026 b 328 892 265 1026 328 975 b 169 777 328 823 273 772 l 207 743 l 136 743 m 100 711 l 281 711 l 281 0 l 100 0 "},"ĳ":{"ha":766,"x_min":0,"x_max":0,"o":"m 100 958 l 281 958 l 281 821 l 100 821 m 479 958 l 664 958 l 664 821 l 479 821 m 100 711 l 281 711 l 281 0 l 100 0 m 460 -231 b 333 -212 422 -231 370 -224 l 370 -123 b 481 -10 449 -160 481 -119 l 481 711 l 663 711 l 663 21 b 460 -231 663 -163 578 -231 "},"ī":{"ha":380,"x_min":0,"x_max":0,"o":"m 18 933 l 367 933 l 367 834 l 18 834 m 100 711 l 281 711 l 281 0 l 100 0 "},"į":{"ha":380,"x_min":0,"x_max":0,"o":"m 258 806 l 122 806 l 122 959 l 258 959 m 344 -223 b 208 -309 315 -283 267 -309 b 74 -181 130 -309 74 -260 b 224 0 74 -109 125 -47 l 100 0 l 100 711 l 281 711 l 281 1 l 283 0 b 161 -162 195 -62 161 -106 b 212 -229 161 -210 186 -229 b 282 -178 236 -229 263 -212 "},"ĩ":{"ha":380,"x_min":0,"x_max":0,"o":"m 288 777 b 79 871 191 777 167 871 b 10 781 37 871 11 836 l -39 781 b 94 960 -39 907 16 960 b 302 868 193 960 218 868 b 370 959 349 868 370 905 l 421 959 b 288 777 421 833 371 777 m 100 711 l 281 711 l 281 0 l 100 0 "},"j":{"ha":385,"x_min":0,"x_max":0,"o":"m 98 958 l 283 958 l 283 821 l 98 821 m 79 -231 b -48 -212 41 -231 -11 -224 l -11 -123 b 100 -10 68 -160 100 -119 l 100 711 l 282 711 l 282 21 b 79 -231 282 -163 197 -231 "},"ȷ":{"ha":382,"x_min":0,"x_max":0,"o":"m 79 -231 b -48 -212 41 -231 -11 -224 l -11 -123 b 100 -10 68 -160 100 -119 l 100 711 l 282 711 l 282 21 b 79 -231 282 -163 197 -231 "},"ĵ":{"ha":382,"x_min":0,"x_max":0,"o":"m 130 959 l 231 959 l 379 779 l 254 779 l 180 921 l 107 779 l -18 779 m 79 -231 b -48 -212 41 -231 -11 -224 l -11 -123 b 100 -10 68 -160 100 -119 l 100 711 l 282 711 l 282 21 b 79 -231 282 -163 197 -231 "},"k":{"ha":735,"x_min":0,"x_max":0,"o":"m 544 0 l 356 384 l 281 340 l 281 0 l 100 0 l 100 958 l 281 958 l 281 426 l 530 711 l 718 711 l 486 480 l 730 0 "},"ķ":{"ha":735,"x_min":0,"x_max":0,"o":"m 730 0 l 544 0 l 356 384 l 281 340 l 281 0 l 100 0 l 100 958 l 281 958 l 281 426 l 530 711 l 718 711 l 486 480 m 313 -92 l 490 -92 l 281 -296 l 229 -296 "},"ĸ":{"ha":740,"x_min":0,"x_max":0,"o":"m 549 0 l 383 376 l 286 279 l 286 0 l 100 0 l 100 711 l 286 711 l 286 418 l 536 711 l 715 711 l 496 490 l 736 0 "},"l":{"ha":380,"x_min":0,"x_max":0,"o":"m 100 958 l 281 958 l 281 0 l 100 0 "},"ĺ":{"ha":380,"x_min":0,"x_max":0,"o":"m 290 1206 l 476 1206 l 214 1041 l 152 1041 m 100 958 l 281 958 l 281 0 l 100 0 "},"ľ":{"ha":528,"x_min":0,"x_max":0,"o":"m 100 958 l 281 958 l 281 0 l 100 0 m 531 751 l 361 751 l 361 958 l 585 958 l 585 751 l 492 488 l 358 488 "},"ļ":{"ha":380,"x_min":0,"x_max":0,"o":"m 100 958 l 281 958 l 281 0 l 100 0 m 106 -92 l 283 -92 l 75 -296 l 22 -296 "},"ŀ":{"ha":623,"x_min":0,"x_max":0,"o":"m 100 958 l 281 958 l 281 0 l 100 0 m 476 336 b 342 459 399 336 342 388 b 476 585 342 533 399 585 b 601 459 548 585 601 533 b 476 336 601 388 548 336 "},"ḷ":{"ha":380,"x_min":0,"x_max":0,"o":"m 100 958 l 281 958 l 281 0 l 100 0 m 121 -87 l 257 -87 l 257 -240 l 121 -240 "},"ǉ":{"ha":765,"x_min":0,"x_max":0,"o":"m 100 958 l 281 958 l 281 0 l 100 0 m 478 958 l 663 958 l 663 821 l 478 821 m 459 -231 b 332 -212 422 -231 370 -224 l 370 -123 b 481 -10 448 -160 481 -119 l 481 711 l 663 711 l 663 21 b 459 -231 663 -163 577 -231 "},"ł":{"ha":380,"x_min":0,"x_max":0,"o":"m 380 585 l 281 503 l 281 0 l 100 0 l 100 355 l 0 274 l 0 378 l 100 463 l 100 958 l 281 958 l 281 616 l 380 701 "},"m":{"ha":1168,"x_min":0,"x_max":0,"o":"m 100 711 l 275 711 l 281 588 l 286 588 b 475 725 329 671 384 725 b 653 547 559 725 628 697 l 659 547 b 880 725 696 658 766 726 b 1080 506 1000 724 1080 653 l 1080 0 l 898 0 l 898 465 b 793 620 898 576 861 620 b 677 420 714 620 677 557 l 677 0 l 499 0 l 499 454 b 398 620 499 578 467 620 b 281 420 319 620 281 556 l 281 0 l 100 0 "},"n":{"ha":792,"x_min":0,"x_max":0,"o":"m 100 711 l 275 711 l 281 579 l 290 579 b 490 725 326 656 392 725 b 703 481 615 725 703 630 l 703 0 l 522 0 l 522 477 b 414 619 522 580 479 619 b 281 449 338 619 281 557 l 281 0 l 100 0 "},"ń":{"ha":792,"x_min":0,"x_max":0,"o":"m 498 962 l 685 962 l 422 797 l 361 797 m 100 711 l 275 711 l 281 579 l 290 579 b 490 725 326 656 392 725 b 703 481 615 725 703 630 l 703 0 l 522 0 l 522 477 b 414 619 522 580 479 619 b 281 449 338 619 281 557 l 281 0 l 100 0 "},"ŉ":{"ha":996,"x_min":0,"x_max":0,"o":"m 190 751 l 20 751 l 20 958 l 244 958 l 244 751 l 151 488 l 16 488 m 294 711 l 469 711 l 475 579 l 484 579 b 684 725 520 656 586 725 b 897 481 809 725 897 630 l 897 0 l 715 0 l 715 477 b 608 619 715 580 673 619 b 475 449 532 619 475 557 l 475 0 l 294 0 "},"ň":{"ha":792,"x_min":0,"x_max":0,"o":"m 199 962 l 323 962 l 397 824 l 471 962 l 596 962 l 448 785 l 346 785 m 100 711 l 275 711 l 281 579 l 290 579 b 490 725 326 656 392 725 b 703 481 615 725 703 630 l 703 0 l 522 0 l 522 477 b 414 619 522 580 479 619 b 281 449 338 619 281 557 l 281 0 l 100 0 "},"ņ":{"ha":792,"x_min":0,"x_max":0,"o":"m 100 711 l 275 711 l 281 579 l 290 579 b 490 725 326 656 392 725 b 703 481 615 725 703 630 l 703 0 l 522 0 l 522 477 b 414 619 522 580 479 619 b 281 449 338 619 281 557 l 281 0 l 100 0 m 317 -92 l 494 -92 l 286 -296 l 233 -296 "},"ṅ":{"ha":792,"x_min":0,"x_max":0,"o":"m 329 962 l 465 962 l 465 809 l 329 809 m 100 711 l 275 711 l 281 579 l 290 579 b 490 725 326 656 392 725 b 703 481 615 725 703 630 l 703 0 l 522 0 l 522 477 b 414 619 522 580 479 619 b 281 449 338 619 281 557 l 281 0 l 100 0 "},"ṇ":{"ha":792,"x_min":0,"x_max":0,"o":"m 100 711 l 275 711 l 281 579 l 290 579 b 490 725 326 656 392 725 b 703 481 615 725 703 630 l 703 0 l 522 0 l 522 477 b 414 619 522 580 479 619 b 281 449 338 619 281 557 l 281 0 l 100 0 m 332 -87 l 468 -87 l 468 -240 l 332 -240 "},"ŋ":{"ha":783,"x_min":0,"x_max":0,"o":"m 99 677 l 264 677 l 270 528 l 280 528 b 473 689 323 653 404 689 b 702 408 640 689 702 545 l 702 17 b 483 -196 702 -51 700 -196 l 396 -196 l 396 -105 l 425 -105 b 520 14 519 -105 520 -40 l 520 385 b 412 583 520 512 494 583 b 280 374 335 583 280 512 l 280 0 l 99 0 "},"ɲ":{"ha":802,"x_min":0,"x_max":0,"o":"m -16 -105 l 12 -105 b 109 14 107 -105 109 -40 l 109 677 l 273 677 l 280 528 l 290 528 b 483 689 333 653 414 689 b 712 408 650 689 712 545 l 712 0 l 530 0 l 530 385 b 422 583 530 512 505 583 b 290 374 345 583 290 512 l 290 17 b 71 -196 290 -51 288 -196 l -16 -196 "},"ǌ":{"ha":1177,"x_min":0,"x_max":0,"o":"m 890 958 l 1075 958 l 1075 821 l 890 821 m 100 711 l 275 711 l 281 579 l 290 579 b 490 725 326 656 392 725 b 703 481 615 725 703 630 l 703 0 l 522 0 l 522 477 b 414 619 522 580 479 619 b 281 449 338 619 281 557 l 281 0 l 100 0 m 871 -231 b 744 -212 833 -231 781 -224 l 781 -123 b 892 -10 860 -160 892 -119 l 892 711 l 1074 711 l 1074 21 b 871 -231 1074 -163 989 -231 "},"ñ":{"ha":792,"x_min":0,"x_max":0,"o":"m 495 779 b 286 874 397 779 374 874 b 217 784 243 874 218 839 l 168 784 b 301 963 168 910 222 963 b 509 871 400 963 425 871 b 576 962 555 871 576 908 l 628 962 b 495 779 628 836 578 779 m 100 711 l 275 711 l 281 579 l 290 579 b 490 725 326 656 392 725 b 703 481 615 725 703 630 l 703 0 l 522 0 l 522 477 b 414 619 522 580 479 619 b 281 449 338 619 281 557 l 281 0 l 100 0 "},"o":{"ha":753,"x_min":0,"x_max":0,"o":"m 377 -16 b 56 353 183 -16 56 100 b 377 725 56 612 183 725 b 697 353 572 725 697 612 b 377 -16 697 100 572 -16 m 376 95 b 530 355 469 95 530 168 b 376 616 530 547 469 616 b 226 355 286 616 226 547 b 376 95 226 168 286 95 "},"ó":{"ha":753,"x_min":0,"x_max":0,"o":"m 477 959 l 664 959 l 401 794 l 340 794 m 377 -16 b 56 353 183 -16 56 100 b 377 725 56 612 183 725 b 697 353 572 725 697 612 b 377 -16 697 100 572 -16 m 376 95 b 530 355 469 95 530 168 b 376 616 530 547 469 616 b 226 355 286 616 226 547 b 376 95 226 168 286 95 "},"ŏ":{"ha":753,"x_min":0,"x_max":0,"o":"m 377 774 b 187 958 254 774 187 840 l 288 958 b 377 845 288 876 330 845 b 471 958 427 845 471 879 l 574 958 b 377 774 574 833 501 774 m 377 -16 b 56 353 183 -16 56 100 b 377 725 56 612 183 725 b 697 353 572 725 697 612 b 377 -16 697 100 572 -16 m 376 95 b 530 355 469 95 530 168 b 376 616 530 547 469 616 b 226 355 286 616 226 547 b 376 95 226 168 286 95 "},"ǒ":{"ha":753,"x_min":0,"x_max":0,"o":"m 178 959 l 302 959 l 376 821 l 450 959 l 575 959 l 427 782 l 325 782 m 377 -16 b 56 353 183 -16 56 100 b 377 725 56 612 183 725 b 697 353 572 725 697 612 b 377 -16 697 100 572 -16 m 376 95 b 530 355 469 95 530 168 b 376 616 530 547 469 616 b 226 355 286 616 226 547 b 376 95 226 168 286 95 "},"ô":{"ha":753,"x_min":0,"x_max":0,"o":"m 326 959 l 427 959 l 575 779 l 450 779 l 376 921 l 303 779 l 178 779 m 377 -16 b 56 353 183 -16 56 100 b 377 725 56 612 183 725 b 697 353 572 725 697 612 b 377 -16 697 100 572 -16 m 376 95 b 530 355 469 95 530 168 b 376 616 530 547 469 616 b 226 355 286 616 226 547 b 376 95 226 168 286 95 "},"ố":{"ha":753,"x_min":0,"x_max":0,"o":"m 479 1204 l 665 1204 l 403 1039 l 341 1039 m 326 959 l 427 959 l 575 779 l 450 779 l 376 921 l 303 779 l 178 779 m 377 -16 b 56 353 183 -16 56 100 b 377 725 56 612 183 725 b 697 353 572 725 697 612 b 377 -16 697 100 572 -16 m 376 95 b 530 355 469 95 530 168 b 376 616 530 547 469 616 b 226 355 286 616 226 547 b 376 95 226 168 286 95 "},"ộ":{"ha":753,"x_min":0,"x_max":0,"o":"m 326 959 l 427 959 l 575 779 l 450 779 l 376 921 l 303 779 l 178 779 m 377 -16 b 56 353 183 -16 56 100 b 377 725 56 612 183 725 b 697 353 572 725 697 612 b 377 -16 697 100 572 -16 m 376 95 b 530 355 469 95 530 168 b 376 616 530 547 469 616 b 226 355 286 616 226 547 b 376 95 226 168 286 95 m 309 -87 l 445 -87 l 445 -240 l 309 -240 "},"ồ":{"ha":753,"x_min":0,"x_max":0,"o":"m 93 1204 l 280 1204 l 417 1038 l 352 1038 m 326 959 l 427 959 l 575 779 l 450 779 l 376 921 l 303 779 l 178 779 m 377 -16 b 56 353 183 -16 56 100 b 377 725 56 612 183 725 b 697 353 572 725 697 612 b 377 -16 697 100 572 -16 m 376 95 b 530 355 469 95 530 168 b 376 616 530 547 469 616 b 226 355 286 616 226 547 b 376 95 226 168 286 95 "},"ổ":{"ha":753,"x_min":0,"x_max":0,"o":"m 296 1041 l 357 1069 b 431 1153 413 1095 431 1124 b 376 1206 431 1180 414 1206 b 309 1142 349 1206 326 1187 l 240 1197 b 375 1271 266 1240 314 1271 b 515 1137 452 1271 515 1220 b 356 1022 515 1068 460 1017 l 394 987 l 323 987 m 326 959 l 427 959 l 575 779 l 450 779 l 376 921 l 303 779 l 178 779 m 377 -16 b 56 353 183 -16 56 100 b 377 725 56 612 183 725 b 697 353 572 725 697 612 b 377 -16 697 100 572 -16 m 376 95 b 530 355 469 95 530 168 b 376 616 530 547 469 616 b 226 355 286 616 226 547 b 376 95 226 168 286 95 "},"ỗ":{"ha":753,"x_min":0,"x_max":0,"o":"m 475 1021 b 267 1116 378 1021 354 1116 b 197 1026 224 1116 198 1081 l 149 1026 b 281 1205 149 1152 203 1205 b 489 1113 380 1205 405 1113 b 557 1204 536 1113 557 1150 l 608 1204 b 475 1021 608 1078 558 1021 m 326 959 l 427 959 l 575 779 l 450 779 l 376 921 l 303 779 l 178 779 m 377 -16 b 56 353 183 -16 56 100 b 377 725 56 612 183 725 b 697 353 572 725 697 612 b 377 -16 697 100 572 -16 m 376 95 b 530 355 469 95 530 168 b 376 616 530 547 469 616 b 226 355 286 616 226 547 b 376 95 226 168 286 95 "},"ö":{"ha":753,"x_min":0,"x_max":0,"o":"m 189 959 l 328 959 l 328 804 l 189 804 m 426 959 l 563 959 l 563 804 l 426 804 m 377 -16 b 56 353 183 -16 56 100 b 377 725 56 612 183 725 b 697 353 572 725 697 612 b 377 -16 697 100 572 -16 m 376 95 b 530 355 469 95 530 168 b 376 616 530 547 469 616 b 226 355 286 616 226 547 b 376 95 226 168 286 95 "},"ọ":{"ha":753,"x_min":0,"x_max":0,"o":"m 377 -16 b 56 353 183 -16 56 100 b 377 725 56 612 183 725 b 697 353 572 725 697 612 b 377 -16 697 100 572 -16 m 376 95 b 530 355 469 95 530 168 b 376 616 530 547 469 616 b 226 355 286 616 226 547 b 376 95 226 168 286 95 m 309 -87 l 445 -87 l 445 -240 l 309 -240 "},"ò":{"ha":753,"x_min":0,"x_max":0,"o":"m 92 959 l 279 959 l 416 793 l 351 793 m 377 -16 b 56 353 183 -16 56 100 b 377 725 56 612 183 725 b 697 353 572 725 697 612 b 377 -16 697 100 572 -16 m 376 95 b 530 355 469 95 530 168 b 376 616 530 547 469 616 b 226 355 286 616 226 547 b 376 95 226 168 286 95 "},"ỏ":{"ha":753,"x_min":0,"x_max":0,"o":"m 294 796 l 356 824 b 429 908 412 850 429 879 b 375 961 429 935 413 961 b 307 897 348 961 325 943 l 239 952 b 374 1026 264 996 313 1026 b 514 892 451 1026 514 975 b 355 777 514 823 458 772 l 393 743 l 322 743 m 377 -16 b 56 353 183 -16 56 100 b 377 725 56 612 183 725 b 697 353 572 725 697 612 b 377 -16 697 100 572 -16 m 376 95 b 530 355 469 95 530 168 b 376 616 530 547 469 616 b 226 355 286 616 226 547 b 376 95 226 168 286 95 "},"ơ":{"ha":753,"x_min":0,"x_max":0,"o":"m 774 784 l 774 669 b 679 507 774 582 741 530 b 697 353 691 463 697 412 b 377 -16 697 100 572 -16 b 56 353 183 -16 56 100 b 377 725 56 612 183 725 b 646 586 498 725 592 681 b 671 669 662 603 671 630 l 671 784 m 376 95 b 530 355 469 95 530 168 b 376 616 530 547 469 616 b 226 355 286 616 226 547 b 376 95 226 168 286 95 "},"ớ":{"ha":753,"x_min":0,"x_max":0,"o":"m 401 794 l 340 794 l 477 959 l 664 959 m 774 784 l 774 669 b 679 507 774 582 741 530 b 697 353 691 463 697 412 b 377 -16 697 100 572 -16 b 56 353 183 -16 56 100 b 377 725 56 612 183 725 b 646 586 498 725 592 681 b 671 669 662 603 671 630 l 671 784 m 376 95 b 530 355 469 95 530 168 b 376 616 530 547 469 616 b 226 355 286 616 226 547 b 376 95 226 168 286 95 "},"ợ":{"ha":753,"x_min":0,"x_max":0,"o":"m 774 784 l 774 669 b 679 507 774 582 741 530 b 697 353 691 463 697 412 b 377 -16 697 100 572 -16 b 56 353 183 -16 56 100 b 377 725 56 612 183 725 b 646 586 498 725 592 681 b 671 669 662 603 671 630 l 671 784 m 376 95 b 530 355 469 95 530 168 b 376 616 530 547 469 616 b 226 355 286 616 226 547 b 376 95 226 168 286 95 m 309 -87 l 445 -87 l 445 -240 l 309 -240 "},"ờ":{"ha":753,"x_min":0,"x_max":0,"o":"m 351 793 l 92 959 l 279 959 l 416 793 m 774 784 l 774 669 b 679 507 774 582 741 530 b 697 353 691 463 697 412 b 377 -16 697 100 572 -16 b 56 353 183 -16 56 100 b 377 725 56 612 183 725 b 646 586 498 725 592 681 b 671 669 662 603 671 630 l 671 784 m 376 95 b 530 355 469 95 530 168 b 376 616 530 547 469 616 b 226 355 286 616 226 547 b 376 95 226 168 286 95 "},"ở":{"ha":753,"x_min":0,"x_max":0,"o":"m 375 961 b 307 897 348 961 325 943 l 239 952 b 374 1026 264 996 313 1026 b 514 892 451 1026 514 975 b 355 777 514 823 458 772 l 393 743 l 322 743 l 294 796 l 356 824 b 429 908 412 850 429 879 b 375 961 429 935 413 961 m 774 784 l 774 669 b 679 507 774 582 741 530 b 697 353 691 463 697 412 b 377 -16 697 100 572 -16 b 56 353 183 -16 56 100 b 377 725 56 612 183 725 b 646 586 498 725 592 681 b 671 669 662 603 671 630 l 671 784 m 376 95 b 530 355 469 95 530 168 b 376 616 530 547 469 616 b 226 355 286 616 226 547 b 376 95 226 168 286 95 "},"ỡ":{"ha":753,"x_min":0,"x_max":0,"o":"m 265 871 b 196 781 222 871 197 836 l 147 781 b 280 960 147 907 201 960 b 488 868 379 960 404 868 b 555 959 534 868 555 905 l 607 959 b 474 777 607 833 557 777 b 265 871 376 777 353 871 m 774 784 l 774 669 b 679 507 774 582 741 530 b 697 353 691 463 697 412 b 377 -16 697 100 572 -16 b 56 353 183 -16 56 100 b 377 725 56 612 183 725 b 646 586 498 725 592 681 b 671 669 662 603 671 630 l 671 784 m 376 95 b 530 355 469 95 530 168 b 376 616 530 547 469 616 b 226 355 286 616 226 547 b 376 95 226 168 286 95 "},"ő":{"ha":753,"x_min":0,"x_max":0,"o":"m 349 959 l 497 959 l 296 787 l 227 787 m 581 959 l 754 959 l 526 787 l 458 787 m 377 -16 b 56 353 183 -16 56 100 b 377 725 56 612 183 725 b 697 353 572 725 697 612 b 377 -16 697 100 572 -16 m 376 95 b 530 355 469 95 530 168 b 376 616 530 547 469 616 b 226 355 286 616 226 547 b 376 95 226 168 286 95 "},"ō":{"ha":753,"x_min":0,"x_max":0,"o":"m 204 933 l 553 933 l 553 834 l 204 834 m 377 -16 b 56 353 183 -16 56 100 b 377 725 56 612 183 725 b 697 353 572 725 697 612 b 377 -16 697 100 572 -16 m 376 95 b 530 355 469 95 530 168 b 376 616 530 547 469 616 b 226 355 286 616 226 547 b 376 95 226 168 286 95 "},"ǫ":{"ha":753,"x_min":0,"x_max":0,"o":"m 484 -2 b 410 -127 431 -47 410 -83 b 460 -194 410 -175 434 -194 b 530 -143 484 -194 511 -177 l 592 -189 b 456 -275 564 -248 515 -275 b 322 -146 378 -275 322 -226 b 392 -16 322 -97 346 -54 l 377 -16 b 56 353 183 -16 56 100 b 377 725 56 612 183 725 b 697 353 572 725 697 612 b 484 -2 697 150 616 35 m 376 95 b 530 355 469 95 530 168 b 376 616 530 547 469 616 b 226 355 286 616 226 547 b 376 95 226 168 286 95 "},"ø":{"ha":753,"x_min":0,"x_max":0,"o":"m 637 601 b 697 353 676 541 697 460 b 377 -16 697 100 572 -16 b 159 58 289 -16 214 8 l 131 26 l 77 65 l 116 110 b 56 353 77 169 56 250 b 377 725 56 612 183 725 b 593 652 465 725 539 702 l 622 685 l 677 646 l 637 601 m 226 355 b 235 245 226 313 229 276 l 496 543 b 376 616 470 595 428 616 b 226 355 286 616 226 547 m 376 95 b 530 355 469 95 530 168 b 520 468 530 399 526 436 l 258 170 b 376 95 285 117 326 95 "},"ǿ":{"ha":753,"x_min":0,"x_max":0,"o":"m 401 794 l 340 794 l 477 959 l 664 959 m 637 601 b 697 353 676 541 697 460 b 377 -16 697 100 572 -16 b 159 58 289 -16 214 8 l 131 26 l 77 65 l 116 110 b 56 353 77 169 56 250 b 377 725 56 612 183 725 b 593 652 465 725 539 702 l 622 685 l 677 646 l 637 601 m 226 355 b 235 245 226 313 229 276 l 496 543 b 376 616 470 595 428 616 b 226 355 286 616 226 547 m 376 95 b 530 355 469 95 530 168 b 520 468 530 399 526 436 l 258 170 b 376 95 285 117 326 95 "},"õ":{"ha":753,"x_min":0,"x_max":0,"o":"m 474 777 b 265 871 376 777 353 871 b 196 781 222 871 197 836 l 147 781 b 280 960 147 907 201 960 b 488 868 379 960 404 868 b 555 959 534 868 555 905 l 607 959 b 474 777 607 833 557 777 m 377 -16 b 56 353 183 -16 56 100 b 377 725 56 612 183 725 b 697 353 572 725 697 612 b 377 -16 697 100 572 -16 m 376 95 b 530 355 469 95 530 168 b 376 616 530 547 469 616 b 226 355 286 616 226 547 b 376 95 226 168 286 95 "},"œ":{"ha":1203,"x_min":0,"x_max":0,"o":"m 718 309 b 878 102 718 176 777 102 b 1008 189 932 102 975 124 l 1137 142 b 869 -14 1078 25 979 -14 b 623 88 765 -14 680 22 b 377 -16 566 18 481 -16 b 56 353 183 -16 56 100 b 377 725 56 612 183 725 b 618 627 479 725 562 694 b 850 725 668 688 744 725 b 1147 391 1072 725 1147 566 b 1141 309 1147 371 1145 334 m 858 619 b 720 390 749 619 722 519 l 989 390 b 858 619 991 528 966 619 m 376 95 b 530 355 469 95 530 168 b 376 616 530 547 469 616 b 226 355 286 616 226 547 b 376 95 226 168 286 95 "},"p":{"ha":808,"x_min":0,"x_max":0,"o":"m 100 711 l 264 711 l 272 577 l 279 577 b 483 725 309 664 387 725 b 752 355 652 725 752 602 b 498 -16 752 108 650 -16 b 289 121 392 -16 321 33 l 283 121 l 283 -248 l 100 -248 m 421 84 b 574 358 511 84 574 151 b 421 625 574 562 511 625 b 271 358 334 625 271 549 b 421 84 271 163 334 84 "},"þ":{"ha":808,"x_min":0,"x_max":0,"o":"m 100 958 l 272 958 l 272 583 l 279 583 b 488 725 309 657 382 725 b 752 355 649 725 752 602 b 494 -16 752 108 648 -16 b 289 137 390 -16 309 58 l 283 137 l 283 -248 l 100 -248 m 424 108 b 574 358 517 108 574 176 b 424 625 574 562 516 625 b 271 358 324 625 271 549 b 424 108 271 187 324 108 "},"q":{"ha":808,"x_min":0,"x_max":0,"o":"m 526 -248 l 526 121 l 519 121 b 310 -16 487 33 416 -16 b 56 355 158 -16 56 108 b 326 725 56 602 157 725 b 529 577 421 725 499 664 l 536 577 l 544 711 l 709 711 l 709 -248 m 387 84 b 538 358 475 84 538 163 b 387 625 538 549 475 625 b 234 358 297 625 234 562 b 387 84 234 151 297 84 "},"r":{"ha":505,"x_min":0,"x_max":0,"o":"m 100 711 l 252 711 l 260 541 l 267 541 b 436 724 294 643 342 724 b 496 711 456 724 478 720 l 496 568 b 422 581 471 576 448 581 b 281 390 342 581 281 528 l 281 0 l 100 0 "},"ŕ":{"ha":505,"x_min":0,"x_max":0,"o":"m 399 959 l 585 959 l 323 794 l 261 794 m 100 711 l 252 711 l 260 541 l 267 541 b 436 724 294 643 342 724 b 496 711 456 724 478 720 l 496 568 b 422 581 471 576 448 581 b 281 390 342 581 281 528 l 281 0 l 100 0 "},"ř":{"ha":505,"x_min":0,"x_max":0,"o":"m 100 959 l 224 959 l 297 821 l 372 959 l 496 959 l 349 782 l 246 782 m 100 711 l 252 711 l 260 541 l 267 541 b 436 724 294 643 342 724 b 496 711 456 724 478 720 l 496 568 b 422 581 471 576 448 581 b 281 390 342 581 281 528 l 281 0 l 100 0 "},"ŗ":{"ha":505,"x_min":0,"x_max":0,"o":"m 100 711 l 252 711 l 260 541 l 267 541 b 436 724 294 643 342 724 b 496 711 456 724 478 720 l 496 568 b 422 581 471 576 448 581 b 281 390 342 581 281 528 l 281 0 l 100 0 m 111 -92 l 288 -92 l 79 -296 l 26 -296 "},"s":{"ha":659,"x_min":0,"x_max":0,"o":"m 332 -15 b 32 180 205 -15 73 35 l 166 231 b 324 87 187 132 254 87 b 438 183 387 87 438 113 b 258 319 438 259 351 280 b 70 525 166 357 70 404 b 336 726 70 663 197 726 b 610 560 436 726 570 692 l 470 517 b 335 640 446 604 401 640 b 220 553 267 640 220 613 b 406 414 220 480 313 450 b 604 197 513 372 604 317 b 332 -15 604 71 505 -15 "},"ś":{"ha":659,"x_min":0,"x_max":0,"o":"m 429 959 l 615 959 l 353 794 l 291 794 m 332 -15 b 32 180 205 -15 73 35 l 166 231 b 324 87 187 132 254 87 b 438 183 387 87 438 113 b 258 319 438 259 351 280 b 70 525 166 357 70 404 b 336 726 70 663 197 726 b 610 560 436 726 570 692 l 470 517 b 335 640 446 604 401 640 b 220 553 267 640 220 613 b 406 414 220 480 313 450 b 604 197 513 372 604 317 b 332 -15 604 71 505 -15 "},"š":{"ha":659,"x_min":0,"x_max":0,"o":"m 130 959 l 254 959 l 327 821 l 401 959 l 526 959 l 378 782 l 276 782 m 332 -15 b 32 180 205 -15 73 35 l 166 231 b 324 87 187 132 254 87 b 438 183 387 87 438 113 b 258 319 438 259 351 280 b 70 525 166 357 70 404 b 336 726 70 663 197 726 b 610 560 436 726 570 692 l 470 517 b 335 640 446 604 401 640 b 220 553 267 640 220 613 b 406 414 220 480 313 450 b 604 197 513 372 604 317 b 332 -15 604 71 505 -15 "},"ş":{"ha":659,"x_min":0,"x_max":0,"o":"m 406 414 b 604 197 513 372 604 317 b 378 -13 604 82 522 1 l 294 -90 b 454 -205 398 -85 454 -136 b 313 -339 454 -288 391 -339 b 178 -265 252 -339 204 -308 l 247 -210 b 315 -273 264 -255 288 -273 b 369 -220 353 -273 369 -248 b 307 -143 369 -191 349 -159 l 231 -113 l 285 -12 b 32 180 174 -1 68 53 l 166 231 b 324 87 187 132 254 87 b 438 183 387 87 438 113 b 258 319 438 259 351 280 b 70 525 166 357 70 404 b 336 726 70 663 197 726 b 610 560 436 726 570 692 l 470 517 b 335 640 446 604 401 640 b 220 553 267 640 220 613 b 406 414 220 480 313 450 "},"ș":{"ha":659,"x_min":0,"x_max":0,"o":"m 332 -15 b 32 180 205 -15 73 35 l 166 231 b 324 87 187 132 254 87 b 438 183 387 87 438 113 b 258 319 438 259 351 280 b 70 525 166 357 70 404 b 336 726 70 663 197 726 b 610 560 436 726 570 692 l 470 517 b 335 640 446 604 401 640 b 220 553 267 640 220 613 b 406 414 220 480 313 450 b 604 197 513 372 604 317 b 332 -15 604 71 505 -15 m 245 -92 l 422 -92 l 214 -296 l 161 -296 "},"ṣ":{"ha":659,"x_min":0,"x_max":0,"o":"m 332 -15 b 32 180 205 -15 73 35 l 166 231 b 324 87 187 132 254 87 b 438 183 387 87 438 113 b 258 319 438 259 351 280 b 70 525 166 357 70 404 b 336 726 70 663 197 726 b 610 560 436 726 570 692 l 470 517 b 335 640 446 604 401 640 b 220 553 267 640 220 613 b 406 414 220 480 313 450 b 604 197 513 372 604 317 b 332 -15 604 71 505 -15 m 260 -87 l 396 -87 l 396 -240 l 260 -240 "},"ß":{"ha":777,"x_min":0,"x_max":0,"o":"m 500 -12 b 378 5 456 -12 406 -4 l 378 129 b 466 111 415 116 446 111 b 576 224 518 111 576 141 b 397 515 576 369 397 385 b 532 744 397 600 532 638 b 412 853 532 814 482 853 b 283 677 326 853 283 798 l 283 0 l 100 0 l 100 665 b 393 972 100 869 218 972 b 686 749 551 972 686 893 b 555 517 686 618 555 580 b 743 212 555 426 743 405 b 500 -12 743 63 631 -12 "},"t":{"ha":473,"x_min":0,"x_max":0,"o":"m 110 621 l 22 621 l 22 711 l 58 711 b 167 875 134 711 144 744 l 291 875 l 291 711 l 443 711 l 443 621 l 291 621 l 291 261 b 374 107 291 147 302 107 b 437 115 391 107 413 111 l 437 0 b 312 -12 389 -7 348 -12 b 110 216 157 -12 110 61 "},"ŧ":{"ha":529,"x_min":0,"x_max":0,"o":"m 311 312 l 311 261 b 393 107 311 147 322 107 b 457 115 411 107 433 111 l 457 0 b 332 -12 409 -7 368 -12 b 130 216 176 -12 130 61 l 130 312 l 47 312 l 47 399 l 130 399 l 130 621 l 42 621 l 42 711 l 78 711 b 186 875 153 711 164 744 l 311 875 l 311 711 l 463 711 l 463 621 l 311 621 l 311 399 l 467 399 l 467 312 "},"ť":{"ha":473,"x_min":0,"x_max":0,"o":"m 528 1008 l 377 1008 l 377 1195 l 577 1195 l 577 1008 l 492 766 l 373 766 m 110 621 l 22 621 l 22 711 l 58 711 b 167 875 134 711 144 744 l 291 875 l 291 711 l 443 711 l 443 621 l 291 621 l 291 261 b 374 107 291 147 302 107 b 437 115 391 107 413 111 l 437 0 b 312 -12 389 -7 348 -12 b 110 216 157 -12 110 61 "},"ţ":{"ha":473,"x_min":0,"x_max":0,"o":"m 291 621 l 291 261 b 374 107 291 147 302 107 b 437 115 391 107 413 111 l 437 0 b 327 -12 395 -7 359 -10 l 241 -90 b 400 -205 345 -85 400 -136 b 260 -339 400 -288 337 -339 b 125 -265 199 -339 151 -308 l 193 -210 b 261 -273 211 -255 234 -273 b 315 -220 299 -273 315 -248 b 254 -143 315 -191 295 -159 l 178 -113 l 236 -4 b 110 216 141 18 110 90 l 110 621 l 22 621 l 22 711 l 58 711 b 167 875 134 711 144 744 l 291 875 l 291 711 l 443 711 l 443 621 "},"ț":{"ha":473,"x_min":0,"x_max":0,"o":"m 110 621 l 22 621 l 22 711 l 58 711 b 167 875 134 711 144 744 l 291 875 l 291 711 l 443 711 l 443 621 l 291 621 l 291 261 b 374 107 291 147 302 107 b 437 115 391 107 413 111 l 437 0 b 312 -12 389 -7 348 -12 b 110 216 157 -12 110 61 m 192 -92 l 369 -92 l 160 -296 l 107 -296 "},"ṭ":{"ha":473,"x_min":0,"x_max":0,"o":"m 110 621 l 22 621 l 22 711 l 58 711 b 167 875 134 711 144 744 l 291 875 l 291 711 l 443 711 l 443 621 l 291 621 l 291 261 b 374 107 291 147 302 107 b 437 115 391 107 413 111 l 437 0 b 312 -12 389 -7 348 -12 b 110 216 157 -12 110 61 m 206 -87 l 342 -87 l 342 -240 l 206 -240 "},"u":{"ha":792,"x_min":0,"x_max":0,"o":"m 692 0 l 517 0 l 510 132 l 502 132 b 302 -14 465 55 399 -14 b 89 230 177 -14 89 81 l 89 711 l 270 711 l 270 234 b 378 92 270 132 313 92 b 511 262 454 92 511 155 l 511 711 l 692 711 "},"ú":{"ha":792,"x_min":0,"x_max":0,"o":"m 483 959 l 669 959 l 407 794 l 345 794 m 692 0 l 517 0 l 510 132 l 502 132 b 302 -14 465 55 399 -14 b 89 230 177 -14 89 81 l 89 711 l 270 711 l 270 234 b 378 92 270 132 313 92 b 511 262 454 92 511 155 l 511 711 l 692 711 "},"ǔ":{"ha":792,"x_min":0,"x_max":0,"o":"m 184 959 l 308 959 l 381 821 l 456 959 l 581 959 l 433 782 l 330 782 m 692 0 l 517 0 l 510 132 l 502 132 b 302 -14 465 55 399 -14 b 89 230 177 -14 89 81 l 89 711 l 270 711 l 270 234 b 378 92 270 132 313 92 b 511 262 454 92 511 155 l 511 711 l 692 711 "},"û":{"ha":792,"x_min":0,"x_max":0,"o":"m 331 959 l 433 959 l 581 779 l 456 779 l 382 921 l 309 779 l 184 779 m 692 0 l 517 0 l 510 132 l 502 132 b 302 -14 465 55 399 -14 b 89 230 177 -14 89 81 l 89 711 l 270 711 l 270 234 b 378 92 270 132 313 92 b 511 262 454 92 511 155 l 511 711 l 692 711 "},"ü":{"ha":792,"x_min":0,"x_max":0,"o":"m 195 959 l 333 959 l 333 804 l 195 804 m 431 959 l 568 959 l 568 804 l 431 804 m 692 0 l 517 0 l 510 132 l 502 132 b 302 -14 465 55 399 -14 b 89 230 177 -14 89 81 l 89 711 l 270 711 l 270 234 b 378 92 270 132 313 92 b 511 262 454 92 511 155 l 511 711 l 692 711 "},"ǘ":{"ha":792,"x_min":0,"x_max":0,"o":"m 483 1206 l 669 1206 l 407 1042 l 345 1042 m 195 959 l 333 959 l 333 804 l 195 804 m 431 959 l 568 959 l 568 804 l 431 804 m 692 0 l 517 0 l 510 132 l 502 132 b 302 -14 465 55 399 -14 b 89 230 177 -14 89 81 l 89 711 l 270 711 l 270 234 b 378 92 270 132 313 92 b 511 262 454 92 511 155 l 511 711 l 692 711 "},"ǚ":{"ha":792,"x_min":0,"x_max":0,"o":"m 184 1206 l 308 1206 l 381 1069 l 456 1206 l 581 1206 l 433 1029 l 330 1029 m 195 959 l 333 959 l 333 804 l 195 804 m 431 959 l 568 959 l 568 804 l 431 804 m 692 0 l 517 0 l 510 132 l 502 132 b 302 -14 465 55 399 -14 b 89 230 177 -14 89 81 l 89 711 l 270 711 l 270 234 b 378 92 270 132 313 92 b 511 262 454 92 511 155 l 511 711 l 692 711 "},"ǜ":{"ha":792,"x_min":0,"x_max":0,"o":"m 97 1206 l 284 1206 l 421 1041 l 356 1041 m 195 959 l 333 959 l 333 804 l 195 804 m 431 959 l 568 959 l 568 804 l 431 804 m 692 0 l 517 0 l 510 132 l 502 132 b 302 -14 465 55 399 -14 b 89 230 177 -14 89 81 l 89 711 l 270 711 l 270 234 b 378 92 270 132 313 92 b 511 262 454 92 511 155 l 511 711 l 692 711 "},"ǖ":{"ha":792,"x_min":0,"x_max":0,"o":"m 210 1181 l 558 1181 l 558 1082 l 210 1082 m 195 959 l 333 959 l 333 804 l 195 804 m 431 959 l 568 959 l 568 804 l 431 804 m 692 0 l 517 0 l 510 132 l 502 132 b 302 -14 465 55 399 -14 b 89 230 177 -14 89 81 l 89 711 l 270 711 l 270 234 b 378 92 270 132 313 92 b 511 262 454 92 511 155 l 511 711 l 692 711 "},"ụ":{"ha":792,"x_min":0,"x_max":0,"o":"m 692 0 l 517 0 l 510 132 l 502 132 b 302 -14 465 55 399 -14 b 89 230 177 -14 89 81 l 89 711 l 270 711 l 270 234 b 378 92 270 132 313 92 b 511 262 454 92 511 155 l 511 711 l 692 711 m 314 -87 l 450 -87 l 450 -240 l 314 -240 "},"ù":{"ha":792,"x_min":0,"x_max":0,"o":"m 97 959 l 284 959 l 421 793 l 356 793 m 692 0 l 517 0 l 510 132 l 502 132 b 302 -14 465 55 399 -14 b 89 230 177 -14 89 81 l 89 711 l 270 711 l 270 234 b 378 92 270 132 313 92 b 511 262 454 92 511 155 l 511 711 l 692 711 "},"ủ":{"ha":792,"x_min":0,"x_max":0,"o":"m 300 796 l 361 824 b 435 908 417 850 435 879 b 380 961 435 935 418 961 b 313 897 353 961 330 943 l 244 952 b 379 1026 270 996 318 1026 b 519 892 456 1026 519 975 b 360 777 519 823 464 772 l 398 743 l 328 743 m 692 0 l 517 0 l 510 132 l 502 132 b 302 -14 465 55 399 -14 b 89 230 177 -14 89 81 l 89 711 l 270 711 l 270 234 b 378 92 270 132 313 92 b 511 262 454 92 511 155 l 511 711 l 692 711 "},"ư":{"ha":792,"x_min":0,"x_max":0,"o":"m 865 667 l 865 552 b 692 376 865 433 804 380 l 692 0 l 517 0 l 510 132 l 502 132 b 302 -14 465 55 399 -14 b 89 230 177 -14 89 81 l 89 711 l 270 711 l 270 234 b 378 92 270 132 313 92 b 511 262 454 92 511 155 l 511 711 l 692 711 l 692 446 b 762 552 734 452 762 483 l 762 667 "},"ứ":{"ha":792,"x_min":0,"x_max":0,"o":"m 407 794 l 345 794 l 483 959 l 669 959 m 865 667 l 865 552 b 692 376 865 433 804 380 l 692 0 l 517 0 l 510 132 l 502 132 b 302 -14 465 55 399 -14 b 89 230 177 -14 89 81 l 89 711 l 270 711 l 270 234 b 378 92 270 132 313 92 b 511 262 454 92 511 155 l 511 711 l 692 711 l 692 446 b 762 552 734 452 762 483 l 762 667 "},"ự":{"ha":792,"x_min":0,"x_max":0,"o":"m 865 667 l 865 552 b 692 376 865 433 804 380 l 692 0 l 517 0 l 510 132 l 502 132 b 302 -14 465 55 399 -14 b 89 230 177 -14 89 81 l 89 711 l 270 711 l 270 234 b 378 92 270 132 313 92 b 511 262 454 92 511 155 l 511 711 l 692 711 l 692 446 b 762 552 734 452 762 483 l 762 667 m 314 -87 l 450 -87 l 450 -240 l 314 -240 "},"ừ":{"ha":792,"x_min":0,"x_max":0,"o":"m 356 793 l 97 959 l 284 959 l 421 793 m 865 667 l 865 552 b 692 376 865 433 804 380 l 692 0 l 517 0 l 510 132 l 502 132 b 302 -14 465 55 399 -14 b 89 230 177 -14 89 81 l 89 711 l 270 711 l 270 234 b 378 92 270 132 313 92 b 511 262 454 92 511 155 l 511 711 l 692 711 l 692 446 b 762 552 734 452 762 483 l 762 667 "},"ử":{"ha":792,"x_min":0,"x_max":0,"o":"m 380 961 b 313 897 353 961 330 943 l 244 952 b 379 1026 270 996 318 1026 b 519 892 456 1026 519 975 b 360 777 519 823 464 772 l 398 743 l 328 743 l 300 796 l 361 824 b 435 908 417 850 435 879 b 380 961 435 935 418 961 m 865 667 l 865 552 b 692 376 865 433 804 380 l 692 0 l 517 0 l 510 132 l 502 132 b 302 -14 465 55 399 -14 b 89 230 177 -14 89 81 l 89 711 l 270 711 l 270 234 b 378 92 270 132 313 92 b 511 262 454 92 511 155 l 511 711 l 692 711 l 692 446 b 762 552 734 452 762 483 l 762 667 "},"ữ":{"ha":792,"x_min":0,"x_max":0,"o":"m 271 871 b 201 781 228 871 202 836 l 153 781 b 286 960 153 907 207 960 b 493 868 385 960 409 868 b 561 959 540 868 561 905 l 612 959 b 479 777 612 833 562 777 b 271 871 382 777 358 871 m 865 667 l 865 552 b 692 376 865 433 804 380 l 692 0 l 517 0 l 510 132 l 502 132 b 302 -14 465 55 399 -14 b 89 230 177 -14 89 81 l 89 711 l 270 711 l 270 234 b 378 92 270 132 313 92 b 511 262 454 92 511 155 l 511 711 l 692 711 l 692 446 b 762 552 734 452 762 483 l 762 667 "},"ű":{"ha":792,"x_min":0,"x_max":0,"o":"m 355 959 l 503 959 l 301 787 l 232 787 m 587 959 l 760 959 l 531 787 l 463 787 m 692 0 l 517 0 l 510 132 l 502 132 b 302 -14 465 55 399 -14 b 89 230 177 -14 89 81 l 89 711 l 270 711 l 270 234 b 378 92 270 132 313 92 b 511 262 454 92 511 155 l 511 711 l 692 711 "},"ū":{"ha":792,"x_min":0,"x_max":0,"o":"m 210 933 l 558 933 l 558 834 l 210 834 m 692 0 l 517 0 l 510 132 l 502 132 b 302 -14 465 55 399 -14 b 89 230 177 -14 89 81 l 89 711 l 270 711 l 270 234 b 378 92 270 132 313 92 b 511 262 454 92 511 155 l 511 711 l 692 711 "},"ų":{"ha":792,"x_min":0,"x_max":0,"o":"m 739 -223 b 602 -309 710 -283 661 -309 b 469 -181 525 -309 469 -260 b 619 0 469 -109 519 -47 l 517 0 l 510 132 l 502 132 b 302 -14 465 55 399 -14 b 89 230 177 -14 89 81 l 89 711 l 270 711 l 270 234 b 378 92 270 132 313 92 b 511 262 454 92 511 155 l 511 711 l 692 711 l 692 0 l 678 0 b 556 -162 590 -62 556 -106 b 607 -229 556 -210 581 -229 b 677 -178 631 -229 658 -212 "},"ů":{"ha":792,"x_min":0,"x_max":0,"o":"m 382 767 b 226 918 292 767 226 831 b 382 1066 226 1004 292 1066 b 539 918 473 1066 539 1004 b 382 767 539 831 473 767 m 382 846 b 457 917 427 846 457 876 b 382 987 457 958 427 987 b 307 917 338 987 307 958 b 382 846 307 876 338 846 m 692 0 l 517 0 l 510 132 l 502 132 b 302 -14 465 55 399 -14 b 89 230 177 -14 89 81 l 89 711 l 270 711 l 270 234 b 378 92 270 132 313 92 b 511 262 454 92 511 155 l 511 711 l 692 711 "},"ũ":{"ha":792,"x_min":0,"x_max":0,"o":"m 479 777 b 271 871 382 777 358 871 b 201 781 228 871 202 836 l 153 781 b 286 960 153 907 207 960 b 493 868 385 960 409 868 b 561 959 540 868 561 905 l 612 959 b 479 777 612 833 562 777 m 692 0 l 517 0 l 510 132 l 502 132 b 302 -14 465 55 399 -14 b 89 230 177 -14 89 81 l 89 711 l 270 711 l 270 234 b 378 92 270 132 313 92 b 511 262 454 92 511 155 l 511 711 l 692 711 "},"v":{"ha":673,"x_min":0,"x_max":0,"o":"m 663 711 l 450 0 l 222 0 l 11 711 l 205 711 l 286 323 l 338 71 l 389 323 l 470 711 "},"w":{"ha":1030,"x_min":0,"x_max":0,"o":"m 1002 711 l 857 0 l 621 0 l 513 511 l 408 -3 l 173 -3 l 29 711 l 220 711 l 300 68 l 437 711 l 608 711 l 744 64 l 827 711 "},"ẃ":{"ha":1030,"x_min":0,"x_max":0,"o":"m 541 794 l 479 794 l 617 959 l 804 959 m 1002 711 l 857 0 l 621 0 l 513 511 l 408 -3 l 173 -3 l 29 711 l 220 711 l 300 68 l 437 711 l 608 711 l 744 64 l 827 711 "},"ŵ":{"ha":1030,"x_min":0,"x_max":0,"o":"m 443 779 l 318 779 l 465 959 l 567 959 l 715 779 l 590 779 l 516 921 m 1002 711 l 857 0 l 621 0 l 513 511 l 408 -3 l 173 -3 l 29 711 l 220 711 l 300 68 l 437 711 l 608 711 l 744 64 l 827 711 "},"ẅ":{"ha":1030,"x_min":0,"x_max":0,"o":"m 467 804 l 329 804 l 329 959 l 467 959 m 703 804 l 566 804 l 566 959 l 703 959 m 1002 711 l 857 0 l 621 0 l 513 511 l 408 -3 l 173 -3 l 29 711 l 220 711 l 300 68 l 437 711 l 608 711 l 744 64 l 827 711 "},"ẁ":{"ha":1030,"x_min":0,"x_max":0,"o":"m 490 793 l 231 959 l 418 959 l 555 793 m 1002 711 l 857 0 l 621 0 l 513 511 l 408 -3 l 173 -3 l 29 711 l 220 711 l 300 68 l 437 711 l 608 711 l 744 64 l 827 711 "},"x":{"ha":673,"x_min":0,"x_max":0,"o":"m 222 358 l 11 711 l 206 711 l 336 429 l 469 711 l 663 711 l 453 358 l 663 0 l 469 0 l 336 288 l 206 0 l 11 0 "},"y":{"ha":674,"x_min":0,"x_max":0,"o":"m 663 711 l 451 0 b 182 -261 394 -201 298 -261 b 48 -240 124 -261 86 -253 l 77 -149 b 157 -165 109 -161 134 -165 b 223 0 239 -165 258 -104 l 12 711 l 206 711 l 286 323 l 338 69 l 390 323 l 470 711 "},"ý":{"ha":674,"x_min":0,"x_max":0,"o":"m 356 794 l 294 794 l 432 959 l 618 959 m 663 711 l 451 0 b 182 -261 394 -201 298 -261 b 48 -240 124 -261 86 -253 l 77 -149 b 157 -165 109 -161 134 -165 b 223 0 239 -165 258 -104 l 12 711 l 206 711 l 286 323 l 338 69 l 390 323 l 470 711 "},"ŷ":{"ha":674,"x_min":0,"x_max":0,"o":"m 258 779 l 133 779 l 280 959 l 382 959 l 530 779 l 405 779 l 331 921 m 663 711 l 451 0 b 182 -261 394 -201 298 -261 b 48 -240 124 -261 86 -253 l 77 -149 b 157 -165 109 -161 134 -165 b 223 0 239 -165 258 -104 l 12 711 l 206 711 l 286 323 l 338 69 l 390 323 l 470 711 "},"ÿ":{"ha":674,"x_min":0,"x_max":0,"o":"m 282 804 l 144 804 l 144 959 l 282 959 m 517 804 l 380 804 l 380 959 l 517 959 m 663 711 l 451 0 b 182 -261 394 -201 298 -261 b 48 -240 124 -261 86 -253 l 77 -149 b 157 -165 109 -161 134 -165 b 223 0 239 -165 258 -104 l 12 711 l 206 711 l 286 323 l 338 69 l 390 323 l 470 711 "},"ỵ":{"ha":674,"x_min":0,"x_max":0,"o":"m 451 0 b 399 -129 436 -52 419 -94 l 399 -240 l 286 -240 b 182 -261 254 -255 219 -261 b 48 -240 124 -261 86 -253 l 77 -149 b 157 -165 109 -161 134 -165 b 223 0 239 -165 258 -104 l 12 711 l 206 711 l 286 323 l 338 69 l 390 323 l 470 711 l 663 711 "},"ỳ":{"ha":674,"x_min":0,"x_max":0,"o":"m 305 793 l 46 959 l 233 959 l 370 793 m 663 711 l 451 0 b 182 -261 394 -201 298 -261 b 48 -240 124 -261 86 -253 l 77 -149 b 157 -165 109 -161 134 -165 b 223 0 239 -165 258 -104 l 12 711 l 206 711 l 286 323 l 338 69 l 390 323 l 470 711 "},"ỷ":{"ha":674,"x_min":0,"x_max":0,"o":"m 330 961 b 262 897 302 961 279 943 l 193 952 b 328 1026 219 996 267 1026 b 469 892 406 1026 469 975 b 309 777 469 823 413 772 l 347 743 l 277 743 l 249 796 l 311 824 b 384 908 366 850 384 879 b 330 961 384 935 368 961 m 663 711 l 451 0 b 182 -261 394 -201 298 -261 b 48 -240 124 -261 86 -253 l 77 -149 b 157 -165 109 -161 134 -165 b 223 0 239 -165 258 -104 l 12 711 l 206 711 l 286 323 l 338 69 l 390 323 l 470 711 "},"ȳ":{"ha":674,"x_min":0,"x_max":0,"o":"m 507 834 l 159 834 l 159 933 l 507 933 m 663 711 l 451 0 b 182 -261 394 -201 298 -261 b 48 -240 124 -261 86 -253 l 77 -149 b 157 -165 109 -161 134 -165 b 223 0 239 -165 258 -104 l 12 711 l 206 711 l 286 323 l 338 69 l 390 323 l 470 711 "},"ỹ":{"ha":674,"x_min":0,"x_max":0,"o":"m 220 871 b 151 781 177 871 151 836 l 102 781 b 235 960 102 907 156 960 b 442 868 334 960 358 868 b 510 959 489 868 510 905 l 562 959 b 429 777 562 833 511 777 b 220 871 331 777 307 871 m 663 711 l 451 0 b 182 -261 394 -201 298 -261 b 48 -240 124 -261 86 -253 l 77 -149 b 157 -165 109 -161 134 -165 b 223 0 239 -165 258 -104 l 12 711 l 206 711 l 286 323 l 338 69 l 390 323 l 470 711 "},"z":{"ha":588,"x_min":0,"x_max":0,"o":"m 543 571 l 232 108 l 543 108 l 543 0 l 40 0 l 40 132 l 370 605 l 47 605 l 47 711 l 543 711 "},"ź":{"ha":588,"x_min":0,"x_max":0,"o":"m 314 794 l 252 794 l 390 959 l 576 959 m 47 711 l 543 711 l 543 571 l 232 108 l 543 108 l 543 0 l 40 0 l 40 132 l 370 605 l 47 605 "},"ž":{"ha":588,"x_min":0,"x_max":0,"o":"m 237 782 l 91 959 l 215 959 l 288 821 l 363 959 l 488 959 l 340 782 m 543 571 l 232 108 l 543 108 l 543 0 l 40 0 l 40 132 l 370 605 l 47 605 l 47 711 l 543 711 "},"ż":{"ha":588,"x_min":0,"x_max":0,"o":"m 357 806 l 220 806 l 220 959 l 357 959 m 543 571 l 232 108 l 543 108 l 543 0 l 40 0 l 40 132 l 370 605 l 47 605 l 47 711 l 543 711 "},"ẓ":{"ha":588,"x_min":0,"x_max":0,"o":"m 543 571 l 232 108 l 543 108 l 543 0 l 40 0 l 40 132 l 370 605 l 47 605 l 47 711 l 543 711 m 221 -87 l 357 -87 l 357 -240 l 221 -240 "},"ﬁ":{"ha":821,"x_min":0,"x_max":0,"o":"m 120 621 l 14 621 l 14 711 l 121 711 l 121 755 b 343 958 121 877 184 958 l 432 958 l 432 850 l 380 850 b 277 755 309 850 277 825 l 277 711 l 432 711 l 432 621 l 301 621 l 301 0 l 120 0 m 541 958 l 722 958 l 722 821 l 541 821 m 540 711 l 722 711 l 722 0 l 540 0 "},"ﬂ":{"ha":821,"x_min":0,"x_max":0,"o":"m 120 621 l 14 621 l 14 711 l 121 711 l 121 755 b 343 958 121 877 184 958 l 432 958 l 432 850 l 380 850 b 277 755 309 850 277 825 l 277 711 l 432 711 l 432 621 l 301 621 l 301 0 l 120 0 m 540 958 l 721 958 l 721 0 l 540 0 "},"ª":{"ha":608,"x_min":0,"x_max":0,"o":"m 509 566 b 536 559 514 561 522 559 l 536 501 b 476 493 511 496 492 493 b 380 572 414 493 391 532 l 371 572 b 233 490 335 507 270 490 b 90 621 150 490 90 536 b 180 760 90 684 123 728 b 370 816 228 787 293 805 l 370 825 b 291 930 370 894 348 930 b 208 878 237 930 208 911 b 215 847 208 868 211 858 l 112 819 b 102 867 106 836 102 851 b 295 996 102 948 197 996 b 486 829 405 996 486 947 l 486 648 b 509 566 486 603 486 574 m 275 557 b 370 620 318 557 350 586 l 370 783 b 202 640 275 763 202 721 b 275 557 202 589 230 557 "},"º":{"ha":645,"x_min":0,"x_max":0,"o":"m 326 485 b 98 730 189 485 98 596 b 326 975 98 864 189 975 b 546 730 456 975 546 864 b 326 485 546 596 456 485 m 326 566 b 428 728 397 566 428 628 b 326 890 428 828 397 890 b 216 728 246 890 216 828 b 326 566 216 628 246 566 "},"π":{"ha":809,"x_min":0,"x_max":0,"o":"m 653 -14 b 498 136 553 -14 498 58 l 498 556 l 347 556 l 347 0 l 195 0 l 195 556 l 100 556 l 100 677 l 739 677 l 739 556 l 635 556 l 642 153 b 686 108 642 125 655 108 b 732 135 700 108 713 113 l 790 47 b 653 -14 726 -7 680 -14 "},"⁄":{"ha":293,"x_min":0,"x_max":0,"o":"m 302 958 l 480 958 l -15 0 l -188 0 "},".":{"ha":510,"x_min":0,"x_max":0,"o":"m 143 207 l 367 207 l 367 0 l 143 0 "},",":{"ha":458,"x_min":0,"x_max":0,"o":"m 287 0 l 117 0 l 117 207 l 341 207 l 341 0 l 248 -264 l 113 -264 "},":":{"ha":511,"x_min":0,"x_max":0,"o":"m 144 699 l 368 699 l 368 492 l 144 492 m 142 207 l 366 207 l 366 0 l 142 0 "},";":{"ha":458,"x_min":0,"x_max":0,"o":"m 117 699 l 341 699 l 341 492 l 117 492 m 287 0 l 117 0 l 117 207 l 341 207 l 341 0 l 248 -264 l 113 -264 "},"…":{"ha":1308,"x_min":0,"x_max":0,"o":"m 143 207 l 367 207 l 367 0 l 143 0 m 542 207 l 766 207 l 766 0 l 542 0 m 941 207 l 1165 207 l 1165 0 l 941 0 "},"!":{"ha":429,"x_min":0,"x_max":0,"o":"m 129 958 l 301 958 l 256 299 l 174 299 m 120 193 l 309 193 l 309 0 l 120 0 "},"¡":{"ha":427,"x_min":0,"x_max":0,"o":"m 119 711 l 307 711 l 307 518 l 119 518 m 173 412 l 254 412 l 300 -262 l 127 -262 "},"?":{"ha":618,"x_min":0,"x_max":0,"o":"m 259 402 b 408 725 259 612 408 544 b 305 852 408 811 372 852 b 196 690 235 852 197 793 l 48 690 b 302 972 49 823 112 972 b 558 712 447 972 558 895 b 351 401 558 473 351 546 l 351 296 l 259 296 m 215 193 l 397 193 l 397 0 l 215 0 "},"¿":{"ha":617,"x_min":0,"x_max":0,"o":"m 403 518 l 221 518 l 221 711 l 403 711 m 359 309 b 210 -14 359 99 210 168 b 313 -141 210 -100 246 -141 b 422 22 383 -141 421 -81 l 570 22 b 316 -261 569 -111 506 -261 b 60 -1 171 -261 60 -184 b 267 311 60 239 267 165 l 267 415 l 359 415 "},"·":{"ha":412,"x_min":0,"x_max":0,"o":"m 211 336 b 77 459 134 336 77 388 b 211 585 77 533 134 585 b 336 459 283 585 336 533 b 211 336 336 388 283 336 "},"•":{"ha":677,"x_min":0,"x_max":0,"o":"m 338 135 b 100 363 206 135 100 237 b 338 589 100 489 206 589 b 577 363 472 589 577 489 b 338 135 577 237 472 135 "},"*":{"ha":610,"x_min":0,"x_max":0,"o":"m 288 742 l 154 633 l 102 716 l 271 769 l 102 823 l 154 906 l 288 797 l 254 958 l 355 958 l 322 797 l 456 906 l 506 823 l 339 769 l 506 716 l 456 633 l 322 742 l 355 580 l 254 580 "},"#":{"ha":928,"x_min":0,"x_max":0,"o":"m 205 267 l 69 267 l 69 402 l 229 402 l 260 570 l 119 570 l 119 703 l 283 703 l 332 958 l 469 958 l 423 712 l 584 712 l 632 958 l 770 958 l 723 705 l 860 705 l 860 570 l 698 570 l 669 402 l 810 402 l 810 270 l 643 270 l 595 0 l 456 0 l 505 260 l 342 260 l 296 0 l 157 0 m 537 378 l 575 593 l 391 593 l 354 378 "},"/":{"ha":538,"x_min":0,"x_max":0,"o":"m 380 957 l 545 957 l 159 -106 l -7 -106 "},"\\":{"ha":540,"x_min":0,"x_max":0,"o":"m -7 957 l 160 957 l 546 -106 l 381 -106 "},"‥":{"ha":907,"x_min":0,"x_max":0,"o":"m 143 207 l 367 207 l 367 0 l 143 0 m 541 207 l 764 207 l 764 0 l 541 0 "},"(":{"ha":437,"x_min":0,"x_max":0,"o":"m 256 -208 b 70 409 143 -83 70 185 b 255 1018 70 631 134 873 l 420 1018 b 223 409 292 848 223 633 b 421 -208 223 171 290 -37 l 256 -208 "},")":{"ha":437,"x_min":0,"x_max":0,"o":"m 16 -208 b 214 409 148 -37 214 171 b 17 1018 214 633 145 848 l 182 1018 b 368 409 303 873 368 631 b 181 -208 368 185 294 -83 "},"{":{"ha":453,"x_min":0,"x_max":0,"o":"m 341 -197 b 132 -1 224 -197 132 -109 l 132 252 b 41 356 132 346 98 356 l 41 498 b 132 601 98 497 132 508 l 132 857 b 341 1053 132 966 224 1053 l 421 1053 l 421 926 l 379 926 b 289 831 321 926 289 899 l 289 627 b 87 427 289 494 243 446 b 289 227 243 410 289 361 l 289 24 b 379 -71 289 -44 321 -71 l 421 -71 l 421 -197 l 341 -197 "},"}":{"ha":453,"x_min":0,"x_max":0,"o":"m 32 -197 l 32 -71 l 74 -71 b 164 24 132 -71 164 -44 l 164 227 b 366 427 164 361 210 410 b 164 627 210 446 164 494 l 164 831 b 74 926 164 899 132 926 l 32 926 l 32 1053 l 112 1053 b 321 857 229 1053 321 966 l 321 601 b 412 498 321 508 355 497 l 412 356 b 321 252 355 356 321 346 l 321 -1 b 112 -197 321 -109 229 -197 "},"[":{"ha":457,"x_min":0,"x_max":0,"o":"m 122 1018 l 427 1018 l 427 908 l 267 908 l 267 -92 l 427 -92 l 427 -204 l 122 -204 "},"]":{"ha":457,"x_min":0,"x_max":0,"o":"m 30 -204 l 30 -92 l 190 -92 l 190 908 l 30 908 l 30 1018 l 335 1018 l 335 -204 "},"-":{"ha":757,"x_min":0,"x_max":0,"o":"m 154 498 l 603 498 l 603 359 l 154 359 "},"–":{"ha":1078,"x_min":0,"x_max":0,"o":"m 154 498 l 924 498 l 924 359 l 154 359 "},"—":{"ha":1709,"x_min":0,"x_max":0,"o":"m 100 498 l 1609 498 l 1609 359 l 100 359 "},"_":{"ha":825,"x_min":0,"x_max":0,"o":"m 143 0 l 682 0 l 682 -139 l 143 -139 "},"‚":{"ha":458,"x_min":0,"x_max":0,"o":"m 287 0 l 117 0 l 117 207 l 341 207 l 341 0 l 248 -264 l 113 -264 "},"„":{"ha":769,"x_min":0,"x_max":0,"o":"m 287 0 l 117 0 l 117 207 l 341 207 l 341 0 l 248 -264 l 113 -264 m 597 0 l 427 0 l 427 207 l 651 207 l 651 0 l 558 -264 l 424 -264 "},"“":{"ha":718,"x_min":0,"x_max":0,"o":"m 96 694 l 189 958 l 323 958 l 150 694 l 319 694 l 319 488 l 96 488 m 397 694 l 490 958 l 625 958 l 452 694 l 621 694 l 621 488 l 397 488 "},"”":{"ha":704,"x_min":0,"x_max":0,"o":"m 265 751 l 96 751 l 96 958 l 319 958 l 319 751 l 227 488 l 92 488 m 555 751 l 385 751 l 385 958 l 609 958 l 609 751 l 516 488 l 381 488 "},"‘":{"ha":416,"x_min":0,"x_max":0,"o":"m 96 694 l 189 958 l 323 958 l 150 694 l 319 694 l 319 488 l 96 488 "},"’":{"ha":414,"x_min":0,"x_max":0,"o":"m 265 751 l 96 751 l 96 958 l 319 958 l 319 751 l 227 488 l 92 488 "},"«":{"ha":761,"x_min":0,"x_max":0,"o":"m 33 332 l 243 587 l 417 587 l 205 332 l 417 77 l 243 77 m 345 332 l 554 587 l 728 587 l 517 332 l 728 77 l 554 77 "},"»":{"ha":761,"x_min":0,"x_max":0,"o":"m 33 77 l 244 332 l 33 587 l 207 587 l 416 332 l 207 77 m 344 77 l 555 332 l 344 587 l 518 587 l 728 332 l 518 77 "},"‹":{"ha":450,"x_min":0,"x_max":0,"o":"m 34 332 l 243 587 l 418 587 l 206 332 l 418 77 l 243 77 "},"›":{"ha":450,"x_min":0,"x_max":0,"o":"m 33 77 l 244 332 l 33 587 l 207 587 l 416 332 l 207 77 "},"\"":{"ha":697,"x_min":0,"x_max":0,"o":"m 143 958 l 294 958 l 294 571 l 143 571 m 399 958 l 554 958 l 554 571 l 399 571 "},"'":{"ha":437,"x_min":0,"x_max":0,"o":"m 143 958 l 294 958 l 294 571 l 143 571 "},"¢":{"ha":696,"x_min":0,"x_max":0,"o":"m 311 -11 b 56 354 131 17 56 174 b 311 721 56 538 131 693 l 311 833 l 413 833 l 413 723 b 658 498 550 711 623 631 l 505 463 b 381 617 490 572 452 617 b 238 353 270 617 238 512 b 381 94 238 196 270 94 b 505 248 454 94 490 142 l 651 217 b 413 -13 621 75 546 -1 l 413 -123 l 311 -123 "},"¤":{"ha":958,"x_min":0,"x_max":0,"o":"m 124 212 l 197 284 b 144 461 161 336 144 399 b 197 638 144 523 161 585 l 124 710 l 228 820 l 302 743 b 479 797 356 779 418 797 b 656 743 541 797 604 779 l 731 820 l 836 710 l 761 638 b 814 461 797 585 814 523 b 761 284 814 399 797 336 l 836 212 l 731 102 l 656 179 b 479 125 604 144 541 125 b 302 179 418 125 356 144 l 228 102 m 479 276 b 612 330 527 276 576 294 b 665 461 648 367 665 412 b 612 591 665 510 649 556 b 479 646 576 627 527 646 b 348 591 430 646 384 628 b 294 461 313 555 294 510 b 348 330 294 412 311 366 b 479 276 385 295 430 276 "},"$":{"ha":764,"x_min":0,"x_max":0,"o":"m 328 -8 b 54 267 204 7 85 79 l 212 307 b 392 115 236 168 307 115 b 512 245 467 115 512 151 b 328 443 512 356 435 390 b 90 724 222 495 90 556 b 328 968 90 858 165 952 l 328 1069 l 427 1069 l 427 968 b 681 742 542 959 651 900 l 536 705 b 385 852 518 804 473 852 b 269 745 304 852 269 809 b 481 562 269 650 374 617 b 699 271 581 511 699 439 b 427 -11 699 108 599 1 l 427 -111 l 328 -111 "},"€":{"ha":866,"x_min":0,"x_max":0,"o":"m 464 -14 b 87 338 239 -14 120 127 l -24 338 l -24 445 l 77 445 b 77 479 77 456 77 467 b 77 521 77 494 77 507 l -24 521 l -24 629 l 88 629 b 463 974 122 836 241 974 b 813 693 643 974 774 876 l 652 647 b 467 849 628 787 570 849 b 273 629 360 849 296 772 l 525 629 l 525 521 l 266 521 b 265 484 265 508 265 497 b 266 445 265 471 265 458 l 525 445 l 525 338 l 273 338 b 469 111 296 191 363 111 b 652 317 564 111 625 177 l 815 269 b 464 -14 774 85 644 -14 "},"ƒ":{"ha":585,"x_min":0,"x_max":0,"o":"m 90 -163 b 192 0 156 -152 192 -116 l 192 621 l 86 621 l 86 711 l 193 711 l 193 755 b 415 958 193 877 256 958 l 504 958 l 504 850 l 452 850 b 349 755 380 850 349 825 l 349 711 l 504 711 l 504 621 l 373 621 l 373 0 b 90 -285 373 -193 255 -271 "},"£":{"ha":810,"x_min":0,"x_max":0,"o":"m 423 124 l 786 124 l 786 0 l 100 0 l 100 104 l 209 115 b 280 210 258 119 290 160 l 246 395 l 100 395 l 100 486 l 229 486 l 208 603 b 496 972 157 882 334 972 b 786 734 656 972 753 883 l 631 677 b 491 849 618 791 584 849 b 372 628 388 849 357 782 l 386 486 l 578 486 l 578 395 l 395 395 "},"¥":{"ha":793,"x_min":0,"x_max":0,"o":"m 534 447 l 685 447 l 685 339 l 490 339 l 490 263 l 685 263 l 685 156 l 490 156 l 490 0 l 301 0 l 301 156 l 107 156 l 107 263 l 301 263 l 301 339 l 107 339 l 107 447 l 257 447 l 17 958 l 217 958 l 321 673 l 396 414 l 473 673 l 574 958 l 775 958 "},"+":{"ha":1050,"x_min":0,"x_max":0,"o":"m 454 361 l 154 361 l 154 500 l 454 500 l 454 801 l 596 801 l 596 500 l 897 500 l 897 361 l 596 361 l 596 60 l 454 60 "},"−":{"ha":1007,"x_min":0,"x_max":0,"o":"m 154 498 l 852 498 l 852 359 l 154 359 "},"×":{"ha":932,"x_min":0,"x_max":0,"o":"m 366 395 l 154 608 l 252 707 l 465 494 l 677 707 l 778 607 l 565 394 l 778 182 l 679 83 l 467 296 l 254 83 l 154 183 "},"÷":{"ha":1007,"x_min":0,"x_max":0,"o":"m 504 587 b 405 684 451 587 405 629 b 504 779 405 734 451 779 b 603 684 556 779 603 734 b 504 587 603 629 556 587 m 154 499 l 852 499 l 852 359 l 154 359 m 504 81 b 405 176 451 81 405 122 b 504 271 405 227 451 271 b 603 176 556 271 603 227 b 504 81 603 122 556 81 "},"=":{"ha":1001,"x_min":0,"x_max":0,"o":"m 154 652 l 847 652 l 847 512 l 154 512 m 154 348 l 847 348 l 847 208 l 154 208 "},"≠":{"ha":1055,"x_min":0,"x_max":0,"o":"m 589 526 l 492 361 l 960 361 l 960 222 l 410 222 l 262 -28 l 110 -28 l 260 222 l 108 222 l 108 361 l 345 361 l 444 526 l 108 526 l 108 665 l 528 665 l 687 930 l 827 930 l 671 665 l 960 665 l 960 526 "},">":{"ha":1002,"x_min":0,"x_max":0,"o":"m 936 598 l 936 424 l 87 36 l 87 199 l 770 511 l 87 822 l 87 983 "},"<":{"ha":1002,"x_min":0,"x_max":0,"o":"m 915 822 l 232 511 l 915 199 l 915 36 l 66 424 l 66 598 l 915 983 "},"≥":{"ha":1038,"x_min":0,"x_max":0,"o":"m 953 718 l 953 543 l 103 204 l 103 366 l 780 631 l 103 892 l 103 1054 m 103 136 l 953 136 l 953 0 l 103 0 "},"≤":{"ha":1038,"x_min":0,"x_max":0,"o":"m 955 892 l 278 631 l 955 366 l 955 204 l 105 543 l 105 718 l 955 1054 m 105 136 l 955 136 l 955 0 l 105 0 "},"±":{"ha":1007,"x_min":0,"x_max":0,"o":"m 434 486 l 91 486 l 91 627 l 434 627 l 434 908 l 573 908 l 573 627 l 916 627 l 916 486 l 573 486 l 573 205 l 434 205 m 92 138 l 916 138 l 916 -1 l 92 -1 "},"≈":{"ha":901,"x_min":0,"x_max":0,"o":"m 581 410 b 317 516 454 410 410 516 b 247 417 277 516 247 492 l 115 417 b 298 657 115 568 178 657 b 565 552 439 657 474 552 b 640 655 609 552 640 575 l 775 655 b 581 410 775 497 705 410 m 590 81 b 327 188 464 81 419 188 b 256 89 287 188 256 163 l 125 89 b 308 329 125 239 187 329 b 574 224 449 329 484 224 b 650 327 618 224 650 247 l 785 327 b 590 81 785 169 715 81 "},"~":{"ha":908,"x_min":0,"x_max":0,"o":"m 591 243 b 328 350 465 243 420 350 b 257 251 288 350 257 326 l 125 251 b 309 491 125 401 188 491 b 575 386 450 491 484 386 b 650 489 619 386 650 409 l 785 489 b 591 243 785 331 715 243 "},"¬":{"ha":959,"x_min":0,"x_max":0,"o":"m 627 377 l 92 377 l 92 541 l 805 541 l 805 114 l 627 114 "},"^":{"ha":695,"x_min":0,"x_max":0,"o":"m 289 958 l 408 958 l 631 359 l 457 359 l 349 845 l 239 359 l 64 359 "},"∞":{"ha":1194,"x_min":0,"x_max":0,"o":"m 316 198 b 77 429 179 198 77 294 b 316 661 77 564 179 661 b 596 531 406 661 505 613 b 878 661 688 613 787 661 b 1118 429 1015 661 1118 564 b 878 198 1118 294 1015 198 b 596 327 787 198 688 245 b 316 198 505 245 406 198 m 334 323 b 543 429 402 323 476 362 b 334 534 476 496 402 534 b 216 429 275 534 216 497 b 334 323 216 361 275 323 m 859 323 b 979 429 920 323 979 361 b 859 534 979 497 920 534 b 651 429 792 534 718 496 b 859 323 718 362 792 323 "},"∫":{"ha":602,"x_min":0,"x_max":0,"o":"m 41 -212 b 212 -35 174 -212 212 -168 l 212 765 b 408 982 212 892 298 982 b 563 911 460 982 510 959 l 477 799 b 404 841 452 827 427 841 b 345 758 372 841 345 813 l 345 -35 b 41 -310 345 -252 231 -310 "},"Ω":{"ha":1081,"x_min":0,"x_max":0,"o":"m 111 113 l 413 113 l 413 129 b 113 510 191 158 113 330 b 540 954 113 790 277 954 b 969 505 809 954 969 780 b 675 131 969 327 894 189 l 675 114 l 972 114 l 972 0 l 623 0 l 623 153 b 813 484 743 186 813 308 b 541 801 813 694 711 801 b 270 486 371 801 270 694 b 458 153 270 319 339 199 l 458 0 l 111 0 "},"∏":{"ha":884,"x_min":0,"x_max":0,"o":"m 165 837 l 101 837 l 101 958 l 781 958 l 781 837 l 718 837 l 718 0 l 567 0 l 567 837 l 317 837 l 317 0 l 165 0 "},"∑":{"ha":821,"x_min":0,"x_max":0,"o":"m 68 79 l 406 479 l 68 879 l 68 958 l 745 958 l 745 837 l 304 837 l 591 479 l 304 121 l 745 121 l 745 0 l 68 0 "},"µ":{"ha":852,"x_min":0,"x_max":0,"o":"m 715 677 l 715 0 l 568 0 l 551 144 b 361 -16 530 35 456 -16 b 286 -7 330 -16 308 -12 l 277 -180 l 154 -180 l 154 677 l 319 677 l 319 284 b 421 110 319 174 339 110 b 551 301 503 110 551 184 l 551 677 "},"∂":{"ha":851,"x_min":0,"x_max":0,"o":"m 376 -8 b 83 319 189 -8 83 121 b 419 722 83 543 229 722 b 609 607 503 722 574 697 b 473 834 601 735 555 812 b 291 788 421 853 350 856 l 248 882 b 441 970 287 937 357 970 b 747 526 659 970 747 785 b 376 -8 747 215 621 -8 m 375 116 b 574 421 492 116 574 241 b 453 613 574 559 530 613 b 248 308 330 613 248 476 b 375 116 248 178 293 116 "},"%":{"ha":1126,"x_min":0,"x_max":0,"o":"m 285 513 b 68 741 115 513 68 659 b 280 974 68 829 113 974 b 494 740 431 974 494 844 b 285 513 494 637 433 513 m 758 958 l 926 958 l 356 1 l 189 1 m 283 600 b 361 741 338 600 361 644 b 280 886 361 844 337 886 b 199 740 225 886 199 844 b 283 600 199 642 225 600 m 848 -8 b 632 220 678 -8 632 138 b 844 452 632 307 677 452 b 1059 218 995 452 1059 323 b 848 -8 1059 115 996 -8 m 847 79 b 926 219 901 79 926 122 b 844 366 926 323 902 366 b 763 218 789 366 763 323 b 847 79 763 121 789 79 "},"‰":{"ha":1610,"x_min":0,"x_max":0,"o":"m 285 513 b 68 741 115 513 68 659 b 280 974 68 829 113 974 b 494 740 431 974 494 844 b 285 513 494 637 433 513 m 758 958 l 926 958 l 356 1 l 189 1 m 283 600 b 365 741 340 600 365 644 b 280 886 365 844 340 886 b 195 740 223 886 195 844 b 283 600 195 642 223 600 m 848 -8 b 632 220 678 -8 632 138 b 844 452 632 307 677 452 b 1059 218 995 452 1059 323 b 848 -8 1059 115 996 -8 m 1333 -8 b 1116 220 1164 -8 1116 138 b 1328 452 1116 307 1162 452 b 1542 218 1479 452 1542 323 b 1333 -8 1542 115 1480 -8 m 847 79 b 926 219 901 79 926 122 b 844 366 926 323 902 366 b 763 218 789 366 763 323 b 847 79 763 121 789 79 m 1332 79 b 1409 219 1385 79 1409 122 b 1328 366 1409 323 1386 366 b 1247 218 1274 366 1247 323 b 1332 79 1247 121 1274 79 "},"→":{"ha":1445,"x_min":0,"x_max":0,"o":"m 742 182 l 1096 352 l 71 352 l 71 509 l 1097 509 l 742 680 l 742 826 l 1397 433 l 742 35 "},"←":{"ha":1445,"x_min":0,"x_max":0,"o":"m 1373 352 l 349 352 l 703 182 l 703 35 l 48 433 l 703 826 l 703 680 l 347 509 l 1373 509 "},"◊":{"ha":757,"x_min":0,"x_max":0,"o":"m 60 486 l 307 972 l 454 972 l 697 486 l 454 0 l 307 0 m 527 486 l 377 815 l 230 486 l 377 157 "},"":{"ha":1208,"x_min":0,"x_max":0,"o":"m 604 0 b 77 528 314 0 77 237 b 604 1055 77 819 314 1055 b 1132 528 896 1055 1132 819 b 604 0 1132 237 896 0 m 604 50 b 1082 528 868 50 1082 265 b 604 1006 1082 791 868 1006 b 127 528 342 1006 127 791 b 604 50 127 265 342 50 m 881 301 b 864 310 876 301 868 304 l 663 510 b 663 546 653 521 653 536 l 864 747 b 899 747 873 757 889 757 b 899 711 909 737 909 721 l 715 528 l 899 345 b 899 310 909 335 909 319 b 881 301 895 304 888 301 m 328 301 b 303 326 314 301 303 313 l 303 729 b 328 754 303 743 314 754 b 353 729 342 754 353 743 l 353 326 b 328 301 353 313 342 301 m 604 301 b 579 326 591 301 579 313 l 579 729 b 604 754 579 743 591 754 b 629 729 618 754 629 743 l 629 326 b 604 301 629 313 618 301 m 403 503 b 378 528 389 503 378 514 b 403 553 378 542 389 553 l 530 553 b 554 528 543 553 554 542 b 530 503 554 514 543 503 l 403 503 "},"@":{"ha":1189,"x_min":0,"x_max":0,"o":"m 621 -163 b 85 352 290 -163 85 56 b 614 869 85 644 323 869 b 1107 427 865 869 1107 726 b 835 84 1107 217 991 84 b 709 195 761 84 718 128 l 706 195 b 538 83 678 136 616 83 b 338 310 414 83 338 176 b 612 623 338 471 450 623 b 749 512 678 623 732 588 l 753 512 l 772 602 l 872 602 b 819 357 856 518 842 449 b 861 182 794 251 788 182 b 1000 414 946 182 1000 286 b 612 770 1000 641 842 770 b 207 350 371 770 207 591 b 634 -64 207 103 370 -64 b 957 51 768 -64 869 -24 l 1017 -25 b 621 -163 918 -116 777 -163 m 563 161 b 721 361 656 161 705 252 b 621 537 740 492 696 537 b 466 304 525 537 466 414 b 563 161 466 239 480 161 "},"&":{"ha":976,"x_min":0,"x_max":0,"o":"m 714 0 l 635 87 b 370 -18 548 5 463 -18 b 77 227 194 -18 77 75 b 279 490 77 358 166 440 b 172 737 196 596 172 658 b 428 970 172 880 269 970 b 684 743 592 970 684 873 b 479 494 684 631 617 547 b 653 297 524 441 581 378 b 761 501 687 351 723 418 l 892 501 b 735 207 837 376 785 280 b 924 0 791 146 853 78 m 429 859 b 335 751 374 859 335 822 b 430 555 335 698 355 650 b 530 734 503 602 530 661 b 429 859 530 827 479 859 m 395 102 b 555 174 444 102 497 118 b 332 425 460 279 387 360 b 239 260 267 382 239 329 b 395 102 239 151 325 102 "},"¶":{"ha":762,"x_min":0,"x_max":0,"o":"m 335 422 b 63 690 195 422 63 521 b 335 958 63 860 195 958 l 444 958 l 444 -195 l 335 -195 m 553 958 l 663 958 l 663 -195 l 553 -195 "},"§":{"ha":844,"x_min":0,"x_max":0,"o":"m 422 -12 b 94 182 280 -12 136 33 l 267 217 b 435 92 288 124 340 92 b 572 185 501 92 572 105 b 121 486 572 359 121 224 b 196 629 121 543 148 593 b 124 766 143 666 124 716 b 414 972 124 906 256 972 b 717 790 559 972 673 919 l 555 768 b 412 876 536 852 488 876 b 288 783 347 876 288 853 b 737 473 288 614 737 749 b 668 336 737 423 720 376 b 737 206 722 298 737 254 b 422 -12 737 47 590 -12 m 534 399 b 580 485 576 417 592 452 b 321 586 562 549 416 562 b 269 502 283 568 264 534 b 534 399 279 441 425 420 "},"©":{"ha":1152,"x_min":0,"x_max":0,"o":"m 576 -20 b 77 481 277 -20 77 205 b 576 981 77 755 277 981 b 1076 481 878 981 1076 755 b 576 -20 1076 205 878 -20 m 577 58 b 999 481 834 58 999 250 b 577 903 999 711 834 903 b 157 481 321 903 157 711 b 577 58 157 250 321 58 m 587 174 b 326 481 401 174 326 317 b 587 789 326 650 401 789 b 824 601 723 789 793 723 l 698 572 b 595 700 686 663 654 700 b 475 480 503 700 475 613 b 595 265 475 350 503 265 b 699 393 654 265 686 304 l 819 368 b 587 174 791 236 718 174 "},"®":{"ha":915,"x_min":0,"x_max":0,"o":"m 457 239 b 98 606 230 239 98 403 b 457 972 98 808 230 972 b 817 606 682 972 817 808 b 457 239 817 403 682 239 m 457 314 b 745 606 642 314 745 446 b 457 899 745 765 642 899 b 170 606 271 899 170 765 b 457 314 170 446 271 314 m 332 791 l 478 791 b 608 676 562 791 608 747 b 541 570 608 621 582 589 l 635 421 l 534 421 l 458 558 l 422 558 l 422 421 l 332 421 m 463 619 b 525 676 508 619 525 633 b 463 732 525 719 508 732 l 418 732 l 418 619 "},"™":{"ha":1063,"x_min":0,"x_max":0,"o":"m 80 958 l 404 958 l 404 888 l 298 888 l 298 555 l 188 555 l 188 888 l 80 888 m 909 958 l 909 555 l 805 555 l 811 850 l 728 555 l 642 555 l 554 850 l 560 555 l 457 555 l 457 958 l 598 958 l 669 720 l 684 647 l 699 718 l 768 958 "},"°":{"ha":679,"x_min":0,"x_max":0,"o":"m 339 526 b 113 749 209 526 113 620 b 339 972 113 879 209 972 b 566 749 470 972 566 879 b 339 526 566 620 470 526 m 339 651 b 439 749 397 651 439 692 b 339 848 439 807 397 848 b 239 749 281 848 239 807 b 339 651 239 692 281 651 "},"|":{"ha":444,"x_min":0,"x_max":0,"o":"m 154 1041 l 290 1041 l 290 -106 l 154 -106 "},"¦":{"ha":468,"x_min":0,"x_max":0,"o":"m 154 958 l 314 958 l 314 520 l 154 520 m 154 305 l 314 305 l 314 -106 l 154 -106 "},"†":{"ha":543,"x_min":0,"x_max":0,"o":"m 189 574 l 56 574 l 56 705 l 189 705 l 189 958 l 353 958 l 353 705 l 488 705 l 488 574 l 353 574 l 353 -139 l 189 -139 "},"‡":{"ha":604,"x_min":0,"x_max":0,"o":"m 218 114 l 86 114 l 86 246 l 218 246 l 218 574 l 86 574 l 86 705 l 218 705 l 218 958 l 384 958 l 384 705 l 518 705 l 518 574 l 384 574 l 384 246 l 518 246 l 518 114 l 384 114 l 384 -139 l 218 -139 "},"̈":{"ha":0,"x_min":0,"x_max":0,"o":"m -484 925 l -345 925 l -345 770 l -484 770 m -247 925 l -110 925 l -110 770 l -247 770 "},"̇":{"ha":0,"x_min":0,"x_max":0,"o":"m -245 925 l -109 925 l -109 772 l -245 772 "},"̀":{"ha":0,"x_min":0,"x_max":0,"o":"m -366 925 l -179 925 l -42 760 l -107 760 "},"́":{"ha":0,"x_min":0,"x_max":0,"o":"m -219 925 l -33 925 l -295 760 l -357 760 "},"̋":{"ha":0,"x_min":0,"x_max":0,"o":"m -438 925 l -290 925 l -492 753 l -561 753 m -206 925 l -33 925 l -262 753 l -330 753 "},"̂":{"ha":0,"x_min":0,"x_max":0,"o":"m -288 920 l -186 920 l -39 741 l -163 741 l -237 882 l -311 741 l -435 741 "},"̌":{"ha":0,"x_min":0,"x_max":0,"o":"m -436 925 l -312 925 l -239 787 l -164 925 l -39 925 l -187 748 l -290 748 "},"̆":{"ha":0,"x_min":0,"x_max":0,"o":"m -277 741 b -467 924 -399 741 -467 806 l -366 924 b -277 811 -366 842 -323 811 b -183 924 -227 811 -183 845 l -80 924 b -277 741 -80 800 -153 741 "},"̊":{"ha":0,"x_min":0,"x_max":0,"o":"m -238 733 b -395 884 -329 733 -395 797 b -238 1032 -395 970 -329 1032 b -81 884 -148 1032 -81 970 b -238 733 -81 797 -148 733 m -238 812 b -163 883 -194 812 -163 842 b -238 953 -163 924 -194 953 b -313 883 -282 953 -313 924 b -238 812 -313 842 -282 812 "},"̃":{"ha":0,"x_min":0,"x_max":0,"o":"m -221 728 b -430 823 -319 728 -342 823 b -499 733 -473 823 -498 788 l -548 733 b -415 912 -548 859 -494 912 b -208 820 -316 912 -292 820 b -140 911 -161 820 -140 857 l -88 911 b -221 728 -88 785 -138 728 "},"̄":{"ha":0,"x_min":0,"x_max":0,"o":"m -458 899 l -109 899 l -109 800 l -458 800 "},"̉":{"ha":0,"x_min":0,"x_max":0,"o":"m -291 796 l -229 824 b -156 908 -174 850 -156 879 b -210 961 -156 935 -172 961 b -278 897 -237 961 -260 943 l -347 952 b -212 1026 -321 996 -273 1026 b -71 892 -134 1026 -71 975 b -231 777 -71 823 -127 772 l -193 743 l -263 743 "},"̒":{"ha":0,"x_min":0,"x_max":0,"o":"m -154 777 l -331 777 l -122 960 l -69 960 "},"̛":{"ha":0,"x_min":0,"x_max":0,"o":"m -283 736 b -196 844 -233 736 -196 765 l -196 958 l -93 958 l -93 844 b -283 667 -93 719 -160 667 "},"̣":{"ha":0,"x_min":0,"x_max":0,"o":"m -245 -87 l -109 -87 l -109 -240 l -245 -240 "},"̦":{"ha":0,"x_min":0,"x_max":0,"o":"m -211 -92 l -34 -92 l -243 -296 l -296 -296 "},"̧":{"ha":0,"x_min":0,"x_max":0,"o":"m -211 -339 b -346 -265 -272 -339 -320 -308 l -277 -210 b -210 -273 -260 -255 -237 -273 b -155 -220 -172 -273 -155 -248 b -217 -143 -155 -191 -176 -159 l -293 -113 l -229 8 l -132 0 l -230 -90 b -71 -205 -126 -85 -71 -136 b -211 -339 -71 -288 -134 -339 "},"̨":{"ha":0,"x_min":0,"x_max":0,"o":"m -180 -309 b -314 -181 -258 -309 -314 -260 b -144 9 -314 -104 -256 -40 l -104 0 b -227 -162 -193 -62 -227 -106 b -176 -229 -227 -210 -202 -229 b -106 -178 -152 -229 -125 -212 l -44 -223 b -180 -309 -73 -283 -121 -309 "},"̵":{"ha":0,"x_min":0,"x_max":0,"o":"m -523 430 l -109 430 l -109 358 l -523 358 "},"̶":{"ha":0,"x_min":0,"x_max":0,"o":"m -950 429 l -109 429 l -109 344 l -950 344 "},"̷":{"ha":0,"x_min":0,"x_max":0,"o":"m -522 292 l -31 708 l -31 559 l -522 157 "},"̸":{"ha":0,"x_min":0,"x_max":0,"o":"m -848 73 l -75 951 l 2 895 l -771 17 "},"´":{"ha":398,"x_min":0,"x_max":0,"o":"m 179 925 l 366 925 l 115 760 l 41 760 "},"˘":{"ha":546,"x_min":0,"x_max":0,"o":"m 269 741 b 79 924 146 741 79 806 l 180 924 b 269 811 180 842 222 811 b 363 924 319 811 363 845 l 466 924 b 269 741 466 800 393 741 "},"ˇ":{"ha":477,"x_min":0,"x_max":0,"o":"m 41 925 l 165 925 l 238 806 l 313 925 l 437 925 l 290 748 l 187 748 "},"¸":{"ha":395,"x_min":0,"x_max":0,"o":"m 184 -339 b 50 -265 123 -339 75 -308 l 118 -210 b 186 -273 136 -255 159 -273 b 240 -220 224 -273 240 -248 b 178 -143 240 -191 220 -159 l 102 -113 l 167 8 l 264 0 l 165 -90 b 325 -205 269 -85 325 -136 b 184 -339 325 -288 262 -339 "},"ˆ":{"ha":473,"x_min":0,"x_max":0,"o":"m 185 920 l 287 920 l 435 741 l 310 741 l 236 865 l 163 741 l 38 741 "},"¨":{"ha":593,"x_min":0,"x_max":0,"o":"m 109 925 l 248 925 l 248 770 l 109 770 m 346 925 l 483 925 l 483 770 l 346 770 "},"˙":{"ha":355,"x_min":0,"x_max":0,"o":"m 109 925 l 245 925 l 245 772 l 109 772 "},"`":{"ha":398,"x_min":0,"x_max":0,"o":"m 32 925 l 219 925 l 356 760 l 279 760 "},"˝":{"ha":616,"x_min":0,"x_max":0,"o":"m 173 925 l 321 925 l 125 766 l 50 766 m 405 925 l 578 925 l 355 766 l 281 766 "},"¯":{"ha":567,"x_min":0,"x_max":0,"o":"m 109 899 l 458 899 l 458 800 l 109 800 "},"˛":{"ha":389,"x_min":0,"x_max":0,"o":"m 207 -309 b 75 -182 130 -309 75 -260 b 244 9 75 -104 132 -40 l 284 0 b 162 -166 189 -67 162 -108 b 214 -229 162 -212 189 -229 b 278 -174 235 -229 259 -217 l 345 -223 b 207 -309 316 -283 267 -309 "},"˚":{"ha":464,"x_min":0,"x_max":0,"o":"m 232 733 b 83 884 143 733 83 793 b 232 1032 83 972 143 1032 b 380 884 320 1032 380 972 b 232 733 380 793 320 733 m 232 812 b 300 883 273 812 300 841 b 232 953 300 925 273 953 b 163 883 191 953 163 925 b 232 812 163 841 191 812 "},"˜":{"ha":637,"x_min":0,"x_max":0,"o":"m 416 728 b 208 823 319 728 295 823 b 138 733 165 823 139 788 l 90 733 b 222 912 90 859 144 912 b 430 820 321 912 346 820 b 498 911 477 820 498 857 l 549 911 b 416 728 549 785 499 728 "}}}
